<?xml version="1.0" encoding="utf-8"?>
<!-- Generator: Adobe Illustrator 15.1.0, SVG Export Plug-In . SVG Version: 6.00 Build 0)  -->
<!DOCTYPE svg PUBLIC "-//W3C//DTD SVG 1.1//EN" "http://www.w3.org/Graphics/SVG/1.1/DTD/svg11.dtd">
<svg version="1.1"
	 id="Слой_1" inkscape:version="0.47pre0" sodipodi:docname="opera.svg" xmlns:sodipodi="http://sodipodi.sourceforge.net/DTD/sodipodi-0.dtd" xmlns:svg="http://www.w3.org/2000/svg" xmlns:inkscape="http://www.inkscape.org/namespaces/inkscape" xmlns:dc="http://purl.org/dc/elements/1.1/" xmlns:cc="http://creativecommons.org/ns#" xmlns:rdf="http://www.w3.org/1999/02/22-rdf-syntax-ns#" inkscape:output_extension="org.inkscape.output.svg.inkscape"
	 xmlns="http://www.w3.org/2000/svg" xmlns:xlink="http://www.w3.org/1999/xlink" x="0px" y="0px" width="96px" height="96px"
	 viewBox="0 0 96 96" enable-background="new 0 0 96 96" xml:space="preserve">
<defs>
	
	
		<inkscape:perspective  inkscape:persp3d-origin="48 : 32 : 1" id="perspective106" inkscape:vp_z="96 : 48 : 1" inkscape:vp_y="0 : 1000 : 0" inkscape:vp_x="0 : 48 : 1" sodipodi:type="inkscape:persp3d">
		</inkscape:perspective>
</defs>
<sodipodi:namedview  inkscape:current-layer="Слой_1" inkscape:window-y="147" inkscape:window-x="378" inkscape:window-height="483" inkscape:window-width="640" inkscape:pageshadow="2" inkscape:pageopacity="0" id="namedview100" borderopacity="1" objecttolerance="10" gridtolerance="10" inkscape:cx="48" inkscape:zoom="2.4583333" pagecolor="#ffffff" bordercolor="#666666" guidetolerance="10" inkscape:cy="48" showgrid="false" inkscape:window-maximized="0">
	</sodipodi:namedview>
<path id="path3" opacity="0.4" enable-background="new    " d="M89.502,47.586c0,30.313-10.518,40.916-40.598,40.916
	c-30.077,0-40.598-10.604-40.598-40.916c0-30.315,10.521-40.919,40.598-40.919C78.984,6.667,89.502,17.271,89.502,47.586z"/>
<rect id="rect5" x="8.001" y="8.001" fill="none" width="79.999" height="79.999"/>
<rect id="rect7" x="0.001" y="0.001" fill="none" width="95.999" height="95.999"/>
<linearGradient id="path20_2_" gradientUnits="userSpaceOnUse" x1="-108.1128" y1="4478.9629" x2="-108.1128" y2="4560.709" gradientTransform="matrix(1 0 0 1 156.9204 -4472.1826)">
	<stop  offset="0" style="stop-color:#8BDFFF"/>
	<stop  offset="0.2751" style="stop-color:#5B9AB6"/>
	<stop  offset="0.5246" style="stop-color:#34637C"/>
	<stop  offset="0.7361" style="stop-color:#183B52"/>
	<stop  offset="0.9014" style="stop-color:#062338"/>
	<stop  offset="1" style="stop-color:#001A2E"/>
</linearGradient>
<path id="path20" fill="url(#path20_2_)" d="M88.807,47.48C88.807,77.497,78.443,88,48.809,88c-29.634,0-40-10.503-40-40.52
	c0-30.021,10.366-40.522,40-40.522C78.443,6.958,88.807,17.459,88.807,47.48z"/>
<rect x="22.167" y="13.917" fill="none" width="46.333" height="37.833"/>
<rect x="21.167" y="14.751" fill="none" width="46.333" height="37.833"/>
<linearGradient id="path20_3_" gradientUnits="userSpaceOnUse" x1="-100.2871" y1="4479.8477" x2="-115.8076" y2="4559.6934" gradientTransform="matrix(1 0 0 1 156.9204 -4472.1826)">
	<stop  offset="0.2303" style="stop-color:#001A2E"/>
	<stop  offset="0.3141" style="stop-color:#041F34"/>
	<stop  offset="0.4221" style="stop-color:#0E2E44"/>
	<stop  offset="0.5433" style="stop-color:#20475E"/>
	<stop  offset="0.6742" style="stop-color:#396A83"/>
	<stop  offset="0.813" style="stop-color:#5897B3"/>
	<stop  offset="0.9561" style="stop-color:#7ECDEC"/>
	<stop  offset="1" style="stop-color:#8BDFFF"/>
</linearGradient>
<path id="path20_1_" fill="url(#path20_3_)" d="M88,47.419c0,29.198-10.129,39.414-39.094,39.414
	c-28.964,0-39.096-10.216-39.096-39.414C9.81,18.215,19.942,8,48.906,8C77.871,8,88,18.215,88,47.419z"/>
<g>
	<path fill="#1A171B" d="M21.898,58.854h-4.7c0,0,0-6.087,0-12.533c0-6.441,4.7-6.382,4.7,0
		C21.898,52.705,21.898,58.854,21.898,58.854z"/>
	<path fill="#1A171B" d="M29.136,58.854h-4.774c0,0,0-8.836,0-18.179c0.224-5.134,4.626-4.832,4.774,0
		C29.136,42.079,29.136,58.854,29.136,58.854z"/>
	<path fill="#1A171B" d="M36.299,58.828h-4.775c0,0,0.038-18.489,0-22.164c0-4.946,4.514-5.297,4.775,0
		C36.299,47.953,36.299,58.828,36.299,58.828z"/>
</g>
<g>
	
		<linearGradient id="SVGID_1_" gradientUnits="userSpaceOnUse" x1="-7.5317" y1="-723.939" x2="-2.8311" y2="-723.939" gradientTransform="matrix(1 0 0 -1 25.1396 -673.8799)">
		<stop  offset="0" style="stop-color:#00D8FF"/>
		<stop  offset="1" style="stop-color:#00D8FF"/>
	</linearGradient>
	<path fill="url(#SVGID_1_)" d="M22.309,58.729h-4.701c0,0,0-6.087,0-12.531c0-6.442,4.701-6.383,4.701,0
		C22.309,52.58,22.309,58.729,22.309,58.729z"/>
	
		<linearGradient id="SVGID_2_" gradientUnits="userSpaceOnUse" x1="-0.3672" y1="-721.6504" x2="4.4072" y2="-721.6504" gradientTransform="matrix(1 0 0 -1 25.1396 -673.8799)">
		<stop  offset="0" style="stop-color:#00D8FF"/>
		<stop  offset="1" style="stop-color:#00D8FF"/>
	</linearGradient>
	<path fill="url(#SVGID_2_)" d="M29.547,58.729h-4.774c0,0,0-8.834,0-18.18c0.223-5.135,4.626-4.833,4.774,0
		C29.547,41.954,29.547,58.729,29.547,58.729z"/>
	
		<linearGradient id="SVGID_3_" gradientUnits="userSpaceOnUse" x1="6.7939" y1="-719.5811" x2="11.5693" y2="-719.5811" gradientTransform="matrix(1 0 0 -1 25.1396 -673.8799)">
		<stop  offset="0" style="stop-color:#00D8FF"/>
		<stop  offset="1" style="stop-color:#00D8FF"/>
	</linearGradient>
	<path fill="url(#SVGID_3_)" d="M36.709,58.704h-4.775c0,0,0.038-18.489,0-22.164c0-4.946,4.514-5.296,4.775,0
		C36.709,47.829,36.709,58.704,36.709,58.704z"/>
</g>
<g>
	<path d="M35.033,69.42c0.034-0.107,0.115-0.181,0.242-0.221c0.068-0.02,0.142-0.033,0.22-0.043s0.154-0.021,0.227-0.026
		c0.073-0.007,0.14-0.012,0.201-0.015c0.061-0.002,0.109-0.004,0.143-0.004c0.054,0,0.089,0.009,0.106,0.023
		c0.017,0.02,0.026,0.038,0.026,0.063c0,0.021-0.012,0.062-0.037,0.125l-3.479,8.313c-0.039,0.084-0.081,0.128-0.125,0.134
		c-0.024,0.004-0.065,0.011-0.121,0.016s-0.115,0.009-0.176,0.012c-0.061,0.002-0.12,0.005-0.176,0.008
		c-0.056,0.004-0.094,0.004-0.113,0.004c-0.029,0-0.058-0.008-0.084-0.021c-0.027-0.015-0.05-0.046-0.07-0.097l-2.886-7.436
		c-0.088-0.229-0.192-0.383-0.311-0.461c-0.12-0.078-0.258-0.117-0.414-0.117c-0.049,0-0.099,0.004-0.15,0.01
		c-0.051,0.004-0.106,0.013-0.165,0.021l-0.044-0.4c0.215-0.045,0.43-0.082,0.645-0.115c0.215-0.029,0.411-0.06,0.589-0.08
		c0.178-0.021,0.329-0.038,0.451-0.051c0.122-0.014,0.2-0.02,0.234-0.02c0.073,0,0.127,0.021,0.161,0.068
		c0.034,0.046,0.068,0.109,0.103,0.193l2.615,6.817h0.029L35.033,69.42z"/>
	<path d="M36.703,69.303c0.264-0.049,0.514-0.091,0.751-0.125c0.236-0.033,0.446-0.061,0.63-0.08
		c0.183-0.02,0.335-0.033,0.458-0.045c0.122-0.009,0.2-0.014,0.234-0.014c0.156,0,0.234,0.078,0.234,0.234v3.91l3.604-3.771
		c0.098-0.107,0.21-0.178,0.337-0.213c0.068-0.02,0.149-0.035,0.242-0.047c0.093-0.014,0.187-0.021,0.282-0.025
		c0.095-0.005,0.183-0.009,0.264-0.012c0.08-0.002,0.143-0.004,0.187-0.004c0.054,0,0.093,0.014,0.117,0.041
		c0.024,0.023,0.037,0.058,0.037,0.092c0,0.039-0.015,0.072-0.044,0.102l-3.633,3.422l3.889,4.701
		c0.024,0.039,0.037,0.066,0.037,0.08c0,0.035-0.015,0.065-0.044,0.092c-0.029,0.027-0.066,0.047-0.11,0.057
		c-0.083,0.017-0.189,0.027-0.318,0.039c-0.13,0.015-0.259,0.021-0.389,0.029c-0.129,0.008-0.247,0.012-0.352,0.018
		c-0.105,0.002-0.174,0.003-0.208,0.003c-0.117,0-0.208-0.043-0.271-0.134l-3.625-4.461v4.302c0,0.114-0.059,0.188-0.176,0.205
		c-0.083,0.016-0.175,0.026-0.275,0.038c-0.1,0.015-0.197,0.021-0.293,0.029c-0.095,0.008-0.183,0.012-0.264,0.018
		c-0.08,0.002-0.14,0.003-0.179,0.003c-0.117,0-0.176-0.063-0.176-0.185V70.35c0-0.137-0.014-0.248-0.041-0.332
		c-0.027-0.086-0.065-0.15-0.117-0.203c-0.051-0.047-0.112-0.082-0.183-0.102c-0.071-0.02-0.15-0.029-0.238-0.029
		c-0.107,0-0.215,0.008-0.322,0.021L36.703,69.303z"/>
	<path d="M46.737,77.088c0,0.278-0.077,0.48-0.23,0.607c-0.154,0.127-0.37,0.188-0.648,0.188c-0.234,0-0.414-0.069-0.538-0.213
		c-0.125-0.142-0.187-0.337-0.187-0.586c0-0.276,0.078-0.479,0.234-0.608c0.156-0.131,0.374-0.194,0.652-0.194
		c0.234,0,0.413,0.071,0.535,0.216C46.676,76.643,46.737,76.839,46.737,77.088z"/>
	<path d="M51.381,73.807c0-0.142-0.008-0.271-0.021-0.389c-0.016-0.117-0.051-0.218-0.107-0.304
		c-0.061-0.085-0.145-0.151-0.253-0.197c-0.106-0.047-0.263-0.069-0.45-0.069c-0.271,0-0.504,0.047-0.689,0.139
		c-0.188,0.096-0.34,0.221-0.457,0.373c-0.117,0.158-0.203,0.343-0.258,0.553c-0.056,0.21-0.08,0.436-0.08,0.674
		c0,0.332,0.045,0.643,0.133,0.928c0.088,0.284,0.221,0.535,0.396,0.75c0.181,0.217,0.404,0.385,0.681,0.508
		c0.271,0.121,0.598,0.184,0.975,0.184c0.098,0,0.207-0.008,0.328-0.021c0.123-0.015,0.246-0.033,0.375-0.056
		c0.125-0.022,0.25-0.049,0.373-0.081c0.121-0.031,0.234-0.064,0.337-0.1l0.169,0.41c-0.23,0.104-0.473,0.199-0.727,0.289
		c-0.254,0.092-0.5,0.17-0.738,0.232c-0.24,0.064-0.463,0.117-0.668,0.154c-0.205,0.033-0.373,0.055-0.504,0.055
		c-0.395,0-0.736-0.07-1.037-0.22c-0.301-0.146-0.553-0.345-0.758-0.593c-0.205-0.243-0.361-0.528-0.469-0.854
		c-0.108-0.322-0.161-0.658-0.161-1.01c0-0.455,0.085-0.866,0.256-1.234c0.171-0.369,0.405-0.684,0.705-0.945
		c0.297-0.26,0.646-0.461,1.047-0.604c0.402-0.143,0.83-0.213,1.289-0.213c0.188,0,0.369,0.018,0.555,0.051
		c0.184,0.035,0.348,0.094,0.492,0.176c0.146,0.084,0.268,0.193,0.354,0.33c0.091,0.137,0.136,0.311,0.136,0.514
		c0,0.261-0.086,0.445-0.256,0.563c-0.172,0.114-0.384,0.174-0.638,0.174c-0.106,0-0.216-0.009-0.321-0.021L51.381,73.807
		L51.381,73.807z"/>
	<path d="M56.111,77.835c-0.404,0-0.771-0.071-1.104-0.216c-0.327-0.145-0.612-0.342-0.854-0.59
		c-0.238-0.249-0.422-0.543-0.553-0.883c-0.129-0.34-0.191-0.705-0.191-1.098c0-0.43,0.072-0.82,0.223-1.179
		c0.15-0.356,0.354-0.661,0.619-0.912c0.266-0.252,0.578-0.444,0.943-0.586s0.771-0.209,1.209-0.209
		c0.404,0,0.775,0.067,1.109,0.209s0.618,0.331,0.855,0.573c0.234,0.244,0.421,0.531,0.553,0.863
		c0.133,0.332,0.198,0.69,0.198,1.076c0,0.439-0.074,0.842-0.222,1.205c-0.146,0.363-0.354,0.674-0.617,0.93
		c-0.268,0.258-0.584,0.457-0.952,0.601C56.963,77.764,56.557,77.835,56.111,77.835z M56.457,77.189c0.264,0,0.48-0.06,0.65-0.172
		c0.172-0.115,0.306-0.265,0.404-0.442c0.096-0.181,0.161-0.384,0.198-0.608c0.036-0.224,0.058-0.443,0.058-0.658
		c0-0.264-0.029-0.543-0.084-0.836c-0.06-0.293-0.15-0.563-0.283-0.809c-0.131-0.247-0.305-0.451-0.521-0.611
		c-0.215-0.162-0.479-0.242-0.798-0.242c-0.265,0-0.479,0.061-0.649,0.172c-0.174,0.115-0.308,0.267-0.404,0.447
		c-0.098,0.186-0.166,0.387-0.203,0.607c-0.039,0.223-0.061,0.443-0.061,0.663c0,0.269,0.028,0.55,0.088,0.843
		c0.061,0.293,0.152,0.563,0.287,0.805c0.131,0.245,0.305,0.446,0.521,0.604C55.873,77.111,56.139,77.189,56.457,77.189z"/>
	<path d="M59.833,72.613c0.265-0.074,0.507-0.137,0.729-0.188c0.223-0.051,0.418-0.094,0.586-0.128
		c0.168-0.033,0.307-0.059,0.414-0.072c0.104-0.015,0.178-0.021,0.211-0.021c0.146,0,0.229,0.088,0.242,0.264l0.021,0.314
		c0.221-0.089,0.438-0.171,0.655-0.245c0.218-0.076,0.426-0.143,0.621-0.194c0.199-0.054,0.381-0.097,0.551-0.128
		c0.169-0.031,0.312-0.048,0.429-0.048c0.321,0,0.588,0.062,0.795,0.181c0.208,0.118,0.367,0.288,0.479,0.51
		c0.518-0.233,0.982-0.406,1.401-0.521c0.416-0.11,0.767-0.168,1.044-0.168s0.518,0.044,0.719,0.132
		c0.199,0.09,0.362,0.21,0.49,0.366c0.127,0.156,0.221,0.347,0.28,0.565c0.062,0.225,0.092,0.47,0.092,0.735l-0.034,3.523
		c0,0.116-0.061,0.187-0.178,0.204c-0.076,0.017-0.165,0.027-0.26,0.041c-0.098,0.013-0.188,0.021-0.278,0.029
		c-0.091,0.006-0.174,0.012-0.247,0.016c-0.076,0.002-0.133,0.003-0.166,0.003c-0.117,0-0.177-0.062-0.177-0.185l0.037-2.914v-0.108
		c0-0.265-0.021-0.495-0.063-0.692s-0.11-0.363-0.209-0.498c-0.1-0.135-0.228-0.234-0.387-0.304
		c-0.156-0.067-0.354-0.104-0.59-0.104c-0.039,0-0.102,0.006-0.184,0.021c-0.084,0.013-0.183,0.032-0.297,0.062
		c-0.113,0.024-0.242,0.063-0.386,0.111s-0.289,0.109-0.438,0.186c0.049,0.176,0.07,0.402,0.07,0.688l-0.035,3.449
		c0,0.117-0.059,0.188-0.176,0.205c-0.078,0.016-0.164,0.027-0.26,0.041c-0.096,0.012-0.188,0.021-0.277,0.029
		c-0.092,0.006-0.174,0.012-0.25,0.015c-0.074,0.002-0.131,0.003-0.164,0.003c-0.117,0-0.176-0.061-0.176-0.184l0.037-2.914V74.58
		c0-0.521-0.089-0.921-0.266-1.194c-0.176-0.271-0.482-0.409-0.924-0.409c-0.082,0-0.239,0.023-0.471,0.072
		c-0.232,0.049-0.508,0.145-0.818,0.285v4.16c0,0.117-0.06,0.188-0.176,0.205c-0.078,0.016-0.164,0.027-0.261,0.041
		c-0.096,0.012-0.188,0.021-0.276,0.029c-0.09,0.006-0.174,0.012-0.25,0.014c-0.074,0.003-0.131,0.004-0.164,0.004
		c-0.116,0-0.176-0.061-0.176-0.184v-3.99c0-0.26-0.041-0.438-0.125-0.531c-0.082-0.096-0.216-0.143-0.396-0.143
		c-0.049,0-0.1,0-0.148,0.002c-0.052,0.004-0.113,0.012-0.188,0.024L59.833,72.613z"/>
</g>
<rect x="39.25" y="25" fill="none" width="41.75" height="29.75"/>
<g enable-background="new    ">
	<path fill="#1A171B" d="M46.884,54.936c1.758,0,3.15-0.427,4.241-0.941c1.095-0.515,1.639-1.361,1.639-2.54
		c0-0.587-0.095-1.083-0.284-1.49c-0.19-0.405-0.51-0.773-0.96-1.105c-0.452-0.331-1.066-0.659-1.841-0.982
		c-0.775-0.323-1.75-0.714-2.922-1.171c-0.936-0.368-1.835-0.738-2.705-1.114c-0.872-0.374-1.644-0.829-2.315-1.358
		c-0.675-0.529-1.216-1.165-1.627-1.909c-0.413-0.742-0.618-1.637-0.618-2.683c0-2.001,0.807-3.621,2.421-4.857
		c1.614-1.237,3.814-1.855,6.603-1.855c1.742,0,3.185,0.141,4.335,0.421c1.146,0.279,2.262,0.683,2.741,0.883
		c1.648,0.767,0.79,3.748-0.951,3.288c-0.161-0.063-1.421-0.588-2.313-0.883c-0.896-0.294-2.212-0.442-3.956-0.442
		c-0.681,0-1.323,0.063-1.922,0.189c-0.602,0.126-1.125,0.32-1.567,0.585c-0.442,0.265-0.792,0.594-1.045,0.981
		c-0.251,0.39-0.379,0.866-0.379,1.424c0,0.59,0.116,1.082,0.344,1.48c0.23,0.397,0.578,0.754,1.045,1.07
		c0.467,0.317,1.057,0.627,1.77,0.927c0.71,0.302,1.542,0.638,2.492,1.005c0.963,0.353,1.902,0.721,2.813,1.104
		s1.721,0.854,2.432,1.414c0.715,0.56,1.296,1.226,1.746,1.997c0.452,0.773,0.678,1.755,0.678,2.948c0,2.224-0.895,3.907-2.683,5.06
		c-1.788,1.146-4.204,1.719-7.244,1.719c-2.246,0-3.968-0.179-5.162-0.54c-1.197-0.359-1.569-0.495-2.671-0.96
		c-2.045-1.397-0.315-3.898,1.045-3.376c0.568,0.278,0.723,0.373,1.032,0.509c0.31,0.13,0.727,0.278,1.259,0.441
		c0.53,0.161,1.158,0.411,1.903,0.529C45,54.819,45.904,54.936,46.884,54.936z"/>
	<path fill="#1A171B" d="M78.355,36.7c-0.393,0.393-1.808,1.95-3.003,3.335c-1.196,1.383-2.475,2.925-3.835,4.624
		c-1.364,1.701-2.704,3.474-4.023,5.321c-1.323,1.849-2.382,3.418-3.172,4.715c0,0,13.59,0.004,14.46,0
		c1.332,0.286,1.432,2.902,0,3.2c-0.724,0.038-18.154,0.239-18.965,0.204c-0.808-0.034-1.122-1.489-0.172-2.766
		c0.399-0.76,1.817-3.045,3.076-4.831c1.256-1.79,2.667-3.716,3.999-5.446c1.33-1.729,2.46-3.155,3.728-4.678
		c1.265-1.524,2.11-2.781,2.648-3.369c0,0-11.944,0.004-12.716,0c-1.305-0.091-1.347-2.737,0-3.202c0.861-0.001,17.975,0,17.975,0
		S80.144,34.634,78.355,36.7z"/>
</g>
<g enable-background="new    ">
	<path fill="#FFFFFF" d="M47.428,55.245c1.76,0,3.207-0.25,4.297-0.776c1.094-0.526,1.464-1.509,1.464-2.715
		c0-0.601-0.072-1.097-0.263-1.513c-0.189-0.413-0.431-0.838-0.881-1.178c-0.451-0.337-1.065-0.673-1.84-1.004
		c-0.774-0.331-1.75-0.73-2.922-1.197c-0.935-0.376-1.835-0.755-2.704-1.139c-0.872-0.383-1.644-0.847-2.316-1.389
		c-0.674-0.542-1.216-1.191-1.626-1.951c-0.413-0.759-0.619-1.675-0.619-2.744c0-2.047,0.807-3.703,2.421-4.967
		s3.814-1.896,6.604-1.896c1.741,0,3.183,0.145,4.334,0.43c1.146,0.286,2.262,0.698,2.74,0.904c1.648,0.784,0.79,3.833-0.95,3.362
		c-0.162-0.064-1.421-0.601-2.313-0.903c-0.896-0.3-2.213-0.45-3.956-0.45c-0.681,0-1.323,0.064-1.923,0.192
		c-0.602,0.128-1.125,0.327-1.567,0.599c-0.442,0.271-0.792,0.606-1.045,1.003c-0.252,0.399-0.379,0.886-0.379,1.456
		c0,0.603,0.115,1.106,0.345,1.513c0.229,0.407,0.577,0.771,1.044,1.095c0.467,0.325,1.057,0.641,1.77,0.948
		c0.71,0.31,1.543,0.651,2.492,1.028c0.963,0.36,1.902,0.737,2.813,1.129c0.911,0.391,1.722,0.873,2.432,1.444
		c0.716,0.574,1.198,1.299,1.649,2.087c0.452,0.791,0.734,1.73,0.676,2.948c-0.113,2.327-0.9,4.034-2.553,5.313
		c-1.789,1.174-4.186,1.953-7.225,1.953c-2.247,0-4.018-0.496-5.213-0.865c-1.196-0.369-1.569-0.507-2.671-0.982
		c-2.046-1.428-0.315-3.986,1.045-3.454c0.568,0.286,0.723,0.382,1.031,0.521c0.31,0.134,0.728,0.286,1.26,0.451
		c0.529,0.165,1.12,0.395,1.864,0.516C45.488,55.132,46.448,55.245,47.428,55.245z"/>
	<path fill="#FFFFFF" d="M78.973,36.275c-0.392,0.402-1.79,1.994-2.973,3.411c-1.184,1.415-2.447,2.992-3.792,4.728
		c-1.351,1.74-2.677,3.553-3.982,5.442c-1.307,1.889-2.361,3.809-3.142,5.137c0,0,13.395,0.043,14.254,0.039
		c1.317,0.293,1.491,3.18,0.074,3.482c-0.715,0.039-18.131,0.035-18.932,0s-0.958-1.879-0.019-3.185
		c0.396-0.775,1.915-3.283,3.16-5.113c1.243-1.829,2.522-3.627,3.84-5.397c1.315-1.769,2.6-3.432,3.851-4.989
		c1.253-1.559,2.145-2.638,2.681-3.239c0,0-12.039,0.003-12.803,0c-1.291-0.094-1.332-2.8,0-3.275c0.852-0.001,17.78,0,17.78,0
		S80.739,34.163,78.973,36.275z"/>
</g>
<path fill="#FFFFFF" d="M158.75,46.5"/>
</svg>
