<?xml version="1.0" encoding="utf-8"?>
<!-- Generator: Adobe Illustrator 16.0.1, SVG Export Plug-In . SVG Version: 6.00 Build 0)  -->
<!DOCTYPE svg PUBLIC "-//W3C//DTD SVG 1.1//EN" "http://www.w3.org/Graphics/SVG/1.1/DTD/svg11.dtd">
<svg version="1.1" id="Layer_1" xmlns="http://www.w3.org/2000/svg" xmlns:xlink="http://www.w3.org/1999/xlink" x="0px" y="0px"
	 width="96px" height="96px" viewBox="0 0 96 96" enable-background="new 0 0 96 96" xml:space="preserve">
<g id="DO_NOT_EDIT_-_BOUNDING_BOX">
	<rect id="BOUNDING_BOX" fill="none" width="96" height="96"/>
</g>
<g id="GREEN_BACKGROUNDS">
	<g id="GREEN1">
		
			<radialGradient id="GREEN_1_1_" cx="47.3633" cy="49" r="39.9951" gradientTransform="matrix(1 0 0 -1 0 97)" gradientUnits="userSpaceOnUse">
			<stop  offset="0" style="stop-color:#27FFFF"/>
			<stop  offset="0.0606" style="stop-color:#28F0F2"/>
			<stop  offset="0.0956" style="stop-color:#29EAED"/>
			<stop  offset="0.1441" style="stop-color:#2AD8DE"/>
			<stop  offset="0.1782" style="stop-color:#2CC7D0"/>
			<stop  offset="0.3393" style="stop-color:#318699"/>
			<stop  offset="0.3711" style="stop-color:#336F85"/>
			<stop  offset="0.4105" style="stop-color:#355972"/>
			<stop  offset="0.4483" style="stop-color:#364B67"/>
			<stop  offset="0.4827" style="stop-color:#364763"/>
			<stop  offset="0.6293" style="stop-color:#364A65"/>
			<stop  offset="0.9727" style="stop-color:#2AAFBC"/>
			<stop  offset="1" style="stop-color:#28C2CC"/>
		</radialGradient>
		<path id="GREEN_1_2_" fill="url(#GREEN_1_1_)" d="M7.364,47.989c0,29.633,10.365,40,40,40c29.637,0,40-10.367,40-40
			c0-28.985-9.926-39.53-38.09-39.979h-3.818C17.292,8.459,7.364,19.004,7.364,47.989z"/>
		
			<linearGradient id="HIGHLIGHT_GR1_1_" gradientUnits="userSpaceOnUse" x1="47.4434" y1="2891.6211" x2="47.4433" y2="2971.6211" gradientTransform="matrix(1 0 0 1 -0.0801 -2883.6211)">
			<stop  offset="0" style="stop-color:#007696"/>
			<stop  offset="0.0924" style="stop-color:#007A9A"/>
			<stop  offset="0.1913" style="stop-color:#0087A7"/>
			<stop  offset="0.2931" style="stop-color:#009DBC"/>
			<stop  offset="0.3965" style="stop-color:#00BADA"/>
			<stop  offset="0.5" style="stop-color:#00E0FF"/>
			<stop  offset="0.5588" style="stop-color:#00B9D6"/>
			<stop  offset="0.6268" style="stop-color:#0093AD"/>
			<stop  offset="0.6968" style="stop-color:#00748B"/>
			<stop  offset="0.768" style="stop-color:#005B71"/>
			<stop  offset="0.841" style="stop-color:#004A5F"/>
			<stop  offset="0.9168" style="stop-color:#003F54"/>
			<stop  offset="1" style="stop-color:#003C50"/>
		</linearGradient>
		<path id="HIGHLIGHT_GR1" opacity="0.25" fill="url(#HIGHLIGHT_GR1_1_)" enable-background="new    " d="M47.364,8
			c-29.635,0-40,10.365-40,40c0,29.633,10.365,40,40,40c29.637,0,40-10.367,40-40C87.363,18.365,77.001,8,47.364,8z M47.364,87.023
			c-29.158,0-39-9.849-39-39.023s9.842-39.023,39-39.023c29.16,0,39,9.847,39,39.023S76.521,87.023,47.364,87.023z"/>
	</g>
</g>
<g id="PLACE_YOUR_GRAPHIC_HERE">
</g>
<g id="DO_NOT_EDIT_-_FOCAL_ZONE_GUIDES_ONLY" display="none">
</g>
<g>
	<g>
		<g>
			<g id="Layer_4">
				<path opacity="0.15" enable-background="new    " d="M34.152,76.087c-1.053,0-2.141-0.753-2.531-1.75l-1.386-3.53
					c-0.277-0.709-0.487-1.82-0.487-2.584V27.775c0-0.764,0.208-1.874,0.487-2.584l1.386-3.531c0.39-0.995,1.479-1.749,2.531-1.749
					h26.423c1.053,0,2.143,0.754,2.532,1.75l1.386,3.53c0.276,0.71,0.485,1.82,0.485,2.584v40.448c0,0.762-0.209,1.873-0.485,2.582
					l-1.386,3.531c-0.391,0.998-1.479,1.751-2.532,1.751H34.152L34.152,76.087z M40.208,69.346c-0.303,0-0.551,0.252-0.551,0.563
					c0,0.309,0.249,0.562,0.551,0.562H54.52c0.305,0,0.553-0.253,0.553-0.562c0-0.311-0.247-0.561-0.553-0.561L40.208,69.346
					L40.208,69.346z M59.473,63.729v-34.83h-24.22v34.83H59.473L59.473,63.729z"/>
				<path opacity="0.3" enable-background="new    " d="M63.469,26.732l-1.384-3.53c-0.226-0.573-0.903-1.043-1.51-1.043H34.152
					c-0.605,0-1.285,0.47-1.509,1.045l-1.384,3.53c-0.225,0.573-0.41,1.549-0.41,2.166v40.446c0,0.618,0.184,1.594,0.41,2.168
					l1.384,3.535c0.224,0.568,0.904,1.039,1.509,1.039h26.423c0.604,0,1.284-0.469,1.51-1.043l1.384-3.531
					c0.227-0.58,0.408-1.554,0.408-2.17V28.898C63.877,28.282,63.693,27.306,63.469,26.732z M54.52,72.716H40.208
					c-0.913,0-1.651-0.755-1.651-1.685s0.74-1.686,1.651-1.686H54.52c0.914,0,1.651,0.756,1.651,1.686S55.432,72.716,54.52,72.716z
					 M60.573,65.975H34.152V28.899h26.423v37.076H60.573L60.573,65.975z"/>
				
					<linearGradient id="SVGID_1_" gradientUnits="userSpaceOnUse" x1="184.8828" y1="-2414.793" x2="184.8828" y2="-2360.8643" gradientTransform="matrix(1 0 0 -1 -137.52 -2339.8301)">
					<stop  offset="0" style="stop-color:#D0CBC5"/>
					<stop  offset="0.5031" style="stop-color:#FAFCEF"/>
					<stop  offset="0.9693" style="stop-color:#FFFFFF"/>
				</linearGradient>
				<path fill="url(#SVGID_1_)" d="M63.469,25.608l-1.384-3.531c-0.226-0.572-0.903-1.043-1.51-1.043H34.152
					c-0.605,0-1.285,0.471-1.509,1.045l-1.384,3.531c-0.225,0.573-0.41,1.548-0.41,2.165v40.448c0,0.617,0.184,1.592,0.41,2.166
					l1.384,3.534c0.224,0.569,0.904,1.04,1.509,1.04h26.423c0.604,0,1.284-0.47,1.51-1.043l1.384-3.531
					c0.227-0.578,0.408-1.553,0.408-2.172V27.773C63.877,27.158,63.693,26.183,63.469,25.608z M54.52,71.592H40.208
					c-0.913,0-1.651-0.754-1.651-1.685s0.74-1.685,1.651-1.685H54.52c0.914,0,1.651,0.754,1.651,1.685S55.432,71.592,54.52,71.592z
					 M60.573,64.852H34.152V27.775h26.423v37.077H60.573L60.573,64.852z"/>
				<path fill="#FFFFFF" d="M34.152,65.975h26.423v-1.123H34.152V65.975z M54.52,71.592H40.208c-0.718,0-1.322-0.469-1.55-1.123
					c-0.062,0.178-0.102,0.365-0.102,0.563c0,0.93,0.74,1.685,1.651,1.685H54.52c0.912,0,1.65-0.755,1.65-1.685
					c0-0.198-0.04-0.386-0.102-0.563C55.841,71.123,55.236,71.592,54.52,71.592z M63.469,25.608l-1.384-3.531
					c-0.226-0.572-0.903-1.043-1.51-1.043H34.152c-0.605,0-1.285,0.471-1.509,1.045l-1.384,3.531
					c-0.225,0.573-0.41,1.548-0.41,2.165v1.124c0-0.617,0.184-1.594,0.41-2.167l1.384-3.53c0.224-0.573,0.904-1.043,1.509-1.043
					h26.423c0.604,0,1.284,0.47,1.51,1.045l1.384,3.53c0.227,0.573,0.408,1.549,0.408,2.166v-1.125
					C63.877,27.158,63.693,26.183,63.469,25.608z"/>
			</g>
		</g>
	</g>
	<g>
		<g>
			<path fill="#E7FFF1" stroke="#020200" stroke-width="0.2" stroke-miterlimit="10" d="M39.32,53.578
				c0.81-0.188,1.62-0.37,2.43-0.555c-0.125,0.029-0.244,0.082-0.351,0.154c-0.108,0.073-0.204,0.167-0.287,0.28
				c-0.083,0.11-0.151,0.24-0.205,0.384c-0.052,0.145-0.089,0.305-0.106,0.475l-2.458,0.664c0.019-0.188,0.057-0.362,0.111-0.52
				c0.055-0.159,0.125-0.299,0.21-0.42c0.086-0.121,0.185-0.223,0.294-0.301C39.069,53.663,39.191,53.607,39.32,53.578z"/>
			<path fill="#E7FFF1" stroke="#020200" stroke-width="0.2" stroke-miterlimit="10" d="M43.101,39.697
				c-0.784-0.257-1.568-0.514-2.352-0.771c-0.147-0.048-0.281-0.128-0.396-0.235c-0.115-0.106-0.212-0.239-0.29-0.394
				c-0.077-0.153-0.134-0.328-0.167-0.518s-0.042-0.397-0.025-0.616l2.376,0.908c-0.017,0.199-0.007,0.388,0.026,0.563
				c0.032,0.175,0.088,0.334,0.163,0.476s0.169,0.266,0.281,0.364C42.831,39.574,42.959,39.65,43.101,39.697z"/>
			<path fill="#E7FFF1" stroke="#020200" stroke-width="0.2" stroke-miterlimit="10" d="M41.179,42.654
				c-0.028-0.005-0.056-0.01-0.084-0.014c-0.028-0.005-0.058-0.008-0.087-0.011c-0.028-0.003-0.056-0.006-0.085-0.007
				c-0.029-0.002-0.059-0.004-0.087-0.004c-0.386-0.009-0.755,0.086-1.093,0.262c-0.331,0.174-0.632,0.426-0.89,0.737
				c-0.254,0.307-0.468,0.673-0.627,1.081c-0.158,0.405-0.265,0.854-0.304,1.33s-0.012,0.94,0.075,1.373
				c0.088,0.435,0.234,0.842,0.431,1.201c0.198,0.364,0.449,0.682,0.742,0.93c0.297,0.253,0.639,0.433,1.014,0.52
				c0.06,0.014,0.118,0.023,0.177,0.032c0.06,0.01,0.118,0.015,0.176,0.019s0.117,0.004,0.176,0.004
				c0.059-0.002,0.117-0.006,0.175-0.013c0.213-0.022,0.425-0.044,0.638-0.065c0.281-0.029,0.561-0.062,0.842-0.09l0.895-0.096
				c-0.055,0.008-0.113,0.012-0.169,0.012c-0.057,0.002-0.113,0.002-0.17-0.002c-0.057-0.002-0.114-0.006-0.17-0.016
				c-0.058-0.006-0.114-0.018-0.171-0.029c-0.365-0.074-0.697-0.238-0.986-0.467c-0.286-0.225-0.531-0.512-0.726-0.844
				c-0.193-0.328-0.338-0.7-0.424-1.098c-0.087-0.396-0.116-0.819-0.079-1.255c0.039-0.437,0.141-0.847,0.295-1.215
				c0.154-0.372,0.363-0.706,0.61-0.983c0.252-0.282,0.544-0.51,0.867-0.664c0.327-0.157,0.685-0.239,1.058-0.229
				c0.028,0.001,0.057,0.002,0.085,0.004c0.027,0.002,0.055,0.005,0.083,0.008c0.027,0.003,0.054,0.007,0.083,0.011
				c0.027,0.004,0.054,0.009,0.083,0.014L41.179,42.654z"/>
			<path fill="#E7FFF1" stroke="#020200" stroke-width="0.2" stroke-miterlimit="10" d="M46.098,54.907
				c-0.754,0.276-1.509,0.556-2.264,0.834c0.017-0.007,0.032-0.013,0.049-0.021c0.016-0.006,0.032-0.01,0.048-0.019
				c0.017-0.007,0.032-0.013,0.049-0.019c0.016-0.008,0.032-0.014,0.048-0.02l2.255-0.83c-0.016,0.006-0.03,0.014-0.046,0.02
				c-0.016,0.006-0.031,0.013-0.047,0.019c-0.015,0.007-0.03,0.011-0.046,0.019C46.129,54.896,46.114,54.902,46.098,54.907z"/>
			<path fill="#E7FFF1" stroke="#020200" stroke-width="0.2" stroke-miterlimit="10" d="M44.553,37.254
				c0.73,0.336,1.461,0.672,2.192,1.008c0.083,0.038,0.164,0.078,0.246,0.119c0.082,0.042,0.162,0.086,0.241,0.132
				c0.081,0.045,0.16,0.093,0.24,0.142c0.078,0.051,0.157,0.102,0.234,0.155l-2.14-0.973c-0.082-0.057-0.164-0.112-0.248-0.165
				c-0.084-0.053-0.167-0.104-0.252-0.152c-0.084-0.049-0.169-0.095-0.255-0.14C44.726,37.336,44.64,37.294,44.553,37.254z"/>
			<path fill="#E7FFF1" stroke="#020200" stroke-width="0.2" stroke-miterlimit="10" d="M45.064,52.574
				c0.731-0.176,1.463-0.354,2.194-0.53c-0.164,0.04-0.316,0.106-0.456,0.196c-0.137,0.088-0.261,0.201-0.367,0.332
				c-0.104,0.132-0.192,0.281-0.258,0.449c-0.066,0.168-0.11,0.354-0.128,0.549c-0.01,0.111-0.013,0.221-0.007,0.328
				c0.005,0.109,0.019,0.217,0.039,0.322c0.021,0.106,0.048,0.211,0.082,0.313c0.035,0.104,0.074,0.205,0.12,0.301l-2.255,0.83
				c-0.047-0.108-0.09-0.222-0.125-0.337c-0.035-0.115-0.063-0.232-0.085-0.352c-0.021-0.119-0.035-0.237-0.04-0.359
				c-0.006-0.119-0.004-0.242,0.007-0.363c0.021-0.22,0.068-0.422,0.137-0.607c0.07-0.185,0.162-0.352,0.272-0.496
				c0.112-0.145,0.243-0.268,0.388-0.364C44.729,52.689,44.891,52.616,45.064,52.574z"/>
			<path fill="#E7FFF1" stroke="#020200" stroke-width="0.2" stroke-miterlimit="10" d="M48.407,41.948
				c-0.058-0.017-0.134-0.04-0.191-0.057c-0.028-0.009-0.068-0.021-0.096-0.029c-0.236-0.07-0.471-0.141-0.707-0.211
				c-0.37-0.11-0.74-0.221-1.11-0.331c-0.205-0.062-0.392-0.162-0.554-0.294c-0.16-0.132-0.297-0.294-0.406-0.48
				c-0.107-0.185-0.187-0.396-0.234-0.624c-0.046-0.228-0.06-0.474-0.036-0.732c0.012-0.124,0.031-0.246,0.059-0.365
				c0.028-0.119,0.063-0.235,0.104-0.349c0.041-0.114,0.092-0.224,0.146-0.33c0.055-0.106,0.117-0.21,0.183-0.309l2.14,0.973
				c-0.063,0.087-0.12,0.179-0.172,0.272c-0.052,0.095-0.098,0.193-0.137,0.294c-0.04,0.101-0.073,0.205-0.099,0.312
				c-0.025,0.107-0.044,0.216-0.054,0.327c-0.023,0.232-0.008,0.455,0.036,0.661c0.043,0.205,0.12,0.396,0.222,0.564
				c0.103,0.169,0.232,0.317,0.384,0.438C48.037,41.798,48.213,41.891,48.407,41.948z"/>
			<path fill="#E7FFF1" stroke="#020200" stroke-width="0.2" stroke-miterlimit="10" d="M48.854,49.839l1.951-0.271
				c-0.097,0.308-0.207,0.604-0.328,0.893c-0.121,0.286-0.256,0.564-0.398,0.829c-0.145,0.267-0.299,0.519-0.465,0.761
				c-0.162,0.24-0.334,0.469-0.516,0.686l-2.082,0.639c0.193-0.238,0.378-0.491,0.554-0.759c0.176-0.271,0.341-0.552,0.497-0.847
				c0.156-0.299,0.3-0.607,0.431-0.929C48.63,50.518,48.749,50.182,48.854,49.839z"/>
			<path fill="#E7FFF1" stroke="#020200" stroke-width="0.2" stroke-miterlimit="10" d="M49.582,48.678
				c-0.141-0.207-0.247-0.441-0.311-0.688c-0.063-0.247-0.084-0.51-0.06-0.779c0.026-0.27,0.103-0.521,0.212-0.748
				c0.111-0.229,0.262-0.433,0.439-0.604c0.18-0.173,0.391-0.313,0.619-0.413c0.234-0.102,0.49-0.161,0.76-0.17l-1.91-0.262
				c-0.29,0.012-0.564,0.081-0.814,0.195c-0.25,0.113-0.475,0.271-0.667,0.466c-0.192,0.193-0.352,0.422-0.471,0.678
				c-0.119,0.254-0.197,0.536-0.227,0.839c-0.029,0.301-0.006,0.594,0.061,0.871c0.068,0.278,0.18,0.54,0.329,0.773
				c0.15,0.235,0.338,0.445,0.558,0.615c0.221,0.172,0.475,0.306,0.753,0.389l1.951-0.271c-0.259-0.071-0.494-0.19-0.701-0.344
				C49.898,49.074,49.723,48.889,49.582,48.678z"/>
			<path fill="#E7FFF1" stroke="#020200" stroke-width="0.2" stroke-miterlimit="10" d="M40.183,50.052
				c0.382,0.089,0.765,0.067,1.127-0.046c0.37-0.113,0.719-0.328,1.026-0.623c0.313-0.3,0.583-0.683,0.788-1.129
				c0.206-0.451,0.345-0.966,0.396-1.521c0.051-0.557,0.008-1.096-0.112-1.592c-0.119-0.492-0.314-0.938-0.568-1.314
				c-0.251-0.37-0.556-0.67-0.9-0.879c-0.337-0.205-0.711-0.32-1.104-0.329c-0.386-0.009-0.755,0.086-1.093,0.262
				c-0.331,0.174-0.632,0.426-0.89,0.737c-0.254,0.307-0.468,0.673-0.627,1.081c-0.158,0.405-0.265,0.854-0.304,1.33
				s-0.012,0.94,0.075,1.373c0.088,0.435,0.234,0.842,0.431,1.202c0.198,0.363,0.449,0.681,0.742,0.929
				C39.466,49.785,39.808,49.965,40.183,50.052 M47.152,47.19c-0.029,0.301-0.006,0.594,0.061,0.871
				c0.068,0.278,0.18,0.539,0.329,0.773c0.15,0.234,0.338,0.445,0.558,0.615c0.221,0.172,0.475,0.306,0.753,0.389
				c-0.104,0.344-0.225,0.678-0.355,1.001c-0.131,0.32-0.275,0.629-0.431,0.929c-0.156,0.295-0.321,0.576-0.497,0.847
				c-0.176,0.268-0.361,0.521-0.554,0.759c-0.079-0.096-0.164-0.188-0.254-0.268c-0.088-0.084-0.183-0.16-0.28-0.227
				s-0.199-0.125-0.303-0.176c-0.104-0.049-0.212-0.086-0.323-0.115c-0.269-0.07-0.528-0.072-0.765-0.021
				c-0.235,0.054-0.451,0.16-0.636,0.313c-0.183,0.152-0.337,0.35-0.452,0.581c-0.114,0.229-0.19,0.497-0.218,0.794
				c-0.012,0.121-0.014,0.244-0.007,0.363c0.005,0.122,0.019,0.24,0.04,0.359c0.022,0.118,0.05,0.235,0.085,0.352
				c0.035,0.115,0.078,0.229,0.125,0.337c-0.232,0.094-0.468,0.173-0.705,0.237c-0.235,0.064-0.472,0.113-0.709,0.147
				c-0.235,0.034-0.472,0.054-0.708,0.058c-0.234,0.004-0.469-0.006-0.704-0.031c0.02-0.273-0.003-0.551-0.062-0.814
				c-0.058-0.264-0.151-0.515-0.272-0.738c-0.122-0.224-0.269-0.42-0.437-0.576c-0.166-0.154-0.352-0.271-0.548-0.336
				c-0.197-0.064-0.385-0.073-0.56-0.035c-0.173,0.039-0.331,0.125-0.468,0.25c-0.136,0.126-0.252,0.289-0.339,0.482
				c-0.087,0.194-0.146,0.42-0.171,0.672c-0.19-0.135-0.373-0.276-0.549-0.428c-0.175-0.15-0.343-0.31-0.504-0.475
				c-0.16-0.165-0.313-0.338-0.459-0.518c-0.146-0.179-0.284-0.362-0.417-0.556c0.045-0.062,0.085-0.127,0.123-0.198
				c0.038-0.072,0.072-0.149,0.101-0.233c0.029-0.081,0.054-0.171,0.074-0.263c0.02-0.093,0.034-0.19,0.042-0.293
				c0.021-0.244,0.007-0.486-0.036-0.716c-0.043-0.229-0.114-0.444-0.208-0.633c-0.093-0.188-0.208-0.349-0.34-0.476
				c-0.129-0.123-0.275-0.211-0.431-0.25c-0.064-0.018-0.128-0.024-0.19-0.024c-0.062,0.002-0.122,0.011-0.18,0.026
				c-0.058,0.018-0.115,0.039-0.17,0.07c-0.054,0.029-0.106,0.067-0.156,0.109c-0.069-0.229-0.13-0.46-0.186-0.693
				c-0.055-0.234-0.103-0.471-0.144-0.711c-0.042-0.239-0.076-0.48-0.103-0.727c-0.027-0.245-0.047-0.491-0.06-0.742
				c0.13-0.002,0.257-0.042,0.376-0.115c0.119-0.074,0.229-0.181,0.327-0.314c0.098-0.135,0.18-0.297,0.244-0.48
				c0.063-0.183,0.106-0.386,0.125-0.604c0.018-0.218,0.008-0.429-0.025-0.624c-0.032-0.195-0.087-0.376-0.162-0.532
				c-0.074-0.156-0.166-0.289-0.271-0.393c-0.105-0.102-0.223-0.174-0.351-0.209c0.052-0.243,0.111-0.482,0.176-0.717
				c0.066-0.236,0.139-0.468,0.217-0.694c0.08-0.229,0.165-0.452,0.257-0.671c0.093-0.22,0.191-0.436,0.296-0.646
				c0.042,0.057,0.088,0.108,0.137,0.152c0.049,0.045,0.102,0.083,0.157,0.114c0.056,0.031,0.115,0.057,0.176,0.073
				c0.062,0.016,0.125,0.024,0.192,0.024c0.161-0.001,0.32-0.052,0.469-0.143c0.15-0.092,0.292-0.226,0.415-0.391
				c0.125-0.166,0.231-0.363,0.312-0.584c0.082-0.22,0.136-0.462,0.157-0.714c0.009-0.105,0.012-0.209,0.007-0.31
				c-0.004-0.1-0.014-0.196-0.029-0.288c-0.016-0.093-0.037-0.181-0.063-0.265c-0.025-0.083-0.057-0.162-0.091-0.235
				c0.165-0.161,0.335-0.314,0.512-0.459c0.178-0.146,0.36-0.283,0.55-0.411c0.191-0.129,0.386-0.248,0.588-0.357
				c0.203-0.11,0.412-0.21,0.625-0.298c-0.021,0.267-0.002,0.515,0.05,0.737c0.052,0.224,0.14,0.422,0.254,0.585
				c0.115,0.164,0.258,0.294,0.424,0.379c0.168,0.086,0.358,0.126,0.566,0.11c0.21-0.017,0.417-0.088,0.611-0.205
				c0.196-0.118,0.38-0.281,0.542-0.479c0.163-0.2,0.303-0.434,0.409-0.69c0.106-0.258,0.18-0.537,0.208-0.826
				c0.229,0.032,0.455,0.079,0.678,0.14c0.226,0.061,0.448,0.136,0.667,0.224c0.222,0.089,0.439,0.191,0.652,0.308
				c0.216,0.117,0.428,0.248,0.632,0.392c-0.066,0.099-0.127,0.202-0.183,0.309c-0.055,0.106-0.104,0.217-0.146,0.33
				c-0.042,0.113-0.077,0.229-0.104,0.349c-0.027,0.12-0.047,0.241-0.059,0.365c-0.029,0.308-0.004,0.598,0.066,0.859
				c0.07,0.263,0.185,0.499,0.337,0.697c0.155,0.199,0.346,0.361,0.568,0.472c0.224,0.112,0.479,0.174,0.757,0.171
				c0.119-0.001,0.236-0.015,0.352-0.038c0.117-0.024,0.231-0.06,0.344-0.105s0.224-0.102,0.33-0.167
				c0.108-0.065,0.212-0.14,0.312-0.223c0.156,0.3,0.299,0.613,0.428,0.937c0.13,0.326,0.246,0.664,0.348,1.013
				c0.102,0.35,0.188,0.709,0.258,1.077c0.069,0.369,0.122,0.747,0.16,1.131c-0.29,0.012-0.564,0.081-0.814,0.195
				c-0.25,0.113-0.475,0.271-0.667,0.466c-0.192,0.193-0.352,0.422-0.471,0.678C47.26,46.605,47.182,46.888,47.152,47.19z"/>
			<path fill="#E7FFF1" stroke="#020200" stroke-width="0.2" stroke-miterlimit="10" d="M48.14,40.855l1.987,0.703
				c0.145,0.27,0.277,0.551,0.398,0.842c0.121,0.292,0.229,0.595,0.326,0.905c0.094,0.313,0.176,0.633,0.24,0.962
				s0.115,0.665,0.15,1.007l-1.91-0.262c-0.038-0.384-0.091-0.762-0.16-1.131c-0.07-0.368-0.156-0.728-0.258-1.077
				c-0.102-0.349-0.219-0.687-0.348-1.013C48.438,41.469,48.295,41.155,48.14,40.855z"/>
			<path fill="#E7FFF1" stroke="#020200" stroke-width="0.2" stroke-miterlimit="10" d="M38.236,44.673c0,0-1.461,3.417,1.094,5.261
				c1.115,0.777,2.77,0.17,3.513-1.166c-0.405,0.524-1.667,2.039-3.442,0.931C37.689,48.625,37.765,45.617,38.236,44.673z"/>
		</g>
		<g>
			<path fill="#E7FFF1" stroke="#020200" stroke-width="0.2" stroke-miterlimit="10" d="M53.586,54.997
				c0.405-0.092,0.809-0.185,1.214-0.278c-0.063,0.016-0.12,0.042-0.176,0.077c-0.052,0.038-0.101,0.084-0.142,0.142
				c-0.043,0.056-0.078,0.121-0.104,0.191c-0.027,0.072-0.046,0.152-0.055,0.238l-1.227,0.33c0.008-0.096,0.026-0.18,0.055-0.26
				c0.027-0.078,0.063-0.148,0.105-0.209c0.042-0.062,0.092-0.11,0.146-0.15C53.46,55.039,53.521,55.012,53.586,54.997z"/>
			<path fill="#E7FFF1" stroke="#020200" stroke-width="0.2" stroke-miterlimit="10" d="M55.479,48.057
				c-0.395-0.129-0.787-0.258-1.178-0.385c-0.074-0.025-0.141-0.065-0.199-0.118c-0.058-0.054-0.105-0.12-0.144-0.196
				c-0.04-0.077-0.067-0.165-0.084-0.26c-0.017-0.096-0.021-0.198-0.013-0.308l1.188,0.454c-0.009,0.1-0.002,0.193,0.014,0.28
				c0.017,0.088,0.043,0.168,0.08,0.238c0.039,0.071,0.086,0.133,0.144,0.183C55.341,47.994,55.406,48.033,55.479,48.057z"/>
			<path fill="#E7FFF1" stroke="#020200" stroke-width="0.2" stroke-miterlimit="10" d="M54.516,49.536
				c-0.015-0.004-0.029-0.007-0.043-0.009s-0.027-0.002-0.043-0.004c-0.015-0.002-0.029-0.002-0.043-0.004
				c-0.015,0-0.029-0.002-0.044-0.002c-0.192-0.006-0.377,0.043-0.546,0.131c-0.165,0.086-0.314,0.213-0.443,0.367
				c-0.127,0.154-0.232,0.338-0.313,0.541c-0.079,0.203-0.134,0.428-0.152,0.666c-0.021,0.237-0.006,0.469,0.038,0.688
				c0.044,0.218,0.116,0.42,0.216,0.6c0.101,0.182,0.224,0.342,0.369,0.465c0.148,0.125,0.317,0.217,0.506,0.26
				c0.029,0.008,0.06,0.012,0.09,0.017c0.029,0.004,0.06,0.008,0.088,0.01c0.029,0,0.06,0.003,0.088,0
				c0.029,0,0.059-0.002,0.088-0.004c0.107-0.013,0.212-0.022,0.318-0.034c0.14-0.016,0.281-0.029,0.422-0.045l0.447-0.048
				c-0.029,0.004-0.058,0.006-0.086,0.006c-0.027,0.003-0.058,0-0.084,0c-0.029-0.002-0.059-0.004-0.086-0.009
				c-0.029-0.004-0.059-0.008-0.086-0.016c-0.182-0.036-0.349-0.118-0.492-0.232c-0.146-0.111-0.267-0.255-0.363-0.42
				c-0.098-0.165-0.17-0.352-0.215-0.55c-0.041-0.198-0.056-0.41-0.037-0.627c0.02-0.22,0.068-0.425,0.146-0.608
				c0.077-0.186,0.182-0.354,0.305-0.49c0.127-0.143,0.273-0.256,0.434-0.332c0.165-0.08,0.343-0.119,0.531-0.113
				c0.012,0,0.025,0,0.041,0.002c0.015,0,0.026,0.003,0.041,0.003c0.014,0.002,0.027,0.004,0.043,0.006
				c0.013,0.002,0.027,0.004,0.039,0.006L54.516,49.536z"/>
			<path fill="#E7FFF1" stroke="#020200" stroke-width="0.2" stroke-miterlimit="10" d="M56.975,55.661
				c-0.375,0.141-0.756,0.278-1.132,0.416c0.009-0.002,0.017-0.004,0.023-0.009c0.008-0.002,0.017-0.006,0.024-0.008
				c0.008-0.004,0.017-0.006,0.024-0.012c0.009-0.002,0.015-0.006,0.022-0.01l1.129-0.414c-0.008,0.004-0.017,0.006-0.021,0.008
				c-0.009,0.006-0.018,0.008-0.023,0.012c-0.008,0.002-0.017,0.006-0.021,0.008C56.991,55.655,56.982,55.659,56.975,55.661z"/>
			<path fill="#E7FFF1" stroke="#020200" stroke-width="0.2" stroke-miterlimit="10" d="M56.202,46.835
				c0.366,0.168,0.731,0.336,1.097,0.503c0.041,0.02,0.083,0.039,0.123,0.06c0.042,0.021,0.081,0.043,0.121,0.066
				c0.04,0.022,0.079,0.046,0.119,0.071c0.04,0.024,0.079,0.05,0.117,0.077l-1.07-0.486c-0.04-0.028-0.081-0.057-0.123-0.082
				c-0.042-0.027-0.084-0.053-0.126-0.076c-0.042-0.024-0.086-0.048-0.128-0.07C56.288,46.875,56.246,46.854,56.202,46.835z"/>
			<path fill="#E7FFF1" stroke="#020200" stroke-width="0.2" stroke-miterlimit="10" d="M56.458,54.495
				c0.366-0.088,0.731-0.179,1.099-0.267c-0.082,0.021-0.16,0.054-0.229,0.1c-0.069,0.044-0.13,0.102-0.184,0.167
				c-0.054,0.063-0.098,0.141-0.129,0.224c-0.033,0.084-0.057,0.176-0.064,0.276c-0.006,0.054-0.006,0.108-0.004,0.163
				c0.004,0.054,0.011,0.107,0.021,0.16c0.009,0.055,0.023,0.105,0.04,0.156c0.018,0.053,0.038,0.104,0.061,0.15l-1.129,0.414
				c-0.022-0.055-0.043-0.111-0.063-0.168c-0.018-0.059-0.031-0.116-0.041-0.176c-0.011-0.059-0.018-0.118-0.021-0.18
				c-0.002-0.061,0-0.121,0.004-0.183c0.012-0.108,0.035-0.211,0.07-0.303c0.034-0.095,0.08-0.177,0.135-0.249
				c0.058-0.072,0.121-0.135,0.194-0.182C56.29,54.552,56.371,54.518,56.458,54.495z"/>
			<path fill="#E7FFF1" stroke="#020200" stroke-width="0.2" stroke-miterlimit="10" d="M58.13,49.182
				c-0.028-0.008-0.065-0.02-0.096-0.027c-0.015-0.004-0.033-0.01-0.048-0.016c-0.117-0.035-0.236-0.068-0.354-0.104
				c-0.187-0.056-0.37-0.11-0.556-0.166c-0.104-0.03-0.194-0.08-0.276-0.146c-0.079-0.065-0.147-0.146-0.202-0.241
				c-0.055-0.092-0.095-0.197-0.117-0.312c-0.022-0.113-0.028-0.237-0.019-0.366c0.006-0.063,0.017-0.124,0.031-0.184
				c0.013-0.06,0.03-0.118,0.052-0.174c0.021-0.057,0.044-0.111,0.071-0.165c0.028-0.053,0.059-0.104,0.092-0.154l1.069,0.486
				c-0.03,0.044-0.061,0.089-0.086,0.137c-0.024,0.047-0.047,0.096-0.068,0.146c-0.02,0.051-0.035,0.103-0.048,0.157
				c-0.015,0.052-0.022,0.107-0.029,0.162c-0.01,0.116-0.004,0.229,0.019,0.331c0.023,0.103,0.063,0.198,0.111,0.281
				c0.053,0.085,0.117,0.159,0.192,0.22C57.945,49.105,58.034,49.152,58.13,49.182z"/>
			<path fill="#E7FFF1" stroke="#020200" stroke-width="0.2" stroke-miterlimit="10" d="M58.354,53.126l0.978-0.136
				c-0.049,0.154-0.104,0.304-0.165,0.447c-0.061,0.145-0.128,0.281-0.201,0.416c-0.07,0.131-0.148,0.26-0.229,0.377
				c-0.082,0.123-0.17,0.236-0.26,0.344l-1.041,0.32c0.099-0.119,0.189-0.248,0.277-0.381c0.088-0.135,0.172-0.275,0.249-0.423
				s0.147-0.303,0.215-0.464C58.241,53.467,58.302,53.3,58.354,53.126z"/>
			<path fill="#E7FFF1" stroke="#020200" stroke-width="0.2" stroke-miterlimit="10" d="M58.718,52.548
				c-0.069-0.104-0.124-0.222-0.155-0.345c-0.03-0.124-0.041-0.256-0.028-0.393c0.013-0.134,0.051-0.259,0.106-0.373
				c0.055-0.112,0.129-0.215,0.219-0.302c0.091-0.086,0.195-0.155,0.311-0.206c0.117-0.051,0.244-0.08,0.378-0.084l-0.955-0.132
				c-0.144,0.006-0.282,0.04-0.407,0.099c-0.123,0.057-0.235,0.137-0.332,0.231c-0.097,0.097-0.178,0.211-0.235,0.339
				c-0.062,0.127-0.099,0.27-0.113,0.42c-0.014,0.15-0.004,0.297,0.029,0.436c0.032,0.14,0.09,0.27,0.165,0.387
				c0.074,0.119,0.17,0.225,0.279,0.311c0.11,0.084,0.236,0.151,0.377,0.19l0.977-0.136c-0.13-0.035-0.249-0.094-0.352-0.17
				C58.877,52.746,58.788,52.652,58.718,52.548z"/>
			<path fill="#E7FFF1" stroke="#020200" stroke-width="0.2" stroke-miterlimit="10" d="M57.503,51.805
				c-0.015,0.149-0.004,0.297,0.029,0.435c0.032,0.14,0.09,0.27,0.165,0.387c0.074,0.119,0.17,0.224,0.279,0.31
				c0.11,0.086,0.236,0.152,0.377,0.191c-0.053,0.174-0.112,0.341-0.179,0.502c-0.065,0.161-0.138,0.314-0.215,0.464
				c-0.077,0.146-0.161,0.288-0.249,0.423c-0.088,0.133-0.18,0.262-0.277,0.381c-0.039-0.049-0.082-0.092-0.125-0.135
				c-0.047-0.041-0.093-0.078-0.143-0.113c-0.048-0.032-0.1-0.063-0.15-0.088c-0.053-0.021-0.105-0.043-0.16-0.058
				c-0.137-0.034-0.265-0.036-0.383-0.009c-0.121,0.025-0.228,0.079-0.318,0.154c-0.092,0.074-0.17,0.174-0.229,0.291
				c-0.057,0.115-0.095,0.248-0.109,0.396c-0.004,0.062-0.006,0.122-0.004,0.183c0.004,0.062,0.012,0.121,0.021,0.181
				c0.01,0.059,0.023,0.116,0.041,0.175c0.02,0.057,0.04,0.113,0.063,0.168c-0.115,0.048-0.233,0.087-0.354,0.121
				c-0.117,0.031-0.234,0.056-0.354,0.072c-0.119,0.018-0.236,0.026-0.355,0.029c-0.116,0.002-0.232-0.005-0.352-0.018
				c0.012-0.137-0.002-0.275-0.03-0.407c-0.029-0.132-0.075-0.257-0.136-0.37c-0.062-0.109-0.135-0.209-0.219-0.285
				c-0.082-0.08-0.178-0.137-0.275-0.17s-0.191-0.037-0.279-0.017c-0.084,0.019-0.163,0.063-0.232,0.125
				c-0.067,0.062-0.125,0.144-0.168,0.239c-0.045,0.098-0.074,0.209-0.086,0.336c-0.097-0.065-0.187-0.137-0.275-0.215
				c-0.086-0.072-0.172-0.151-0.252-0.234c-0.078-0.084-0.156-0.17-0.229-0.26s-0.143-0.182-0.209-0.275
				c0.021-0.031,0.044-0.064,0.063-0.102c0.02-0.035,0.035-0.074,0.051-0.116s0.027-0.086,0.036-0.132
				c0.01-0.047,0.019-0.096,0.022-0.146c0.008-0.121,0.002-0.242-0.02-0.357c-0.021-0.114-0.057-0.221-0.104-0.317
				c-0.047-0.092-0.104-0.173-0.17-0.235c-0.064-0.063-0.139-0.106-0.216-0.125c-0.032-0.009-0.063-0.014-0.096-0.014
				c-0.029,0-0.062,0.007-0.091,0.014c-0.028,0.008-0.057,0.021-0.084,0.034c-0.026,0.019-0.055,0.034-0.078,0.056
				c-0.034-0.112-0.065-0.229-0.094-0.346c-0.025-0.117-0.052-0.236-0.071-0.355c-0.021-0.12-0.038-0.241-0.052-0.362
				c-0.015-0.123-0.023-0.247-0.03-0.372c0.067,0,0.13-0.021,0.188-0.057c0.061-0.037,0.113-0.09,0.164-0.159
				c0.049-0.065,0.09-0.146,0.121-0.237c0.031-0.093,0.053-0.193,0.063-0.304c0.01-0.108,0.005-0.213-0.012-0.312
				c-0.018-0.099-0.045-0.188-0.082-0.269c-0.037-0.077-0.084-0.144-0.136-0.194c-0.053-0.052-0.11-0.087-0.176-0.105
				c0.024-0.121,0.058-0.24,0.088-0.357c0.033-0.119,0.067-0.232,0.108-0.347c0.039-0.115,0.084-0.228,0.13-0.336
				c0.046-0.11,0.094-0.218,0.146-0.323c0.022,0.028,0.045,0.055,0.068,0.076c0.025,0.021,0.051,0.042,0.08,0.059
				c0.025,0.016,0.056,0.027,0.087,0.034c0.028,0.009,0.063,0.013,0.097,0.013c0.079,0,0.158-0.025,0.234-0.07
				c0.074-0.047,0.146-0.112,0.206-0.195c0.063-0.082,0.116-0.182,0.157-0.291c0.039-0.111,0.068-0.231,0.078-0.357
				c0.004-0.054,0.004-0.104,0.002-0.155c-0.002-0.05-0.006-0.098-0.015-0.144c-0.008-0.047-0.019-0.092-0.03-0.133
				c-0.013-0.041-0.027-0.081-0.047-0.117c0.084-0.081,0.17-0.158,0.258-0.23c0.088-0.073,0.18-0.141,0.273-0.205
				c0.096-0.064,0.193-0.124,0.292-0.179c0.103-0.055,0.207-0.104,0.313-0.148c-0.01,0.133-0.002,0.257,0.024,0.368
				c0.025,0.112,0.069,0.212,0.125,0.293c0.06,0.081,0.13,0.146,0.214,0.189s0.18,0.063,0.284,0.054
				c0.104-0.007,0.207-0.044,0.306-0.101c0.099-0.06,0.189-0.142,0.27-0.241c0.082-0.1,0.152-0.217,0.205-0.345
				c0.055-0.129,0.09-0.269,0.104-0.413c0.115,0.017,0.229,0.039,0.34,0.069c0.111,0.03,0.226,0.068,0.334,0.112
				c0.109,0.045,0.22,0.096,0.326,0.154c0.108,0.059,0.213,0.123,0.315,0.195c-0.033,0.05-0.063,0.102-0.093,0.154
				c-0.026,0.054-0.049,0.108-0.07,0.165c-0.021,0.056-0.039,0.114-0.052,0.174c-0.015,0.06-0.025,0.121-0.031,0.184
				c-0.013,0.153,0,0.299,0.033,0.43c0.034,0.131,0.094,0.249,0.169,0.349c0.076,0.101,0.174,0.181,0.283,0.235
				c0.113,0.058,0.24,0.088,0.38,0.086c0.058-0.002,0.118-0.008,0.175-0.021c0.059-0.012,0.117-0.03,0.174-0.053
				s0.11-0.051,0.165-0.083c0.052-0.032,0.104-0.07,0.154-0.111c0.077,0.15,0.147,0.307,0.214,0.469
				c0.066,0.164,0.123,0.332,0.173,0.508c0.054,0.174,0.095,0.354,0.13,0.537c0.035,0.186,0.063,0.373,0.079,0.565
				c-0.144,0.007-0.282,0.04-0.407,0.099c-0.123,0.057-0.236,0.137-0.332,0.231c-0.097,0.097-0.178,0.211-0.236,0.339
				C57.557,51.511,57.518,51.652,57.503,51.805z M54.018,53.232c0.191,0.045,0.381,0.035,0.563-0.021
				c0.185-0.06,0.358-0.165,0.515-0.313c0.154-0.147,0.289-0.34,0.393-0.563c0.103-0.226,0.174-0.481,0.199-0.758
				c0.023-0.278,0.004-0.548-0.058-0.797c-0.062-0.246-0.157-0.47-0.284-0.658c-0.125-0.185-0.277-0.334-0.449-0.438
				c-0.17-0.103-0.354-0.16-0.554-0.164c-0.192-0.006-0.377,0.043-0.546,0.131c-0.165,0.086-0.314,0.214-0.443,0.367
				c-0.127,0.154-0.232,0.338-0.313,0.541c-0.079,0.203-0.134,0.428-0.152,0.666c-0.021,0.237-0.006,0.469,0.038,0.688
				c0.044,0.218,0.116,0.42,0.216,0.6c0.101,0.182,0.224,0.342,0.369,0.465C53.659,53.1,53.828,53.191,54.018,53.232"/>
			<path fill="#E7FFF1" stroke="#020200" stroke-width="0.2" stroke-miterlimit="10" d="M57.996,48.636l0.995,0.351
				c0.071,0.137,0.138,0.277,0.198,0.422c0.061,0.146,0.115,0.298,0.162,0.455c0.049,0.154,0.088,0.314,0.121,0.479
				c0.031,0.163,0.057,0.332,0.073,0.505l-0.955-0.133c-0.017-0.191-0.044-0.381-0.079-0.566c-0.035-0.184-0.076-0.362-0.13-0.537
				c-0.05-0.176-0.106-0.344-0.173-0.508C58.145,48.941,58.074,48.786,57.996,48.636z"/>
			<path fill="#E7FFF1" stroke="#020200" stroke-width="0.2" stroke-miterlimit="10" d="M57.537,51.604c0,0-0.362,1.104,0.734,1.56
				c-0.064,0.271-0.381,1.005-0.834,1.737c0.595-0.69,0.933-1.764,0.933-1.764S57.311,52.768,57.537,51.604z"/>
			<path fill="#E7FFF1" stroke="#020200" stroke-width="0.2" stroke-miterlimit="10" d="M53.045,50.546c0,0-0.729,1.707,0.545,2.629
				c0.559,0.39,1.387,0.083,1.758-0.583c-0.203,0.264-0.834,1.02-1.722,0.465C52.771,52.521,52.809,51.016,53.045,50.546z"/>
		</g>
	</g>
</g>
</svg>
