<?xml version="1.0" encoding="utf-8"?>
<!-- Generator: Adobe Illustrator 17.0.1, SVG Export Plug-In . SVG Version: 6.00 Build 0)  -->
<!DOCTYPE svg PUBLIC "-//W3C//DTD SVG 1.1//EN" "http://www.w3.org/Graphics/SVG/1.1/DTD/svg11.dtd">
<svg version="1.1" id="Слой_1" xmlns="http://www.w3.org/2000/svg" xmlns:xlink="http://www.w3.org/1999/xlink" x="0px" y="0px"
	 width="150px" height="150px" viewBox="0 0 150 150" enable-background="new 0 0 150 150" xml:space="preserve">
<g id="DO_NOT_EDIT_-_BOUNDING_BOX">
	<rect id="BOUNDING_BOX" x="27" y="28" fill="none" width="96" height="96"/>
</g>
<g>
	<g>
		<g id="Layer_4">
			<path opacity="0.15" fill="#010101" enable-background="new    " d="M11.921,150.291c-2.85,0-5.795-2.012-6.852-4.68l-3.751-9.45
				C0.568,134.265,0,131.291,0,129.25V21.041c0-2.044,0.565-5.015,1.318-6.913L5.068,4.68C6.125,2.015,9.071,0,11.921,0h71.522
				c2.847,0,5.798,2.015,6.855,4.683l3.748,9.444c0.753,1.898,1.318,4.869,1.318,6.913V129.25c0,2.041-0.565,5.018-1.318,6.913
				l-3.748,9.447c-1.057,2.671-4.008,4.683-6.855,4.683L11.921,150.291L11.921,150.291z M28.313,132.256
				c-0.82,0-1.492,0.673-1.492,1.5s0.672,1.506,1.492,1.506h38.74c0.82,0,1.492-0.676,1.492-1.503s-0.669-1.5-1.492-1.5h-38.74
				V132.256z M80.459,117.227v-93.18H14.901v93.18H80.459z"/>
			<path opacity="0.3" fill="#010101" enable-background="new    " d="M91.277,18.25l-3.748-9.447
				c-0.608-1.532-2.447-2.788-4.087-2.788H11.921c-1.639,0-3.478,1.257-4.087,2.794l-3.745,9.447
				c-0.608,1.532-1.109,4.142-1.109,5.794v108.209c0,1.655,0.498,4.26,1.109,5.8l3.745,9.458c0.605,1.523,2.447,2.78,4.087,2.78
				h71.522c1.639,0,3.478-1.254,4.087-2.788l3.748-9.45c0.608-1.549,1.103-4.154,1.103-5.806V24.044
				C92.38,22.395,91.885,19.784,91.277,18.25z M67.053,141.273h-38.74c-2.47,0-4.469-2.018-4.469-4.506
				c0-2.491,2.004-4.509,4.469-4.509h38.74c2.47,0,4.469,2.018,4.469,4.509C71.522,139.255,69.517,141.273,67.053,141.273z
				 M83.437,123.238H11.921V24.046h71.522v99.192H83.437z"/>
			
				<linearGradient id="SVGID_1_" gradientUnits="userSpaceOnUse" x1="440.3601" y1="2255.5776" x2="440.3601" y2="2111.2959" gradientTransform="matrix(1 0 0 1 -392.68 -2108.29)">
				<stop  offset="0" style="stop-color:#D0CBC5"/>
				<stop  offset="0.5031" style="stop-color:#FAFBF0"/>
				<stop  offset="0.9693" style="stop-color:#FFFFFF"/>
			</linearGradient>
			<path fill="url(#SVGID_1_)" d="M91.277,15.241l-3.748-9.447c-0.608-1.532-2.447-2.788-4.087-2.788H11.921
				c-1.639,0-3.478,1.257-4.087,2.794l-3.745,9.447c-0.608,1.534-1.109,4.142-1.109,5.794V129.25c0,1.655,0.498,4.26,1.109,5.797
				l3.745,9.458c0.605,1.523,2.447,2.783,4.087,2.783h71.522c1.639,0,3.478-1.257,4.087-2.791l3.748-9.45
				c0.608-1.546,1.103-4.151,1.103-5.805V21.035C92.38,19.389,91.885,16.778,91.277,15.241z M67.053,138.267h-38.74
				c-2.47,0-4.469-2.018-4.469-4.509c0-2.488,2.004-4.506,4.469-4.506h38.74c2.47,0,4.469,2.018,4.469,4.506
				C71.522,136.249,69.517,138.267,67.053,138.267z M83.437,120.232H11.921V21.041h71.522v99.192H83.437z"/>
			<path fill="#FFFFFF" d="M11.921,123.238h71.522v-3.006H11.921V123.238z M67.053,138.267h-38.74c-1.943,0-3.58-1.254-4.197-3.006
				c-0.168,0.475-0.275,0.976-0.275,1.503c0,2.488,2.004,4.506,4.469,4.506h38.74c2.47,0,4.469-2.018,4.469-4.506
				c0-0.53-0.107-1.028-0.272-1.503C70.63,137.011,68.993,138.267,67.053,138.267z M91.277,15.241l-3.748-9.447
				c-0.608-1.532-2.447-2.788-4.087-2.788H11.921c-1.639,0-3.478,1.257-4.087,2.794l-3.745,9.447
				c-0.608,1.534-1.109,4.142-1.109,5.794v3.006c0-1.652,0.498-4.263,1.109-5.797l3.745-9.447c0.605-1.532,2.447-2.788,4.087-2.788
				h71.522c1.639,0,3.478,1.257,4.087,2.794l3.748,9.447c0.608,1.532,1.103,4.142,1.103,5.794v-3.009
				C92.38,19.389,91.885,16.778,91.277,15.241z"/>
		</g>
	</g>
	<g>
		<path fill="#FFFFFF" stroke="#010101" stroke-width="0.25" stroke-miterlimit="10" d="M98.781,88.176c0,0.243,0,0.447,0,0.65
			c0,4.363,0,8.731,0,13.1c0,0.653,0.055,0.687,0.588,0.395c3.25-1.815,6.505-3.613,9.754-5.425
			c8.492-4.743,16.98-9.487,25.472-14.239c5.12-2.866,10.235-5.737,15.353-8.611c0.148-0.083,0.255-0.24,0.382-0.361
			c-0.116-0.12-0.217-0.266-0.35-0.344c-16.865-9.461-33.729-18.917-50.6-28.363c-0.559-0.315-0.6-0.286-0.6,0.409
			c0,4.366,0,8.734,0,13.102c0,0.192,0,0.395,0,0.621c-0.258,0-0.452,0-0.649,0c-16.592,0-33.182,0-49.768,0
			c-0.681,0-0.681,0-0.681,0.782c0,9.175,0,18.347,0,27.528c0,0.756,0,0.756,0.663,0.756c16.589,0,33.179,0,49.765,0
			C98.312,88.176,98.506,88.176,98.781,88.176z"/>
		<path fill="#FFFFFF" stroke="#010101" stroke-width="0.25" stroke-miterlimit="10" d="M98.781,88.176c-0.275,0-0.469,0-0.666,0
			c-16.589,0-33.179,0-49.765,0c-0.663,0-0.663,0-0.663-0.756c0-9.181,0-18.355,0-27.528c0-0.782,0-0.782,0.681-0.782
			c16.589,0,33.179,0,49.768,0c0.194,0,0.391,0,0.649,0c0-0.226,0-0.429,0-0.621c0-4.368,0-8.737,0-13.102
			c0-0.696,0.041-0.724,0.6-0.409c16.867,9.447,33.732,18.902,50.6,28.363c0.133,0.074,0.235,0.223,0.35,0.344
			c-0.127,0.12-0.235,0.281-0.382,0.361c-5.118,2.874-10.232,5.745-15.353,8.611c-8.492,4.749-16.98,9.493-25.472,14.239
			c-3.25,1.812-6.505,3.61-9.754,5.425c-0.536,0.295-0.588,0.258-0.588-0.395c0-4.368,0-8.737,0-13.1
			C98.781,88.623,98.781,88.42,98.781,88.176z"/>
	</g>
</g>
</svg>
