<?xml version="1.0" encoding="UTF-8"?>
<!DOCTYPE svg PUBLIC "-//W3C//DTD SVG 1.1 Tiny//EN" "http://www.w3.org/Graphics/SVG/1.1/DTD/svg11-tiny.dtd">
<svg baseProfile="tiny" height="52px" version="1.1" viewBox="0 0 52 52" width="52px" x="0px" xmlns="http://www.w3.org/2000/svg" xmlns:xlink="http://www.w3.org/1999/xlink" y="0px">
<g>
<g>
<path d="M39.611,22.497H10.899c-3.065,0-4.719,0.729-5.359,2.886    c-0.386,1.299-3.476,13.25-4.327,16.575c-0.037,0.146-0.071,0.278-0.1,0.39c-0.532,2.086,0.937,4.149,2.937,4.149    c0,0,11.65,0,19.646,0h9.822c1,0,3,0,3.606-2c0.761-2.504,1.767-6.248,3.515-13.144c0.185-0.725,0.377-1.485,0.576-2.28    c0.197-0.785,0.4-1.591,0.615-2.449c0.078-0.31,0.125-0.585,0.168-0.856c0.172-1.086,0.075-1.865-0.258-2.381    C41.337,22.756,40.6,22.497,39.611,22.497z M3.001,27.111c0.019-0.07,0.036-0.135,0.054-0.203    c0.098-0.367,0.187-0.698,0.263-0.986c0.016-0.057,0.031-0.113,0.045-0.167c0.018-0.063,0.033-0.123,0.049-0.181    c0.019-0.067,0.036-0.131,0.053-0.191c0.012-0.045,0.024-0.09,0.036-0.132c0.017-0.06,0.03-0.11,0.044-0.161    c0.01-0.031,0.019-0.064,0.026-0.093c0.021-0.073,0.038-0.136,0.053-0.185c1.281-4.315,5.637-4.315,7.276-4.315h12.229    c-0.001-0.012-0.003-0.022-0.004-0.035l-0.055-1.586c-0.002-0.075,0-0.15,0.006-0.225c0.137-1.648,1.055-2.373,1.928-2.738H19.8    c0-1.104-0.896-2-2-2h-11c-1.104,0-2,0.896-2,2H3.003c-1.104,0-2,0.896-2,2v16.854c0.133-0.517,0.269-1.035,0.404-1.558    C1.992,30.957,2.574,28.727,3.001,27.111z M50.95,18.198c-0.048-1.332-0.947-1.287-2.056-1.455    c-1.297-0.199-1.758-1.297-2.379-2.301c-0.682-1.104-1.19-1.916-0.986-3.083c-0.082-0.445-0.063-0.919,0.117-1.48    c0.052-0.164,0.095-0.31,0.131-0.448c-0.114-0.232-0.342-0.443-0.734-0.673c-0.66-0.385-1.352-0.727-2.025-1.086    c-1.057-0.561-1.521,0.404-2.115,1.145c-0.939,1.176-2.365,0.816-3.688,0.922c-1.121,0.088-2.067,0.004-2.851-0.855    c-0.795-0.875-1.165-1.373-2.303-0.721c-0.604,0.35-1.188,0.74-1.785,1.107c-0.309,0.191-0.488,0.387-0.592,0.59    c0.092,0.282,0.226,0.583,0.354,0.916c0.188,0.479,0.183,0.909,0.085,1.318c0.296,1.261-0.635,2.216-1.15,3.335    c-0.08,0.174-0.162,0.333-0.248,0.484c-0.486,0.871-1.08,1.38-2.14,1.608c-0.985,0.215-1.438,0.378-1.517,1.296    c0.017,0.528,0.039,1.057,0.056,1.585c0.001,0.036,0.01,0.061,0.012,0.094h5.654c-0.024-0.246-0.04-0.495-0.04-0.747    c0-0.168,0.016-0.334,0.025-0.5c-0.012-0.166-0.025-0.332-0.025-0.5c0-1.002,0.214-1.961,0.596-2.836    c1.121-2.576,3.706-4.416,6.655-4.416c3.951,0,7.251,3.301,7.251,7.252c0,0.168-0.016,0.334-0.025,0.5    c0.012,0.166,0.025,0.332,0.025,0.5c0,1.485-0.466,2.877-1.258,4.037c0.172,0.929,0.104,2.026-0.223,3.323    c-0.313,1.25-0.608,2.42-0.887,3.521c0.195,0.063,0.403,0.058,0.631-0.086c0.598-0.188,2.381-1.172,2.914-1.992    c-0.168-0.424-0.412-0.829-0.49-1.266c-0.067-0.379-0.073-0.738-0.008-1.08c-0.111-0.716-0.008-1.36,0.403-1.964    c0.508-0.746,0.731-1.834,1.356-2.457c0.963-0.958,3.064-0.713,3.305-2.019C50.982,19.245,50.967,18.723,50.95,18.198z     M32.75,19.75c0,0.255,0.041,0.5,0.078,0.747H37.6v-2.583c0-1.104-0.896-2-2-2h-1.98c-0.543,0.825-0.868,1.799-0.868,2.836    c0,0.091,0.009,0.181,0.015,0.271c0.008,0.095,0.014,0.274,0.008,0.37C32.759,19.569,32.75,19.659,32.75,19.75z" fill-opacity="0.3" stroke-opacity="0.3"/>
<path d="M4.05,46.496c-1.212,0-2.349-0.568-3.121-1.563    c-0.831-1.07-1.124-2.504-0.784-3.834c0,0,1.08-4.203,1.823-7.07c-0.12,0.438-0.519,0.738-0.964,0.738    c-0.042,0-0.084-0.004-0.127-0.009c-0.5-0.063-0.874-0.487-0.874-0.991V16.913c0-1.654,1.346-3,3-3h0.968    c0.413-1.164,1.525-2,2.829-2h11c1.304,0,2.416,0.836,2.829,2h4.375c0.477,0,0.887,0.336,0.98,0.803    c0.084,0.423-0.111,0.848-0.478,1.061c0.293-0.108,0.595-0.173,0.864-0.232c0.717-0.154,1.104-0.447,1.479-1.119    c0.073-0.13,0.146-0.266,0.213-0.414c0.151-0.327,0.332-0.642,0.515-0.953c0.433-0.743,0.69-1.224,0.571-1.736    c-0.035-0.151-0.035-0.309,0-0.46c0.063-0.266,0.052-0.482-0.043-0.722L28.982,9.83c-0.094-0.232-0.183-0.451-0.25-0.661    c-0.082-0.25-0.062-0.523,0.058-0.759c0.196-0.389,0.51-0.713,0.959-0.991c0.216-0.132,0.428-0.267,0.642-0.402    c0.387-0.246,0.773-0.491,1.17-0.72c0.516-0.295,0.955-0.432,1.39-0.432c0.937,0,1.504,0.628,2.054,1.235l0.102,0.111    c0.362,0.399,0.778,0.555,1.483,0.555c0.177,0,0.359-0.01,0.548-0.024c0.285-0.023,0.577-0.027,0.869-0.027h0.281    c0.998,0,1.474-0.073,1.833-0.522c0.08-0.1,0.155-0.203,0.231-0.305c0.435-0.584,1.028-1.384,2.074-1.384    c0.348,0,0.704,0.096,1.061,0.285l0.6,0.314c0.491,0.256,0.982,0.513,1.461,0.791c0.563,0.328,0.92,0.675,1.127,1.092    c0.108,0.218,0.135,0.468,0.07,0.704c-0.041,0.151-0.088,0.311-0.145,0.49c-0.117,0.369-0.146,0.686-0.088,0.999    c0.021,0.117,0.022,0.236,0.002,0.354c-0.132,0.75,0.16,1.264,0.834,2.354c0.106,0.173,0.191,0.317,0.275,0.46    c0.507,0.86,0.8,1.313,1.422,1.409l0.34,0.047c0.932,0.124,2.492,0.332,2.563,2.361l0.048,1.577    c0.002,0.07-0.004,0.14-0.018,0.208c-0.246,1.349-1.482,1.734-2.387,2.015c-0.474,0.147-0.963,0.3-1.195,0.532    c-0.229,0.229-0.414,0.649-0.608,1.095c-0.179,0.407-0.362,0.828-0.626,1.216c-0.246,0.361-0.321,0.746-0.243,1.248    c0.019,0.112,0.017,0.229-0.006,0.34c-0.041,0.215-0.038,0.449,0.01,0.717c0.031,0.171,0.134,0.391,0.239,0.625    c0.068,0.148,0.137,0.298,0.195,0.447c0.119,0.301,0.086,0.642-0.09,0.912c-0.675,1.039-2.543,2.072-3.338,2.363    c-0.26,0.141-0.533,0.211-0.814,0.211c-0.182,0-0.364-0.031-0.545-0.09c-0.498-0.164-0.783-0.686-0.655-1.193l0.226-0.893    l-0.531,2.104c-1.717,6.773-2.739,10.594-3.527,13.189c-0.823,2.709-3.541,2.709-4.564,2.709H4.05z M43.073,23.482    c0.026,0.432-0.003,0.911-0.087,1.44c-0.047,0.299-0.1,0.602-0.187,0.945l-0.329,1.31l0.33-1.311    C43.027,24.967,43.118,24.168,43.073,23.482z M39.611,20.497c1.396,0,2.396,0.453,2.971,1.347c0.2,0.311,0.34,0.667,0.42,1.071    c-0.031-0.242,0.027-0.489,0.166-0.692c0.709-1.039,1.084-2.239,1.084-3.473c0-0.116-0.01-0.23-0.018-0.344    c-0.004-0.048-0.01-0.179-0.006-0.227c0.015-0.2,0.022-0.314,0.022-0.43c0-3.389-2.862-6.252-6.251-6.252    c-2.438,0-4.745,1.533-5.738,3.815c-0.34,0.777-0.512,1.595-0.513,2.429c0.002-1.186,0.358-2.354,1.033-3.378    c0.185-0.281,0.499-0.45,0.835-0.45h1.98c1.653,0,3,1.346,3,3v2.583c0,0.552-0.447,1-1,1L39.611,20.497L39.611,20.497z" fill-opacity="0.15" stroke-opacity="0.15"/>
<path d="M39.611,21.497H10.899c-3.065,0-4.719,0.729-5.359,2.886    c-0.386,1.299-3.476,13.25-4.327,16.575c-0.037,0.146-0.071,0.278-0.1,0.39c-0.532,2.086,0.937,4.149,2.937,4.149    c0,0,11.65,0,19.646,0h9.822c1,0,3,0,3.606-2c0.761-2.504,1.767-6.248,3.515-13.144c0.185-0.725,0.377-1.485,0.576-2.28    c0.197-0.785,0.4-1.591,0.615-2.448c0.078-0.311,0.125-0.587,0.168-0.857c0.172-1.085,0.075-1.865-0.258-2.381    C41.337,21.756,40.6,21.497,39.611,21.497z M3.001,26.111c0.019-0.069,0.036-0.135,0.054-0.202    c0.098-0.368,0.187-0.699,0.263-0.987c0.016-0.057,0.031-0.113,0.045-0.167c0.018-0.063,0.033-0.123,0.049-0.181    c0.019-0.067,0.036-0.131,0.053-0.191c0.012-0.045,0.024-0.09,0.036-0.132c0.017-0.06,0.03-0.11,0.044-0.161    c0.01-0.031,0.019-0.064,0.026-0.093c0.021-0.073,0.038-0.136,0.053-0.184c1.281-4.316,5.637-4.316,7.276-4.316h12.229    c-0.001-0.012-0.003-0.022-0.004-0.035l-0.055-1.586c-0.002-0.075,0-0.15,0.006-0.225c0.137-1.648,1.055-2.373,1.928-2.738H19.8    c0-1.104-0.896-2-2-2h-11c-1.104,0-2,0.896-2,2H3.003c-1.104,0-2,0.896-2,2v16.854c0.133-0.517,0.269-1.035,0.404-1.558    C1.992,29.957,2.574,27.727,3.001,26.111z M50.95,17.198c-0.048-1.332-0.947-1.287-2.056-1.455    c-1.297-0.199-1.758-1.297-2.379-2.301c-0.682-1.104-1.19-1.916-0.986-3.083c-0.082-0.445-0.063-0.919,0.117-1.48    c0.052-0.164,0.095-0.31,0.131-0.448c-0.114-0.232-0.342-0.443-0.734-0.673c-0.66-0.385-1.352-0.727-2.025-1.086    c-1.057-0.561-1.521,0.404-2.115,1.145c-0.939,1.176-2.365,0.816-3.688,0.922c-1.121,0.088-2.067,0.004-2.851-0.855    c-0.795-0.875-1.165-1.373-2.303-0.721c-0.604,0.35-1.188,0.74-1.785,1.107c-0.309,0.191-0.488,0.387-0.592,0.59    c0.092,0.282,0.226,0.583,0.354,0.916c0.188,0.479,0.183,0.909,0.085,1.318c0.296,1.261-0.635,2.216-1.15,3.335    c-0.08,0.174-0.162,0.333-0.248,0.484c-0.486,0.871-1.08,1.38-2.14,1.608c-0.985,0.215-1.438,0.378-1.517,1.296    c0.017,0.528,0.039,1.057,0.056,1.585c0.001,0.036,0.01,0.061,0.012,0.094h5.654c-0.024-0.246-0.04-0.495-0.04-0.747    c0-0.168,0.016-0.334,0.025-0.5c-0.012-0.166-0.025-0.332-0.025-0.5c0-1.002,0.214-1.961,0.596-2.836    c1.121-2.576,3.706-4.416,6.655-4.416c3.951,0,7.251,3.301,7.251,7.252c0,0.168-0.016,0.334-0.025,0.5    c0.012,0.166,0.025,0.332,0.025,0.5c0,1.485-0.466,2.877-1.258,4.037c0.172,0.929,0.104,2.026-0.223,3.323    c-0.313,1.25-0.608,2.418-0.887,3.521c0.195,0.063,0.403,0.058,0.631-0.086c0.598-0.188,2.381-1.172,2.914-1.992    c-0.168-0.424-0.412-0.829-0.49-1.266c-0.067-0.379-0.073-0.737-0.008-1.08c-0.111-0.715-0.008-1.359,0.403-1.963    c0.508-0.746,0.731-1.834,1.356-2.457c0.963-0.958,3.064-0.713,3.305-2.019C50.982,18.245,50.967,17.723,50.95,17.198z     M32.75,18.75c0,0.255,0.041,0.5,0.078,0.747H37.6v-2.583c0-1.104-0.896-2-2-2h-1.98c-0.543,0.825-0.868,1.799-0.868,2.836    c0,0.091,0.009,0.181,0.015,0.271c0.008,0.095,0.014,0.274,0.008,0.37C32.759,18.569,32.75,18.659,32.75,18.75z" fill-opacity="0.15" stroke-opacity="0.15"/>
<path d="M39.611,21.497H10.899c-3.065,0-4.719,0.729-5.359,2.886c-0.386,1.299-3.476,13.25-4.327,16.575    c-0.037,0.146-0.071,0.278-0.1,0.39c-0.532,2.086,0.937,4.149,2.937,4.149c0,0,11.65,0,19.646,0h9.822c1,0,3,0,3.606-2    c0.761-2.504,1.767-6.248,3.515-13.144c0.185-0.725,0.377-1.485,0.576-2.28c0.197-0.785,0.4-1.591,0.615-2.448    c0.078-0.311,0.125-0.587,0.168-0.857c0.172-1.085,0.075-1.865-0.258-2.381C41.337,21.756,40.6,21.497,39.611,21.497z     M3.001,26.111c0.019-0.069,0.036-0.135,0.054-0.202c0.098-0.368,0.187-0.699,0.263-0.987c0.016-0.057,0.031-0.113,0.045-0.167    c0.018-0.063,0.033-0.123,0.049-0.181c0.019-0.067,0.036-0.131,0.053-0.191c0.012-0.045,0.024-0.09,0.036-0.132    c0.017-0.06,0.03-0.11,0.044-0.161c0.01-0.031,0.019-0.064,0.026-0.093c0.021-0.073,0.038-0.136,0.053-0.184    c1.281-4.316,5.637-4.316,7.276-4.316h12.229c-0.001-0.012-0.003-0.022-0.004-0.035l-0.055-1.586c-0.002-0.075,0-0.15,0.006-0.225    c0.137-1.648,1.055-2.373,1.928-2.738H19.8c0-1.104-0.896-2-2-2h-11c-1.104,0-2,0.896-2,2H3.003c-1.104,0-2,0.896-2,2v16.854    c0.133-0.517,0.269-1.035,0.404-1.558C1.992,29.957,2.574,27.727,3.001,26.111z M50.95,17.198    c-0.048-1.332-0.947-1.287-2.056-1.455c-1.297-0.199-1.758-1.297-2.379-2.301c-0.682-1.104-1.19-1.916-0.986-3.083    c-0.082-0.445-0.063-0.919,0.117-1.48c0.052-0.164,0.095-0.31,0.131-0.448c-0.114-0.232-0.342-0.443-0.734-0.673    c-0.66-0.385-1.352-0.727-2.025-1.086c-1.057-0.561-1.521,0.404-2.115,1.145c-0.939,1.176-2.365,0.816-3.688,0.922    c-1.121,0.088-2.067,0.004-2.851-0.855c-0.795-0.875-1.165-1.373-2.303-0.721c-0.604,0.35-1.188,0.74-1.785,1.107    c-0.309,0.191-0.488,0.387-0.592,0.59c0.092,0.282,0.226,0.583,0.354,0.916c0.188,0.479,0.183,0.909,0.085,1.318    c0.296,1.261-0.635,2.216-1.15,3.335c-0.08,0.174-0.162,0.333-0.248,0.484c-0.486,0.871-1.08,1.38-2.14,1.608    c-0.985,0.215-1.438,0.378-1.517,1.296c0.017,0.528,0.039,1.057,0.056,1.585c0.001,0.036,0.01,0.061,0.012,0.094h5.654    c-0.024-0.246-0.04-0.495-0.04-0.747c0-0.168,0.016-0.334,0.025-0.5c-0.012-0.166-0.025-0.332-0.025-0.5    c0-1.002,0.214-1.961,0.596-2.836c1.121-2.576,3.706-4.416,6.655-4.416c3.951,0,7.251,3.301,7.251,7.252    c0,0.168-0.016,0.334-0.025,0.5c0.012,0.166,0.025,0.332,0.025,0.5c0,1.485-0.466,2.877-1.258,4.037    c0.172,0.929,0.104,2.026-0.223,3.323c-0.313,1.25-0.608,2.418-0.887,3.521c0.195,0.063,0.403,0.058,0.631-0.086    c0.598-0.188,2.381-1.172,2.914-1.992c-0.168-0.424-0.412-0.829-0.49-1.266c-0.067-0.379-0.073-0.737-0.008-1.08    c-0.111-0.715-0.008-1.359,0.403-1.963c0.508-0.746,0.731-1.834,1.356-2.457c0.963-0.958,3.064-0.713,3.305-2.019    C50.982,18.245,50.967,17.723,50.95,17.198z M32.75,18.75c0,0.255,0.041,0.5,0.078,0.747H37.6v-2.583c0-1.104-0.896-2-2-2h-1.98    c-0.543,0.825-0.868,1.799-0.868,2.836c0,0.091,0.009,0.181,0.015,0.271c0.008,0.095,0.014,0.274,0.008,0.37    C32.759,18.569,32.75,18.659,32.75,18.75z" fill="url(#SVGID_1_)"/>
<g>
<path d="M45.252,18.75c0-0.17-0.016-0.337-0.025-0.504c0,0.001,0,0.002,0,0.004     C45.236,18.416,45.252,18.581,45.252,18.75z" fill="#FFFFFF"/>
<path d="M44.076,23.646c0.736-1.132,1.176-2.469,1.176-3.896c0-0.168-0.016-0.334-0.025-0.5     c0.012-0.166,0.025-0.332,0.025-0.5c0,1.485-0.466,2.877-1.258,4.037C44.044,23.057,44.066,23.346,44.076,23.646z" fill="#FFFFFF"/>
<path d="M35.6,14.913h-1.98c-0.543,0.825-0.868,1.799-0.868,2.836c0,0.091,0.009,0.181,0.015,0.271     c0.008,0.095,0.014,0.274,0.008,0.37c-0.014,0.179-0.021,0.269-0.021,0.359c0-1.037,0.325-2.012,0.868-2.836H35.6     c1.104,0,2,0.896,2,2v-1C37.6,15.809,36.703,14.913,35.6,14.913z" fill="#FFFFFF"/>
<path d="M44.063,24.375c-0.041,0.535-0.135,1.111-0.291,1.734c-0.313,1.25-0.607,2.418-0.885,3.521     c0.078,0.024,0.16,0.029,0.244,0.027c0.205-0.814,0.417-1.654,0.641-2.55C44.031,26.075,44.12,25.172,44.063,24.375z" fill="#FFFFFF"/>
<path d="M45.529,11.359c-0.204,1.167,0.306,1.979,0.986,3.083c0.621,1.004,1.082,2.102,2.379,2.301     c1.107,0.168,2.008,0.123,2.056,1.455c0.007,0.213,0.013,0.426,0.019,0.638c0.008-0.025,0.023-0.042,0.028-0.068     c-0.015-0.523-0.03-1.045-0.047-1.57c-0.048-1.332-0.947-1.287-2.056-1.455c-1.297-0.199-1.758-1.297-2.379-2.301     c-0.49-0.796-0.89-1.442-0.998-2.177C45.521,11.296,45.523,11.328,45.529,11.359z" fill="#FFFFFF"/>
<path d="M30.764,19.497h0.026c-0.024-0.246-0.04-0.495-0.04-0.747c0,0.168,0.016,0.334,0.025,0.5     C30.771,19.332,30.77,19.415,30.764,19.497z" fill="#FFFFFF"/>
<path d="M45.488,10.739c0.006-0.104,0.018-0.21,0.035-0.32C45.506,10.528,45.494,10.635,45.488,10.739z" fill="#FFFFFF"/>
<path d="M45.891,25.684c0-0.002,0-0.006,0-0.01C45.891,25.678,45.891,25.682,45.891,25.684z" fill="#FFFFFF"/>
<path d="M39.611,21.497H10.899c-3.065,0-4.719,0.729-5.359,2.886c-0.386,1.299-3.476,13.25-4.327,16.575     c-0.037,0.146-0.071,0.278-0.1,0.39c-0.122,0.479-0.128,0.954-0.057,1.407c0.018-0.137,0.022-0.271,0.057-0.407     c0.028-0.109,0.063-0.244,0.1-0.39c0.852-3.324,3.941-15.274,4.327-16.575c0.641-2.157,2.294-2.886,5.359-2.886h28.712     c0.986,0,1.726,0.259,2.13,0.888c0.157,0.245,0.258,0.553,0.306,0.92c0.077-0.842-0.023-1.481-0.306-1.92     C41.337,21.756,40.6,21.497,39.611,21.497z" fill="#FFFFFF"/>
<path d="M45.488,10.869c0,0.081,0.003,0.161,0.011,0.239C45.492,11.03,45.488,10.95,45.488,10.869z" fill="#FFFFFF"/>
<path d="M45.932,26.202c0,0.002,0,0.004,0,0.006c-0.064,0.341-0.06,0.701,0.008,1.08     c0.039,0.209,0.115,0.41,0.201,0.61c0.115-0.116,0.217-0.231,0.289-0.346c-0.168-0.424-0.41-0.83-0.49-1.266     C45.936,26.258,45.936,26.23,45.932,26.202z" fill="#FFFFFF"/>
<path d="M23.07,18.876l0.021,0.621h0.037c-0.001-0.012-0.003-0.022-0.004-0.035l-0.031-0.924     c-0.005,0.04-0.014,0.073-0.018,0.113C23.07,18.726,23.068,18.801,23.07,18.876z" fill="#FFFFFF"/>
<path d="M30.275,9.269c0.597-0.367,1.181-0.757,1.785-1.107c1.138-0.652,1.508-0.154,2.303,0.721     c0.781,0.859,1.729,0.943,2.851,0.855c1.322-0.106,2.748,0.254,3.688-0.922c0.594-0.741,1.06-1.706,2.115-1.145     c0.676,0.359,1.365,0.701,2.025,1.086c0.234,0.137,0.402,0.267,0.531,0.399c0.021-0.091,0.042-0.182,0.072-0.278     c0.052-0.164,0.095-0.31,0.131-0.448c-0.114-0.232-0.342-0.443-0.734-0.673c-0.66-0.385-1.352-0.727-2.025-1.086     c-1.057-0.561-1.521,0.404-2.115,1.145c-0.939,1.176-2.365,0.816-3.688,0.922c-1.121,0.088-2.067,0.004-2.851-0.855     c-0.795-0.875-1.165-1.373-2.303-0.721c-0.604,0.35-1.188,0.74-1.785,1.107c-0.309,0.191-0.488,0.387-0.592,0.59     c0.068,0.21,0.16,0.436,0.256,0.671C30.032,9.442,30.139,9.355,30.275,9.269z" fill="#FFFFFF"/>
<path d="M26.585,17.521c1.06-0.228,1.651-0.737,2.14-1.608c0.086-0.151,0.168-0.31,0.248-0.484     c0.518-1.12,1.446-2.075,1.15-3.335c0.077-0.323,0.092-0.661,0.004-1.024c-0.002,0.008-0.002,0.016-0.004,0.024     c0.296,1.261-0.635,2.216-1.15,3.335c-0.08,0.174-0.162,0.333-0.248,0.484c-0.486,0.871-1.08,1.38-2.14,1.608     c-0.985,0.215-1.438,0.378-1.517,1.296c0.009,0.271,0.02,0.542,0.029,0.813C25.221,17.882,25.673,17.72,26.585,17.521z" fill="#FFFFFF"/>
<path d="M3.003,15.913H4.8c0-1.104,0.896-2,2-2h11c1.104,0,2,0.896,2,2h3.886c0.369-0.495,0.849-0.803,1.318-1     H19.8c0-1.104-0.896-2-2-2h-11c-1.104,0-2,0.896-2,2H3.003c-1.104,0-2,0.896-2,2v1C1.003,16.809,1.898,15.913,3.003,15.913z" fill="#FFFFFF"/>
</g>
<defs>
<linearGradient gradientTransform="matrix(1 0 0 -1 -291 -328)" gradientUnits="userSpaceOnUse" id="SVGID_1_" x1="317" x2="317" y1="-373.4971" y2="-334.5039">
<stop offset="0" style="stop-color:#D0CBC5"/>
<stop offset="0.5031" style="stop-color:#FAFCEF"/>
<stop offset="0.9693" style="stop-color:#FFFFFF"/>
<stop offset="1" style="stop-color:#FFFFFF"/>
</linearGradient>
</defs>
</g>
<rect fill="none" height="52" width="52"/>
</g>
</svg>
