<?xml version="1.0" encoding="utf-8"?>
<!-- Generator: Adobe Illustrator 17.0.1, SVG Export Plug-In . SVG Version: 6.00 Build 0)  -->
<!DOCTYPE svg PUBLIC "-//W3C//DTD SVG 1.1//EN" "http://www.w3.org/Graphics/SVG/1.1/DTD/svg11.dtd">
<svg version="1.1" id="Слой_1" xmlns="http://www.w3.org/2000/svg" xmlns:xlink="http://www.w3.org/1999/xlink" x="0px" y="0px"
	 width="40px" height="40px" viewBox="0 0 40 40" enable-background="new 0 0 40 40" xml:space="preserve">
<g>
	<g>
		<rect x="0.418" y="1.613" fill="none" width="38.453" height="37.974"/>
	</g>
	<path fill="#010101" fill-opacity="0.15" d="M20.063,40C9.001,40,0,31.111,0,20.185C0,9.262,9.001,0.375,20.063,0.375
		c11.062,0.001,20.063,8.888,20.063,19.809C40.125,31.111,31.124,40,20.063,40L20.063,40z M19.411,29.208
		c-1.159,0-2.103,0.934-2.103,2.081c0,1.147,0.944,2.079,2.103,2.079c1.159,0,2.102-0.932,2.102-2.079
		C21.512,30.142,20.569,29.208,19.411,29.208L19.411,29.208z M20.931,24.867v-0.843c0-0.917,0.25-1.741,0.742-2.446
		c0.508-0.725,1.244-1.456,2.023-2.23c1.823-1.81,3.89-3.863,3.89-6.544c0-3.847-2.627-5.798-7.809-5.798
		c-1.424,0-3.072,0.229-4.906,0.68v1.44c1.522-0.377,2.889-0.568,4.072-0.568c3.272,0,5.074,1.601,5.074,4.507
		c0.04,1.033-0.262,2.483-2.969,5.074c-2.102,1.956-3.165,3.361-3.165,5.623v1.105L20.931,24.867L20.931,24.867z"/>
	<path fill="#010101" fill-opacity="0.3" d="M20.063,2.026c-10.619,0-19.227,8.5-19.227,18.984C0.836,31.5,9.444,40,20.063,40
		c10.621,0,19.227-8.5,19.227-18.989C39.289,10.526,30.684,2.027,20.063,2.026z M19.411,35.019c-1.623,0-2.939-1.304-2.939-2.904
		c0-1.606,1.317-2.907,2.939-2.907c1.623,0,2.937,1.303,2.937,2.907C22.348,33.716,21.034,35.019,19.411,35.019z M22.361,22.871
		c-0.395,0.566-0.594,1.225-0.594,1.978v1.668h-4.72v-1.93c0-2.69,1.399-4.335,3.419-6.215c2.983-2.857,2.715-4.084,2.715-4.483
		c0-2.401-1.348-3.682-4.238-3.682c-1.379,0-3.013,0.273-4.908,0.824V7.872c2.148-0.574,4.062-0.868,5.742-0.868
		c5.848,0,8.645,2.436,8.645,6.623C28.422,17.876,23.975,20.573,22.361,22.871z"/>
	
		<linearGradient id="SVGID_1_" gradientUnits="userSpaceOnUse" x1="269.7225" y1="-370.1345" x2="269.7225" y2="-332.1605" gradientTransform="matrix(1 0 0 -1 -249.66 -330.96)">
		<stop  offset="0" style="stop-color:#D0CBC5"/>
		<stop  offset="0.5031" style="stop-color:#FAFBF0"/>
		<stop  offset="0.9693" style="stop-color:#FFFFFF"/>
		<stop  offset="1" style="stop-color:#FFFFFF"/>
	</linearGradient>
	<path fill="url(#SVGID_1_)" d="M20.063,1.201c-10.619,0-19.227,8.5-19.227,18.984c0,10.49,8.608,18.99,19.227,18.99
		c10.621,0,19.227-8.5,19.227-18.989C39.289,9.701,30.684,1.201,20.063,1.201z M19.411,34.193c-1.623,0-2.939-1.304-2.939-2.904
		c0-1.606,1.317-2.907,2.939-2.907c1.623,0,2.937,1.303,2.937,2.907C22.348,32.891,21.034,34.193,19.411,34.193z M22.361,22.046
		c-0.395,0.566-0.594,1.225-0.594,1.978v1.668h-4.72v-1.93c0-2.69,1.399-4.335,3.419-6.215c2.983-2.857,2.715-4.084,2.715-4.483
		c0-2.401-1.348-3.682-4.238-3.682c-1.379,0-3.013,0.273-4.908,0.824V7.047c2.148-0.574,4.062-0.868,5.742-0.868
		c5.848,0,8.645,2.436,8.645,6.623C28.422,17.051,23.975,19.747,22.361,22.046z"/>
	<path fill="#FFFFFF" d="M17.047,26.518h4.72v-0.826h-4.72C17.047,25.693,17.047,26.518,17.047,26.518z M19.411,34.193
		c-1.48,0-2.693-1.086-2.897-2.491c-0.019,0.135-0.043,0.271-0.043,0.413c0,1.6,1.316,2.904,2.939,2.904
		c1.623,0,2.937-1.303,2.937-2.904c0-0.142-0.023-0.277-0.043-0.413C22.101,33.107,20.89,34.193,19.411,34.193z M23.161,13.635
		c0.039-0.27,0.019-0.456,0.019-0.57c0-2.401-1.348-3.682-4.238-3.682c-1.379,0-3.013,0.273-4.908,0.824v0.826
		c1.896-0.551,3.528-0.824,4.908-0.824C21.723,10.209,23.064,11.406,23.161,13.635z M22.361,22.046
		c-0.395,0.566-0.594,1.225-0.594,1.978v0.826c0-0.753,0.199-1.412,0.594-1.978c1.613-2.298,6.061-4.995,6.061-9.241
		c0-0.17-0.013-0.332-0.021-0.496C28.176,17.188,23.932,19.809,22.361,22.046z M20.063,1.201c-10.619,0-19.227,8.5-19.227,18.984
		c0,0.139,0.008,0.275,0.011,0.413C1.069,10.304,9.584,2.026,20.063,2.026c10.481,0.001,18.993,8.278,19.216,18.571
		c0.003-0.138,0.011-0.274,0.011-0.413C39.289,9.701,30.684,1.201,20.063,1.201z"/>
</g>
</svg>
