<?xml version="1.0" encoding="utf-8"?>
<!-- Generator: Adobe Illustrator 17.0.1, SVG Export Plug-In . SVG Version: 6.00 Build 0)  -->
<!DOCTYPE svg PUBLIC "-//W3C//DTD SVG 1.1//EN" "http://www.w3.org/Graphics/SVG/1.1/DTD/svg11.dtd">
<svg version="1.1" id="Слой_1" xmlns="http://www.w3.org/2000/svg" xmlns:xlink="http://www.w3.org/1999/xlink" x="0px" y="0px"
	 width="96px" height="96px" viewBox="0 0 96 96" enable-background="new 0 0 96 96" xml:space="preserve">
<g>
	<path fill-opacity="0.4" d="M88.005,49.493c0,29.269-10.365,39.507-40,39.507c-29.632,0-40-10.237-40-39.507
		c0-29.267,10.368-39.507,40-39.507C77.639,9.987,88.005,20.227,88.005,49.493z"/>
	
		<linearGradient id="SVGID_1_" gradientUnits="userSpaceOnUse" x1="-289.4954" y1="-1566.3728" x2="-289.4954" y2="-1645.3834" gradientTransform="matrix(1 0 0 -1 337.5002 -1557.7061)">
		<stop  offset="0" style="stop-color:#2876BB"/>
		<stop  offset="1" style="stop-color:#1D4593"/>
	</linearGradient>
	<path fill="url(#SVGID_1_)" d="M88.005,48.507c0,29.267-10.365,39.504-40,39.504c-29.632,0-40-10.237-40-39.504
		C8.005,19.237,18.373,9,48.005,9C77.639,9,88.005,19.24,88.005,48.507z"/>
	
		<linearGradient id="SVGID_2_" gradientUnits="userSpaceOnUse" x1="-289.4954" y1="-1566.9535" x2="-289.4954" y2="-1645.2172" gradientTransform="matrix(1 0 0 -1 337.5002 -1557.7061)">
		<stop  offset="0" style="stop-color:#FFFFFF"/>
		<stop  offset="1" style="stop-color:#FFFFFF;stop-opacity:0"/>
	</linearGradient>
	<path fill="url(#SVGID_2_)" fill-opacity="0.15" d="M48.005,9c-29.632,0-40,10.24-40,39.507s10.368,39.504,40,39.504
		c29.635,0,40-10.237,40-39.504C88.005,19.237,77.639,9,48.005,9z M48.005,87.024c-29.16,0-39-9.72-39-38.517s9.84-38.52,39-38.52
		c29.163,0,39,9.723,39,38.52S77.167,87.024,48.005,87.024z"/>
	<path fill-opacity="0.02" d="M44.786,79.197c-1.099,0-6.733-0.211-9.659-4.419c-1.997-2.869-2.139-6.568-0.421-10.984l6.051-17.512
		c-0.587,0.325-1.253,0.501-1.941,0.501c-0.28,0-0.56-0.029-0.827-0.085l-1.789-0.363c-1.067-0.216-2.016-0.864-2.595-1.784
		c-0.579-0.925-0.752-2.051-0.472-3.099c0.083-0.307,2.032-7.163,11.075-7.896c-1.075-1.549-1.667-3.395-1.667-5.301
		c0-5.173,4.261-9.384,9.501-9.384c5.235,0,9.501,4.211,9.501,9.384c0,4.155-2.709,7.701-6.557,8.928
		c0.203,0.232,0.395,0.477,0.563,0.728c2,2.875,2.147,6.568,0.421,10.984l-6.048,17.509c0.587-0.323,1.256-0.499,1.944-0.499
		c0.272,0,0.536,0.027,0.803,0.077l1.819,0.371c1.072,0.216,2.016,0.869,2.6,1.789c0.573,0.92,0.744,2.051,0.464,3.091
		c-0.088,0.325-2.256,7.96-12.685,7.96h-0.08V79.197z"/>
	<path fill-opacity="0.05" d="M44.786,78.211c-1.011,0-6.192-0.189-8.832-3.989c-1.803-2.589-1.901-5.979-0.309-10.069L41.914,46
		c0.416-1.112,0.555-2.173,0.549-2.752c-0.019,0-0.053,0.005-0.053,0.005c0.016,0-0.456,0.139-0.992,1.059
		c-0.536,0.917-1.533,1.488-2.603,1.488c-0.208,0-0.416-0.021-0.619-0.061l-1.795-0.363c-0.803-0.163-1.512-0.645-1.947-1.336
		c-0.432-0.693-0.563-1.539-0.352-2.325c0.077-0.293,2.043-7.224,11.72-7.224c0.147,0,0.328,0,0.539,0.011
		c-1.728-1.536-2.816-3.763-2.816-6.235c0-4.632,3.813-8.397,8.501-8.397s8.501,3.768,8.501,8.397c0,4.339-3.349,7.92-7.624,8.352
		c0.667,0.496,1.285,1.109,1.808,1.864c1.803,2.587,1.907,5.976,0.312,10.069l-6.269,18.152c-0.419,1.112-0.557,2.176-0.547,2.755
		c0.013-0.005,0.048-0.011,0.048-0.011c-0.011,0,0.461-0.136,0.997-1.056c0.533-0.92,1.533-1.488,2.6-1.488
		c0.197,0,0.4,0.021,0.605,0.059l1.819,0.368c0.803,0.165,1.509,0.653,1.944,1.341c0.432,0.691,0.563,1.536,0.349,2.317
		c-0.077,0.296-2.037,7.224-11.723,7.224h-0.083V78.211z"/>
	<path fill-opacity="0.05" d="M44.786,77.221c-0.923,0-5.651-0.171-8.008-3.557c-1.603-2.301-1.669-5.387-0.2-9.16l6.283-18.187
		c0.587-1.555,0.779-3.429,0.413-3.949c-0.08-0.112-0.445-0.123-0.557-0.123c-0.131,0-0.272,0.008-0.424,0.027
		c-0.064,0.008-0.912,0.123-1.741,1.547c-0.355,0.611-1.021,0.992-1.731,0.992c-0.139,0-0.277-0.013-0.408-0.043l-1.808-0.365
		c-0.533-0.109-1.008-0.432-1.296-0.891c-0.291-0.461-0.376-1.024-0.237-1.547c0.069-0.264,1.832-6.491,10.755-6.491
		c1.32,0,5.787,0.256,8.083,3.56c1.605,2.307,1.672,5.387,0.197,9.16l-6.283,18.189c-0.584,1.557-0.773,3.427-0.408,3.947
		c0.077,0.115,0.443,0.123,0.555,0.123c0.133,0,0.275-0.011,0.429-0.029c0.064-0.005,0.912-0.12,1.739-1.547
		c0.355-0.611,1.021-0.989,1.736-0.989c0.131,0,0.267,0.011,0.4,0.04l1.813,0.368c0.536,0.109,1.011,0.432,1.301,0.896
		c0.285,0.459,0.371,1.019,0.229,1.541c-0.067,0.261-1.824,6.488-10.755,6.488H44.786L44.786,77.221z M52.047,35.669
		c-4.133,0-7.501-3.325-7.501-7.408c0-4.085,3.365-7.411,7.501-7.411s7.501,3.325,7.501,7.411
		C59.546,32.347,56.181,35.669,52.047,35.669L52.047,35.669z"/>
	<path fill-opacity="0.1" d="M44.786,76.237c-0.837,0-5.112-0.152-7.184-3.136c-1.405-2.019-1.44-4.795-0.093-8.245l6.296-18.221
		c0.501-1.336,1.016-3.797,0.285-4.832c-0.165-0.235-0.488-0.549-1.379-0.549c-0.171,0-0.352,0.011-0.547,0.035
		c-0.112,0.011-1.384,0.147-2.485,2.037c-0.181,0.309-0.509,0.496-0.867,0.496c-0.067,0-0.133-0.005-0.2-0.021l-1.808-0.368
		c-0.269-0.053-0.504-0.216-0.651-0.445c-0.147-0.229-0.187-0.509-0.115-0.771c0.061-0.235,1.624-5.757,9.787-5.757h0.005
		c0.92,0,5.181,0.157,7.251,3.133c1.4,2.019,1.437,4.792,0.093,8.243l-6.299,18.224c-0.504,1.336-1.016,3.803-0.285,4.835
		c0.168,0.232,0.491,0.547,1.379,0.547c0.171,0,0.352-0.013,0.552-0.035c0.112-0.011,1.384-0.147,2.483-2.04
		c0.181-0.312,0.515-0.496,0.864-0.496c0.067,0,0.136,0.003,0.203,0.021l1.813,0.368c0.272,0.056,0.504,0.216,0.645,0.448
		c0.147,0.229,0.192,0.507,0.12,0.771c-0.061,0.235-1.624,5.755-9.792,5.755h-0.072V76.237z M52.047,34.683
		c-3.587,0-6.499-2.88-6.499-6.421s2.915-6.421,6.499-6.421s6.501,2.88,6.501,6.421C58.546,31.803,55.629,34.683,52.047,34.683
		L52.047,34.683z"/>
	<path fill-opacity="0.1" d="M48.639,72.389c-5.483,0.664-2.709-6.648-2.709-6.648l6.309-18.256
		c4.011-10.296-6.413-10.035-6.413-10.035c-7.485,0-8.821,5.019-8.821,5.019l1.816,0.365c1.427-2.448,3.227-2.523,3.227-2.523
		c5.483-0.667,2.709,6.643,2.709,6.643l-6.309,18.259c-4.011,10.299,6.413,10.035,6.413,10.035c7.488,0,8.821-5.019,8.821-5.019
		l-1.813-0.368C50.442,72.312,48.639,72.389,48.639,72.389z M52.047,22.827c-3.04,0-5.501,2.435-5.501,5.435
		s2.461,5.435,5.501,5.435c3.037,0,5.501-2.435,5.501-5.435C57.546,25.261,55.082,22.827,52.047,22.827z"/>
	
		<linearGradient id="SVGID_3_" gradientUnits="userSpaceOnUse" x1="-96.2981" y1="-813.2073" x2="-96.2981" y2="-1107.475" gradientTransform="matrix(1 0 0 -1 143.5749 -741.8663)">
		<stop  offset="0" style="stop-color:#F7FAEE"/>
		<stop  offset="0.3232" style="stop-color:#F7FAEE"/>
		<stop  offset="1" style="stop-color:#D1CAC4"/>
	</linearGradient>
	<path fill="url(#SVGID_3_)" d="M48.639,69.621c-5.483,0.669-2.709-6.643-2.709-6.643l6.309-18.259
		c4.011-10.299-6.413-10.035-6.413-10.035c-7.485,0-8.821,5.019-8.821,5.019l1.816,0.368c1.427-2.448,3.227-2.523,3.227-2.523
		c5.483-0.667,2.709,6.645,2.709,6.645l-6.309,18.259c-4.011,10.296,6.413,10.035,6.413,10.035c7.488,0,8.821-5.016,8.821-5.016
		l-1.813-0.368C50.442,69.552,48.639,69.621,48.639,69.621z M52.047,20.064c-3.04,0-5.501,2.432-5.501,5.435
		c0,3,2.461,5.435,5.501,5.435c3.037,0,5.501-2.435,5.501-5.435C57.546,22.499,55.082,20.064,52.047,20.064z"/>
	<path fill="#FFFFFF" d="M45.823,34.685c-7.485,0-8.819,5.019-8.819,5.019l0.395,0.08c0.784-1.445,2.965-4.112,8.427-4.112
		c0,0,6.888-0.173,7.312,5.291C53.506,34.499,45.823,34.685,45.823,34.685z M52.047,20.064c-3.04,0-5.501,2.432-5.501,5.435
		c0,0.168,0.011,0.333,0.027,0.496c0.253-2.771,2.605-4.941,5.475-4.941c2.869,0,5.224,2.168,5.475,4.941
		c0.021-0.163,0.032-0.328,0.032-0.496C57.546,22.499,55.082,20.064,52.047,20.064z"/>
	<rect x="8.005" y="9" fill="none" width="80" height="80"/>
</g>
</svg>
