<?xml version="1.0" encoding="UTF-8"?>
<!DOCTYPE svg PUBLIC "-//W3C//DTD SVG 1.1 Tiny//EN" "http://www.w3.org/Graphics/SVG/1.1/DTD/svg11-tiny.dtd">
<svg baseProfile="tiny" height="30px" version="1.1" viewBox="0 0 30 30" width="30px" x="0px" xmlns="http://www.w3.org/2000/svg" xmlns:xlink="http://www.w3.org/1999/xlink" y="0px">
<path d="M10.998,28c-1.038,0-1.917-0.567-2.613-1.687L1.89,17.171c-0.638-0.889-0.438-2.142,0.446-2.789  l2.42-1.768c0.343-0.251,0.749-0.384,1.174-0.384c0.641,0,1.246,0.312,1.619,0.834l3.426,4.761L21.432,2.859  C21.798,2.324,22.412,2,23.07,2c0.409,0,0.803,0.124,1.139,0.36l2.453,1.715c0.898,0.632,1.122,1.88,0.499,2.784L13.46,26.472  C13.227,26.831,12.462,28,10.998,28L10.998,28z" fill-opacity="0.15"/>
<path d="M26.089,3.895l-2.454-1.716c-0.451-0.316-1.072-0.201-1.384,0.254L10.986,18.554l-4.252-5.908  c-0.32-0.449-0.943-0.55-1.389-0.224l-2.42,1.768c-0.443,0.324-0.543,0.953-0.221,1.402l6.529,9.193  C9.709,25.549,10.266,26,10.998,26c0.692,0,1.19-0.409,1.643-1.101L26.338,5.292C26.651,4.837,26.539,4.211,26.089,3.895z" fill-opacity="0.3"/>
<path d="M26.089,4.895l-2.454-1.716c-0.451-0.316-1.072-0.201-1.384,0.254L10.986,19.554l-4.252-5.908  c-0.32-0.449-0.943-0.55-1.389-0.224l-2.42,1.768c-0.443,0.324-0.543,0.953-0.221,1.402l6.529,9.193  C9.709,26.549,10.266,27,10.998,27c0.692,0,1.19-0.409,1.643-1.101L26.338,6.292C26.651,5.837,26.539,5.211,26.089,4.895z" fill="#FFFFFF"/>
<rect fill="none" height="30" width="30"/>
</svg>
