<?xml version="1.0" encoding="utf-8"?>
<!-- Generator: Adobe Illustrator 17.0.1, SVG Export Plug-In . SVG Version: 6.00 Build 0)  -->
<!DOCTYPE svg PUBLIC "-//W3C//DTD SVG 1.1//EN" "http://www.w3.org/Graphics/SVG/1.1/DTD/svg11.dtd">
<svg version="1.1" id="Слой_1" xmlns="http://www.w3.org/2000/svg" xmlns:xlink="http://www.w3.org/1999/xlink" x="0px" y="0px"
	 width="150px" height="150px" viewBox="0 0 150 150" enable-background="new 0 0 150 150" xml:space="preserve">
<g>
	<path opacity="0.15" enable-background="new    " d="M36.903,148.646c-2.816,0-5.73-1.974-6.776-4.593l-3.706-9.253
		c-0.742-1.859-1.302-4.772-1.302-6.776V21.973c0-2.003,0.56-4.917,1.302-6.776l3.706-9.259c1.046-2.613,3.959-4.587,6.776-4.587
		h70.701c2.816,0,5.73,1.974,6.776,4.59l3.709,9.256c0.742,1.859,1.299,4.772,1.299,6.776v3.744c0,0.875-0.389,1.706-1.058,2.265
		c-0.539,0.445-1.202,0.68-1.888,0.68c-0.062,0-0.121-0.003-0.186-0.006c10.322,2.056,19.298,7.913,25.355,16.562
		c6.242,8.905,8.649,19.714,6.761,30.431c-1.267,7.188-9.453,19.351-10.378,20.715c-0.495,0.725-1.29,1.19-2.156,1.276
		c-0.091,0.012-0.186,0.012-0.277,0.012c-0.778,0-1.532-0.306-2.083-0.863l-8.899-8.9c-0.99-0.99-1.146-2.533-0.374-3.706
		c2.05-3.111,5.482-9.047,5.957-11.745c1.034-5.851-0.274-11.748-3.682-16.609c-3.258-4.654-8.06-7.824-13.586-8.988
		c1.629,0.345,3.24,0.89,4.796,1.617c1.04,0.48,1.7,1.523,1.7,2.666v76.899c0,2.003-0.557,4.917-1.299,6.776l-3.709,9.259
		c-1.043,2.613-3.959,4.587-6.776,4.587H36.903z M53.106,130.97c-0.81,0-1.473,0.663-1.473,1.473s0.663,1.473,1.473,1.473h38.296
		c0.81,0,1.473-0.663,1.473-1.473s-0.663-1.473-1.473-1.473H53.106z M104.658,116.241V49.334c0-1.582,1.252-2.884,2.834-2.943
		c0.339-0.024,0.539-0.035,0.722-0.038c-5.833,0.018-11.548,2.392-15.678,6.522c-2.819,2.822-4.799,6.301-5.786,10.14l10.372,1.823
		c1.143,0.2,2.059,1.049,2.348,2.168s-0.106,2.304-1.007,3.028L76.755,87.51c-0.524,0.424-1.175,0.651-1.847,0.651
		c-0.171,0-0.336-0.015-0.507-0.044c-0.84-0.15-1.57-0.651-2.015-1.376L57.949,62.909c-0.598-0.99-0.563-2.239,0.088-3.19
		c0.554-0.81,1.47-1.284,2.43-1.284c0.171,0,0.339,0.015,0.51,0.044l7.533,1.326c1.659-7.594,5.423-14.479,10.941-20
		c7.353-7.347,17.434-11.663,27.803-11.931c-0.648-0.077-1.255-0.368-1.72-0.828c-0.56-0.551-0.878-1.305-0.878-2.092v-0.035H39.846
		v91.322H104.658z M108.282,27.864c0.554,0,1.117,0.012,1.67,0.035C109.398,27.876,108.842,27.864,108.282,27.864
		C108.279,27.864,108.282,27.864,108.282,27.864z"/>
	<path opacity="0.3" enable-background="new    " d="M108.279,52.245c-0.224,0-0.445,0.027-0.675,0.035v69.853H36.903V24.919h70.701
		V27.9c0.227-0.003,0.448-0.035,0.678-0.035c2.522,0,5.07,0.224,7.556,0.663c0.197,0.035,0.401,0.097,0.598,0.136v-3.744
		c0-1.62-0.492-4.177-1.093-5.683l-3.706-9.259c-0.598-1.502-2.416-2.734-4.036-2.734H36.9c-1.62,0-3.438,1.231-4.039,2.737
		l-3.706,9.259c-0.598,1.502-1.09,4.059-1.09,5.68V130.97c0,1.62,0.492,4.177,1.093,5.686l3.706,9.259
		c0.601,1.502,2.419,2.734,4.039,2.734h70.701c1.62,0,3.438-1.231,4.039-2.74l3.706-9.259c0.601-1.502,1.093-4.059,1.093-5.68
		V54.071c-1.52-0.707-3.131-1.237-4.822-1.535C110.515,52.345,109.387,52.245,108.279,52.245z M91.402,139.808H53.106
		c-2.439,0-4.419-1.98-4.419-4.419c0-2.439,1.98-4.419,4.419-4.419h38.296c2.439,0,4.419,1.98,4.419,4.419
		C95.821,137.828,93.841,139.808,91.402,139.808z M139.205,49.852c-5.789-8.266-14.447-13.778-24.38-15.525
		c-12.122-2.139-24.566,1.791-33.283,10.508c-5.5,5.5-9.12,12.467-10.467,20.141l-0.206,1.178L60.47,64.331l14.435,23.832
		l21.708-17.475l-13.348-2.348l0.212-1.178c0.901-5.12,3.314-9.76,6.97-13.424c5.815-5.812,14.102-8.428,22.185-7.002
		c6.619,1.161,12.393,4.834,16.252,10.346c3.862,5.5,5.344,12.178,4.177,18.809c-0.763,4.322-6.407,12.859-6.407,12.859l8.899,8.9
		c0,0,8.726-12.797,9.913-19.572C147.223,68.138,144.991,58.116,139.205,49.852z"/>
	
		<linearGradient id="SVGID_1_" gradientUnits="userSpaceOnUse" x1="592.379" y1="840.6226" x2="592.379" y2="699.2173" gradientTransform="matrix(1 0 0 1 -505.3202 -694.92)">
		<stop  offset="0" style="stop-color:#D0CBC5"/>
		<stop  offset="0.5031" style="stop-color:#FAFCEF"/>
		<stop  offset="0.9693" style="stop-color:#FFFFFF"/>
		<stop  offset="1" style="stop-color:#FFFFFF"/>
	</linearGradient>
	<path fill="url(#SVGID_1_)" d="M108.279,49.299c-0.224,0-0.445,0.027-0.675,0.035v69.853H36.903V21.973h70.701v2.981
		c0.227-0.003,0.448-0.035,0.678-0.035c2.522,0,5.07,0.224,7.556,0.663c0.197,0.035,0.401,0.097,0.598,0.136v-3.744
		c0-1.62-0.492-4.177-1.093-5.683l-3.706-9.259c-0.598-1.502-2.416-2.734-4.036-2.734H36.9c-1.62,0-3.438,1.231-4.039,2.737
		l-3.706,9.259c-0.598,1.502-1.09,4.059-1.09,5.68v106.052c0,1.62,0.492,4.177,1.093,5.686l3.706,9.259
		c0.601,1.502,2.419,2.734,4.039,2.734h70.701c1.62,0,3.438-1.231,4.039-2.74l3.706-9.259c0.601-1.502,1.093-4.059,1.093-5.68
		V51.125c-1.52-0.707-3.131-1.237-4.822-1.535C110.515,49.399,109.387,49.299,108.279,49.299z M91.402,136.862H53.106
		c-2.439,0-4.419-1.98-4.419-4.419c0-2.439,1.98-4.419,4.419-4.419h38.296c2.439,0,4.419,1.98,4.419,4.419
		C95.821,134.882,93.841,136.862,91.402,136.862z M139.205,46.907c-5.789-8.266-14.447-13.778-24.38-15.525
		c-12.122-2.139-24.566,1.791-33.283,10.508c-5.5,5.5-9.12,12.467-10.467,20.141l-0.206,1.178L60.47,61.386l14.435,23.832
		l21.708-17.475l-13.348-2.348l0.212-1.178c0.901-5.12,3.314-9.76,6.97-13.424c5.815-5.812,14.102-8.428,22.185-7.002
		c6.619,1.161,12.393,4.834,16.252,10.346c3.862,5.5,5.344,12.178,4.177,18.809c-0.763,4.322-6.407,12.859-6.407,12.859l8.899,8.9
		c0,0,8.726-12.797,9.913-19.572C147.223,65.192,144.991,55.17,139.205,46.907z"/>
	<path fill="#FFFFFF" d="M139.205,46.907c-5.789-8.266-14.447-13.778-24.38-15.525c-12.122-2.139-24.566,1.791-33.283,10.508
		c-5.5,5.5-9.12,12.467-10.467,20.141l-0.206,1.178L60.47,61.386l1.997,3.296l8.399,1.476l0.206-1.178
		c1.346-7.671,4.967-14.641,10.467-20.141c8.717-8.717,21.16-12.647,33.283-10.508c9.934,1.747,18.597,7.259,24.38,15.525
		c4.183,5.965,6.472,12.853,6.79,19.961C146.269,61.671,143.962,53.694,139.205,46.907z M107.604,7.243
		c1.62,0,3.438,1.231,4.039,2.737l3.706,9.259c0.601,1.502,1.093,4.059,1.093,5.68v-2.946c0-1.62-0.492-4.177-1.093-5.683
		l-3.706-9.259c-0.601-1.502-2.419-2.734-4.039-2.734H36.903c-1.62,0-3.438,1.231-4.039,2.737l-3.706,9.259
		c-0.601,1.502-1.093,4.059-1.093,5.68v2.946c0-1.62,0.492-4.177,1.093-5.683l3.706-9.259c0.601-1.502,2.419-2.734,4.039-2.734
		H107.604z M36.903,122.133h70.701v-2.946H36.903V122.133z M91.402,136.862H53.106c-1.921,0-3.538-1.234-4.148-2.946
		c-0.165,0.462-0.271,0.954-0.271,1.473c0,2.439,1.98,4.419,4.419,4.419h38.296c2.439,0,4.419-1.98,4.419-4.419
		c0-0.518-0.106-1.01-0.271-1.473C94.94,135.628,93.323,136.862,91.402,136.862z M83.902,65.507
		c-0.136,0.554-0.318,1.087-0.424,1.656l-0.212,1.178l10.346,1.818l3.005-2.416L83.902,65.507z M133.066,72.945
		c-0.76,4.322-6.404,12.859-6.404,12.859l1.146,1.146c1.685-2.746,4.719-7.969,5.258-11.059c0.342-1.938,0.43-3.88,0.324-5.797
		C133.328,71.042,133.231,71.991,133.066,72.945z M108.279,49.299c-0.224,0-0.445,0.027-0.675,0.035v2.946
		c0.224-0.009,0.442-0.035,0.675-0.035c1.116,0,2.239,0.097,3.349,0.295c1.691,0.298,3.302,0.825,4.819,1.535v-2.946
		c-1.517-0.707-3.129-1.237-4.819-1.535C110.515,49.399,109.387,49.299,108.279,49.299z"/>
</g>
</svg>
