<?xml version="1.0" encoding="utf-8"?>
<!-- Generator: Adobe Illustrator 16.0.1, SVG Export Plug-In . SVG Version: 6.00 Build 0)  -->
<!DOCTYPE svg PUBLIC "-//W3C//DTD SVG 1.0//EN" "http://www.w3.org/TR/2001/REC-SVG-20010904/DTD/svg10.dtd">
<svg version="1.0"
	 id="Слой_1" xmlns:cc="http://creativecommons.org/ns#" xmlns:svg="http://www.w3.org/2000/svg" xmlns:dc="http://purl.org/dc/elements/1.1/" xmlns:rdf="http://www.w3.org/1999/02/22-rdf-syntax-ns#"
	 xmlns="http://www.w3.org/2000/svg" xmlns:xlink="http://www.w3.org/1999/xlink" x="0px" y="0px" width="96px" height="96px"
	 viewBox="0 0 96 96" enable-background="new 0 0 96 96" xml:space="preserve">
<linearGradient id="SVGID_1_" gradientUnits="userSpaceOnUse" x1="51.5488" y1="85.2822" x2="51.5488" y2="87.9219">
	<stop  offset="0" style="stop-color:#FF0F96"/>
	<stop  offset="0.0376" style="stop-color:#FF0E97"/>
	<stop  offset="0.9946" style="stop-color:#FF00BF"/>
</linearGradient>
<path fill="url(#SVGID_1_)" d="M52.76,86.073c0.292,0.667-0.016,1.446-0.686,1.738c-0.667,0.291-1.449-0.014-1.738-0.68
	c-0.291-0.669,0.018-1.447,0.684-1.738C51.689,85.102,52.469,85.404,52.76,86.073z"/>
<g>
	<g>
		<g id="Layer_1">
			<g id="DO_NOT_EDIT_-_BOUNDING_BOX_3_">
				<path id="BOUNDING_BOX_3_" fill="none" d="M0.628-0.137h96v96h-96V-0.137z"/>
			</g>
			<linearGradient id="BLUE_4_1_" gradientUnits="userSpaceOnUse" x1="48.6279" y1="7.8628" x2="48.6279" y2="87.8638">
				<stop  offset="0" style="stop-color:#AF3C72"/>
				<stop  offset="1" style="stop-color:#440A21"/>
			</linearGradient>
			<path id="BLUE_4_5_" fill="url(#BLUE_4_1_)" d="M8.628,47.863c0,29.6,10.4,40,40,40c29.601,0,40-10.4,40-40
				c0-29-9.899-39.5-38.101-40h-3.799C18.528,8.363,8.628,18.863,8.628,47.863z"/>
		</g>
		<g>
			<g>
				<g>
					<linearGradient id="SVGID_2_" gradientUnits="userSpaceOnUse" x1="74.5195" y1="73.1982" x2="74.5195" y2="75.8369">
						<stop  offset="0" style="stop-color:#BA0F56"/>
						<stop  offset="1" style="stop-color:#F90E6B"/>
					</linearGradient>
					<path fill="url(#SVGID_2_)" d="M75.732,73.988c0.291,0.668-0.016,1.447-0.686,1.738c-0.668,0.291-1.449-0.014-1.74-0.68
						c-0.291-0.668,0.02-1.447,0.686-1.738C74.66,73.019,75.441,73.32,75.732,73.988z"/>
					<linearGradient id="SVGID_3_" gradientUnits="userSpaceOnUse" x1="79.8066" y1="73.0264" x2="79.8066" y2="75.665">
						<stop  offset="0" style="stop-color:#BA0F56"/>
						<stop  offset="1" style="stop-color:#F90E6B"/>
					</linearGradient>
					<path fill="url(#SVGID_3_)" d="M81.019,73.816c0.292,0.668-0.015,1.447-0.685,1.738c-0.668,0.29-1.449-0.014-1.739-0.68
						c-0.291-0.668,0.018-1.447,0.685-1.738C79.948,72.846,80.728,73.148,81.019,73.816z"/>
					<linearGradient id="SVGID_4_" gradientUnits="userSpaceOnUse" x1="69.2324" y1="73.1982" x2="69.2324" y2="75.8369">
						<stop  offset="0" style="stop-color:#BA0F56"/>
						<stop  offset="1" style="stop-color:#F90E6B"/>
					</linearGradient>
					<path fill="url(#SVGID_4_)" d="M70.443,73.988c0.292,0.668-0.015,1.447-0.685,1.738c-0.668,0.291-1.449-0.014-1.739-0.68
						c-0.291-0.668,0.018-1.447,0.685-1.738C69.373,73.019,70.152,73.32,70.443,73.988z"/>
					<linearGradient id="SVGID_5_" gradientUnits="userSpaceOnUse" x1="58.6582" y1="73.0264" x2="58.6582" y2="75.666">
						<stop  offset="0" style="stop-color:#BA0F56"/>
						<stop  offset="1" style="stop-color:#F90E6B"/>
					</linearGradient>
					<path fill="url(#SVGID_5_)" d="M59.869,73.817c0.292,0.666-0.016,1.445-0.686,1.738c-0.667,0.29-1.448-0.014-1.738-0.68
						c-0.291-0.67,0.018-1.447,0.685-1.738C58.799,72.845,59.578,73.147,59.869,73.817z"/>
					<linearGradient id="SVGID_6_" gradientUnits="userSpaceOnUse" x1="63.9443" y1="73.0264" x2="63.9443" y2="75.665">
						<stop  offset="0" style="stop-color:#BA0F56"/>
						<stop  offset="1" style="stop-color:#F90E6B"/>
					</linearGradient>
					<path fill="url(#SVGID_6_)" d="M65.156,73.816c0.292,0.668-0.016,1.447-0.686,1.738c-0.667,0.29-1.449-0.014-1.739-0.68
						c-0.291-0.668,0.019-1.447,0.685-1.738C64.085,72.846,64.865,73.148,65.156,73.816z"/>
					<linearGradient id="SVGID_7_" gradientUnits="userSpaceOnUse" x1="38.4741" y1="72.8799" x2="38.4741" y2="75.5195">
						<stop  offset="0" style="stop-color:#BA0F56"/>
						<stop  offset="1" style="stop-color:#F90E6B"/>
					</linearGradient>
					<path fill="url(#SVGID_7_)" d="M39.687,73.671c0.291,0.666-0.015,1.445-0.685,1.738c-0.668,0.29-1.449-0.014-1.74-0.68
						c-0.291-0.67,0.019-1.447,0.686-1.738C38.615,72.698,39.396,73.001,39.687,73.671z"/>
					<linearGradient id="SVGID_8_" gradientUnits="userSpaceOnUse" x1="43.7612" y1="72.8809" x2="43.7612" y2="75.5195">
						<stop  offset="0" style="stop-color:#BA0F56"/>
						<stop  offset="1" style="stop-color:#F90E6B"/>
					</linearGradient>
					<path fill="url(#SVGID_8_)" d="M44.973,73.671c0.292,0.668-0.015,1.447-0.685,1.738c-0.667,0.29-1.449-0.014-1.739-0.68
						c-0.291-0.668,0.018-1.447,0.685-1.738C43.902,72.7,44.682,73.003,44.973,73.671z"/>
					<linearGradient id="SVGID_9_" gradientUnits="userSpaceOnUse" x1="33.187" y1="72.8799" x2="33.187" y2="75.5195">
						<stop  offset="0" style="stop-color:#BA0F56"/>
						<stop  offset="1" style="stop-color:#F90E6B"/>
					</linearGradient>
					<path fill="url(#SVGID_9_)" d="M34.399,73.671c0.292,0.667-0.015,1.446-0.685,1.738c-0.667,0.29-1.449-0.014-1.739-0.68
						c-0.291-0.669,0.018-1.447,0.685-1.738C33.328,72.699,34.108,73.002,34.399,73.671z"/>
					<linearGradient id="SVGID_10_" gradientUnits="userSpaceOnUse" x1="27.8989" y1="72.8799" x2="27.8989" y2="75.5195">
						<stop  offset="0" style="stop-color:#BA0F56"/>
						<stop  offset="1" style="stop-color:#F90E6B"/>
					</linearGradient>
					<path fill="url(#SVGID_10_)" d="M29.111,73.671c0.292,0.667-0.015,1.446-0.685,1.738c-0.667,0.29-1.449-0.014-1.739-0.68
						c-0.291-0.669,0.018-1.447,0.685-1.738C28.04,72.699,28.82,73.002,29.111,73.671z"/>
					<linearGradient id="SVGID_11_" gradientUnits="userSpaceOnUse" x1="22.6099" y1="72.8809" x2="22.6099" y2="75.5205">
						<stop  offset="0" style="stop-color:#BA0F56"/>
						<stop  offset="1" style="stop-color:#F90E6B"/>
					</linearGradient>
					<path fill="url(#SVGID_11_)" d="M23.822,73.672c0.292,0.667-0.015,1.446-0.685,1.738c-0.667,0.29-1.449-0.014-1.739-0.68
						c-0.291-0.669,0.019-1.447,0.685-1.738C22.751,72.7,23.531,73.003,23.822,73.672z"/>
					<linearGradient id="SVGID_12_" gradientUnits="userSpaceOnUse" x1="17.6006" y1="72.8799" x2="17.6006" y2="75.5195">
						<stop  offset="0" style="stop-color:#BA0F56"/>
						<stop  offset="1" style="stop-color:#F90E6B"/>
					</linearGradient>
					<path fill="url(#SVGID_12_)" d="M18.812,73.671c0.292,0.667-0.015,1.446-0.685,1.738c-0.667,0.29-1.449-0.014-1.739-0.68
						c-0.291-0.669,0.018-1.447,0.684-1.738C17.741,72.699,18.521,73.002,18.812,73.671z"/>
				</g>
				<g>
					<linearGradient id="SVGID_13_" gradientUnits="userSpaceOnUse" x1="82.4512" y1="68.8408" x2="82.4512" y2="71.4785">
						<stop  offset="0" style="stop-color:#B21151"/>
						<stop  offset="1" style="stop-color:#BA0F54"/>
					</linearGradient>
					<path fill="url(#SVGID_13_)" d="M83.662,69.63c0.292,0.668-0.016,1.447-0.686,1.738c-0.667,0.291-1.448-0.014-1.738-0.68
						c-0.291-0.668,0.018-1.447,0.684-1.737C82.591,68.66,83.371,68.962,83.662,69.63z"/>
					<linearGradient id="SVGID_14_" gradientUnits="userSpaceOnUse" x1="66.5879" y1="68.9785" x2="66.5879" y2="71.6162">
						<stop  offset="0" style="stop-color:#B21151"/>
						<stop  offset="1" style="stop-color:#BA0F54"/>
					</linearGradient>
					<path fill="url(#SVGID_14_)" d="M67.8,69.768c0.292,0.668-0.015,1.447-0.685,1.738c-0.667,0.291-1.449-0.014-1.739-0.68
						c-0.291-0.668,0.019-1.446,0.685-1.737C66.729,68.798,67.51,69.1,67.8,69.768z"/>
					<linearGradient id="SVGID_15_" gradientUnits="userSpaceOnUse" x1="41.1172" y1="69.0127" x2="41.1172" y2="71.6504">
						<stop  offset="0" style="stop-color:#B21151"/>
						<stop  offset="1" style="stop-color:#BA0F54"/>
					</linearGradient>
					<path fill="url(#SVGID_15_)" d="M42.329,69.803c0.292,0.668-0.015,1.446-0.685,1.737c-0.667,0.291-1.449-0.013-1.739-0.679
						c-0.291-0.668,0.018-1.447,0.684-1.738C41.258,68.832,42.038,69.135,42.329,69.803z"/>
					<linearGradient id="SVGID_16_" gradientUnits="userSpaceOnUse" x1="30.543" y1="68.8398" x2="30.543" y2="71.4795">
						<stop  offset="0" style="stop-color:#B21151"/>
						<stop  offset="1" style="stop-color:#BA0F54"/>
					</linearGradient>
					<path fill="url(#SVGID_16_)" d="M31.754,69.631c0.292,0.666-0.015,1.445-0.685,1.738c-0.667,0.291-1.449-0.014-1.739-0.68
						c-0.291-0.67,0.018-1.447,0.684-1.737C30.684,68.659,31.464,68.961,31.754,69.631z"/>
					<linearGradient id="SVGID_17_" gradientUnits="userSpaceOnUse" x1="35.8296" y1="68.8408" x2="35.8296" y2="71.4785">
						<stop  offset="0" style="stop-color:#B21151"/>
						<stop  offset="1" style="stop-color:#BA0F54"/>
					</linearGradient>
					<path fill="url(#SVGID_17_)" d="M37.041,69.63c0.292,0.668-0.015,1.447-0.685,1.738c-0.667,0.291-1.449-0.014-1.739-0.68
						c-0.291-0.668,0.018-1.447,0.684-1.737C35.97,68.66,36.75,68.962,37.041,69.63z"/>
					<linearGradient id="SVGID_18_" gradientUnits="userSpaceOnUse" x1="25.2544" y1="68.8408" x2="25.2544" y2="71.4795">
						<stop  offset="0" style="stop-color:#B21151"/>
						<stop  offset="1" style="stop-color:#BA0F54"/>
					</linearGradient>
					<path fill="url(#SVGID_18_)" d="M26.466,69.631c0.292,0.667-0.015,1.446-0.685,1.738c-0.667,0.291-1.449-0.014-1.739-0.68
						c-0.291-0.669,0.018-1.447,0.684-1.737C25.395,68.66,26.175,68.962,26.466,69.631z"/>
					<linearGradient id="SVGID_19_" gradientUnits="userSpaceOnUse" x1="20.2446" y1="69.0127" x2="20.2446" y2="71.6514">
						<stop  offset="0" style="stop-color:#B21151"/>
						<stop  offset="1" style="stop-color:#BA0F54"/>
					</linearGradient>
					<path fill="url(#SVGID_19_)" d="M21.457,69.804c0.292,0.667-0.016,1.445-0.686,1.737c-0.667,0.291-1.449-0.013-1.739-0.679
						c-0.291-0.669,0.018-1.447,0.685-1.738C20.386,68.832,21.166,69.135,21.457,69.804z"/>
					<linearGradient id="SVGID_20_" gradientUnits="userSpaceOnUse" x1="14.9565" y1="69.0127" x2="14.9565" y2="71.6514">
						<stop  offset="0" style="stop-color:#B21151"/>
						<stop  offset="1" style="stop-color:#BA0F54"/>
					</linearGradient>
					<path fill="url(#SVGID_20_)" d="M16.168,69.804c0.292,0.667-0.016,1.445-0.686,1.737c-0.667,0.291-1.449-0.013-1.739-0.679
						c-0.291-0.669,0.018-1.447,0.685-1.738C15.097,68.832,15.877,69.135,16.168,69.804z"/>
				</g>
				<g>
					<linearGradient id="SVGID_21_" gradientUnits="userSpaceOnUse" x1="79.8066" y1="64.792" x2="79.8066" y2="67.4316">
						<stop  offset="0" style="stop-color:#A01546"/>
						<stop  offset="0.9946" style="stop-color:#B31151"/>
					</linearGradient>
					<path fill="url(#SVGID_21_)" d="M81.019,65.583c0.292,0.667-0.015,1.446-0.685,1.738c-0.668,0.291-1.449-0.014-1.739-0.68
						c-0.291-0.669,0.018-1.447,0.685-1.738C79.948,64.611,80.728,64.914,81.019,65.583z"/>
					<linearGradient id="SVGID_22_" gradientUnits="userSpaceOnUse" x1="38.4741" y1="64.792" x2="38.4741" y2="67.4307">
						<stop  offset="0" style="stop-color:#A01546"/>
						<stop  offset="0.9946" style="stop-color:#B31151"/>
					</linearGradient>
					<path fill="url(#SVGID_22_)" d="M39.686,65.582C39.978,66.25,39.67,67.029,39,67.32c-0.667,0.291-1.449-0.014-1.739-0.68
						c-0.291-0.668,0.018-1.447,0.685-1.738C38.615,64.611,39.395,64.914,39.686,65.582z"/>
					<linearGradient id="SVGID_23_" gradientUnits="userSpaceOnUse" x1="27.8989" y1="64.6543" x2="27.8989" y2="67.293">
						<stop  offset="0" style="stop-color:#A01546"/>
						<stop  offset="0.9946" style="stop-color:#B31151"/>
					</linearGradient>
					<path fill="url(#SVGID_23_)" d="M29.111,65.445c0.291,0.666-0.015,1.445-0.685,1.737c-0.668,0.291-1.449-0.013-1.74-0.679
						c-0.291-0.67,0.019-1.447,0.686-1.738C28.04,64.473,28.82,64.775,29.111,65.445z"/>
					<linearGradient id="SVGID_24_" gradientUnits="userSpaceOnUse" x1="33.186" y1="64.6543" x2="33.186" y2="67.293">
						<stop  offset="0" style="stop-color:#A01546"/>
						<stop  offset="0.9946" style="stop-color:#B31151"/>
					</linearGradient>
					<path fill="url(#SVGID_24_)" d="M34.398,65.445c0.292,0.667-0.015,1.446-0.685,1.737c-0.667,0.291-1.449-0.013-1.739-0.679
						c-0.291-0.669,0.018-1.447,0.685-1.738C33.327,64.474,34.107,64.776,34.398,65.445z"/>
					<linearGradient id="SVGID_25_" gradientUnits="userSpaceOnUse" x1="84.5449" y1="64.5381" x2="84.5449" y2="67.1768">
						<stop  offset="0" style="stop-color:#A01546"/>
						<stop  offset="0.9946" style="stop-color:#B31151"/>
					</linearGradient>
					<path fill="url(#SVGID_25_)" d="M85.757,65.328c0.292,0.667-0.016,1.446-0.686,1.738c-0.667,0.291-1.448-0.014-1.738-0.68
						c-0.291-0.669,0.018-1.447,0.685-1.738C84.687,64.357,85.466,64.659,85.757,65.328z"/>
					<linearGradient id="SVGID_26_" gradientUnits="userSpaceOnUse" x1="22.6099" y1="64.6543" x2="22.6099" y2="67.293">
						<stop  offset="0" style="stop-color:#A01546"/>
						<stop  offset="0.9946" style="stop-color:#B31151"/>
					</linearGradient>
					<path fill="url(#SVGID_26_)" d="M23.822,65.445c0.292,0.667-0.015,1.446-0.685,1.737c-0.667,0.291-1.449-0.013-1.739-0.679
						c-0.291-0.669,0.019-1.447,0.685-1.738C22.751,64.474,23.531,64.776,23.822,65.445z"/>
					<linearGradient id="SVGID_27_" gradientUnits="userSpaceOnUse" x1="17.6006" y1="64.8262" x2="17.6006" y2="67.4658">
						<stop  offset="0" style="stop-color:#A01546"/>
						<stop  offset="0.9946" style="stop-color:#B31151"/>
					</linearGradient>
					<path fill="url(#SVGID_27_)" d="M18.812,65.617c0.292,0.667-0.015,1.446-0.685,1.738c-0.667,0.291-1.449-0.014-1.739-0.68
						c-0.291-0.669,0.018-1.447,0.684-1.738C17.741,64.646,18.521,64.948,18.812,65.617z"/>
					<linearGradient id="SVGID_28_" gradientUnits="userSpaceOnUse" x1="13.0054" y1="64.8262" x2="13.0054" y2="67.4658">
						<stop  offset="0" style="stop-color:#A01546"/>
						<stop  offset="0.9946" style="stop-color:#B31151"/>
					</linearGradient>
					<path fill="url(#SVGID_28_)" d="M14.217,65.617c0.292,0.667-0.015,1.446-0.685,1.738c-0.667,0.291-1.449-0.014-1.739-0.68
						c-0.291-0.669,0.018-1.447,0.684-1.738C13.146,64.646,13.926,64.948,14.217,65.617z"/>
				</g>
				<g>
					<linearGradient id="SVGID_29_" gradientUnits="userSpaceOnUse" x1="35.8296" y1="60.6055" x2="35.8296" y2="63.2451">
						<stop  offset="0" style="stop-color:#681B3C"/>
						<stop  offset="0.9946" style="stop-color:#9F1546"/>
					</linearGradient>
					<path fill="url(#SVGID_29_)" d="M37.042,61.396c0.291,0.666-0.015,1.445-0.685,1.738c-0.668,0.291-1.449-0.014-1.74-0.68
						c-0.291-0.67,0.019-1.446,0.685-1.737C35.97,60.425,36.751,60.727,37.042,61.396z"/>
					<linearGradient id="SVGID_30_" gradientUnits="userSpaceOnUse" x1="41.1172" y1="60.6064" x2="41.1172" y2="63.2451">
						<stop  offset="0" style="stop-color:#681B3C"/>
						<stop  offset="0.9946" style="stop-color:#9F1546"/>
					</linearGradient>
					<path fill="url(#SVGID_30_)" d="M42.329,61.396c0.292,0.667-0.015,1.446-0.685,1.738c-0.667,0.291-1.449-0.014-1.739-0.68
						c-0.291-0.669,0.018-1.446,0.684-1.737C41.258,60.426,42.038,60.728,42.329,61.396z"/>
					<linearGradient id="SVGID_31_" gradientUnits="userSpaceOnUse" x1="30.543" y1="60.6064" x2="30.543" y2="63.2441">
						<stop  offset="0" style="stop-color:#681B3C"/>
						<stop  offset="0.9946" style="stop-color:#9F1546"/>
					</linearGradient>
					<path fill="url(#SVGID_31_)" d="M31.754,61.396c0.292,0.668-0.015,1.447-0.685,1.738c-0.667,0.291-1.449-0.014-1.739-0.68
						c-0.291-0.668,0.018-1.446,0.684-1.737C30.684,60.426,31.464,60.728,31.754,61.396z"/>
					<linearGradient id="SVGID_32_" gradientUnits="userSpaceOnUse" x1="77.1621" y1="60.6064" x2="77.1621" y2="63.2451">
						<stop  offset="0" style="stop-color:#681B3C"/>
						<stop  offset="0.9946" style="stop-color:#9F1546"/>
					</linearGradient>
					<path fill="url(#SVGID_32_)" d="M78.374,61.396c0.292,0.667-0.015,1.446-0.685,1.738c-0.667,0.291-1.449-0.014-1.739-0.68
						c-0.291-0.669,0.019-1.446,0.685-1.737C77.304,60.426,78.084,60.728,78.374,61.396z"/>
					<linearGradient id="SVGID_33_" gradientUnits="userSpaceOnUse" x1="82.4512" y1="60.6064" x2="82.4512" y2="63.2451">
						<stop  offset="0" style="stop-color:#681B3C"/>
						<stop  offset="0.9946" style="stop-color:#9F1546"/>
					</linearGradient>
					<path fill="url(#SVGID_33_)" d="M83.662,61.396c0.292,0.667-0.016,1.446-0.686,1.738c-0.667,0.291-1.448-0.014-1.738-0.68
						c-0.291-0.669,0.018-1.446,0.684-1.737C82.591,60.426,83.371,60.728,83.662,61.396z"/>
					<linearGradient id="SVGID_34_" gradientUnits="userSpaceOnUse" x1="24.6255" y1="60.8008" x2="24.6255" y2="63.4395">
						<stop  offset="0" style="stop-color:#681B3C"/>
						<stop  offset="0.9946" style="stop-color:#9F1546"/>
					</linearGradient>
					<path fill="url(#SVGID_34_)" d="M25.837,61.591c0.292,0.667-0.016,1.446-0.686,1.738c-0.667,0.291-1.449-0.014-1.739-0.68
						c-0.291-0.669,0.018-1.447,0.684-1.737C24.766,60.62,25.546,60.922,25.837,61.591z"/>
					<linearGradient id="SVGID_35_" gradientUnits="userSpaceOnUse" x1="19.6157" y1="60.6064" x2="19.6157" y2="63.2451">
						<stop  offset="0" style="stop-color:#681B3C"/>
						<stop  offset="0.9946" style="stop-color:#9F1546"/>
					</linearGradient>
					<path fill="url(#SVGID_35_)" d="M20.828,61.396c0.292,0.667-0.015,1.446-0.685,1.738c-0.667,0.291-1.449-0.014-1.739-0.68
						c-0.291-0.669,0.019-1.446,0.685-1.737C19.757,60.426,20.537,60.728,20.828,61.396z"/>
					<linearGradient id="SVGID_36_" gradientUnits="userSpaceOnUse" x1="14.3276" y1="60.6064" x2="14.3276" y2="63.2451">
						<stop  offset="0" style="stop-color:#681B3C"/>
						<stop  offset="0.9946" style="stop-color:#9F1546"/>
					</linearGradient>
					<path fill="url(#SVGID_36_)" d="M15.539,61.396c0.292,0.667-0.015,1.446-0.685,1.738c-0.667,0.291-1.449-0.014-1.739-0.68
						c-0.291-0.669,0.019-1.446,0.685-1.737C14.468,60.426,15.248,60.728,15.539,61.396z"/>
				</g>
				<g>
					<linearGradient id="SVGID_37_" gradientUnits="userSpaceOnUse" x1="66.5889" y1="77.0654" x2="66.5889" y2="79.7051">
						<stop  offset="0" style="stop-color:#F90E6B"/>
						<stop  offset="1" style="stop-color:#FF0F96"/>
					</linearGradient>
					<path fill="url(#SVGID_37_)" d="M67.801,77.856c0.291,0.666-0.015,1.445-0.685,1.738c-0.668,0.291-1.449-0.014-1.74-0.68
						c-0.291-0.67,0.02-1.446,0.686-1.737C66.729,76.885,67.51,77.187,67.801,77.856z"/>
					<linearGradient id="SVGID_38_" gradientUnits="userSpaceOnUse" x1="71.877" y1="77.0674" x2="71.877" y2="79.7051">
						<stop  offset="0" style="stop-color:#F90E6B"/>
						<stop  offset="1" style="stop-color:#FF0F96"/>
					</linearGradient>
					<path fill="url(#SVGID_38_)" d="M73.088,77.856c0.292,0.668-0.016,1.447-0.686,1.738c-0.667,0.291-1.448-0.014-1.738-0.68
						c-0.291-0.668,0.018-1.446,0.684-1.737C72.017,76.887,72.797,77.188,73.088,77.856z"/>
					<linearGradient id="SVGID_39_" gradientUnits="userSpaceOnUse" x1="77.1641" y1="77.0664" x2="77.1641" y2="79.7051">
						<stop  offset="0" style="stop-color:#F90E6B"/>
						<stop  offset="1" style="stop-color:#FF0F96"/>
					</linearGradient>
					<path fill="url(#SVGID_39_)" d="M78.375,77.856c0.292,0.667-0.015,1.446-0.685,1.738c-0.667,0.291-1.449-0.014-1.739-0.68
						c-0.291-0.669,0.019-1.446,0.685-1.737C77.305,76.886,78.085,77.188,78.375,77.856z"/>
					<linearGradient id="SVGID_40_" gradientUnits="userSpaceOnUse" x1="61.3027" y1="77.0664" x2="61.3027" y2="79.7051">
						<stop  offset="0" style="stop-color:#F90E6B"/>
						<stop  offset="1" style="stop-color:#FF0F96"/>
					</linearGradient>
					<path fill="url(#SVGID_40_)" d="M62.514,77.856c0.292,0.667-0.016,1.446-0.686,1.738c-0.667,0.291-1.448-0.014-1.738-0.68
						c-0.291-0.669,0.018-1.446,0.684-1.737C61.442,76.886,62.223,77.188,62.514,77.856z"/>
					<linearGradient id="SVGID_41_" gradientUnits="userSpaceOnUse" x1="41.1182" y1="77.0664" x2="41.1182" y2="79.7051">
						<stop  offset="0" style="stop-color:#F90E6B"/>
						<stop  offset="1" style="stop-color:#FF0F96"/>
					</linearGradient>
					<path fill="url(#SVGID_41_)" d="M42.33,77.856c0.292,0.667-0.015,1.446-0.685,1.738c-0.667,0.291-1.449-0.014-1.739-0.68
						c-0.291-0.669,0.018-1.446,0.684-1.737C41.259,76.886,42.039,77.188,42.33,77.856z"/>
					<linearGradient id="SVGID_42_" gradientUnits="userSpaceOnUse" x1="30.5435" y1="76.9277" x2="30.5435" y2="79.5674">
						<stop  offset="0" style="stop-color:#F90E6B"/>
						<stop  offset="1" style="stop-color:#FF0F96"/>
					</linearGradient>
					<path fill="url(#SVGID_42_)" d="M31.755,77.719c0.291,0.666-0.015,1.445-0.685,1.738c-0.668,0.291-1.449-0.014-1.74-0.68
						c-0.291-0.67,0.019-1.447,0.685-1.738C30.684,76.747,31.465,77.049,31.755,77.719z"/>
					<linearGradient id="SVGID_43_" gradientUnits="userSpaceOnUse" x1="35.8306" y1="76.9287" x2="35.8306" y2="79.5674">
						<stop  offset="0" style="stop-color:#F90E6B"/>
						<stop  offset="1" style="stop-color:#FF0F96"/>
					</linearGradient>
					<path fill="url(#SVGID_43_)" d="M37.042,77.719c0.292,0.668-0.015,1.447-0.685,1.738c-0.667,0.291-1.449-0.014-1.739-0.68
						c-0.291-0.668,0.018-1.447,0.684-1.738C35.971,76.749,36.751,77.051,37.042,77.719z"/>
					<linearGradient id="SVGID_44_" gradientUnits="userSpaceOnUse" x1="56.1475" y1="76.9287" x2="56.1475" y2="79.5674">
						<stop  offset="0" style="stop-color:#F90E6B"/>
						<stop  offset="1" style="stop-color:#FF0F96"/>
					</linearGradient>
					<path fill="url(#SVGID_44_)" d="M57.359,77.719c0.292,0.667-0.016,1.446-0.686,1.738c-0.667,0.291-1.449-0.014-1.739-0.68
						c-0.291-0.669,0.019-1.447,0.685-1.738C56.288,76.748,57.068,77.05,57.359,77.719z"/>
					<linearGradient id="SVGID_45_" gradientUnits="userSpaceOnUse" x1="25.2544" y1="76.9287" x2="25.2544" y2="79.5674">
						<stop  offset="0" style="stop-color:#F90E6B"/>
						<stop  offset="1" style="stop-color:#FF0F96"/>
					</linearGradient>
					<path fill="url(#SVGID_45_)" d="M26.466,77.719c0.292,0.667-0.015,1.446-0.685,1.738c-0.667,0.291-1.449-0.014-1.739-0.68
						c-0.291-0.669,0.018-1.447,0.684-1.738C25.395,76.748,26.175,77.05,26.466,77.719z"/>
					<linearGradient id="SVGID_46_" gradientUnits="userSpaceOnUse" x1="20.2446" y1="76.9297" x2="20.2446" y2="79.5684">
						<stop  offset="0" style="stop-color:#F90E6B"/>
						<stop  offset="1" style="stop-color:#FF0F96"/>
					</linearGradient>
					<path fill="url(#SVGID_46_)" d="M21.457,77.72c0.292,0.667-0.016,1.446-0.686,1.738c-0.667,0.291-1.449-0.014-1.739-0.68
						c-0.291-0.669,0.018-1.447,0.685-1.738C20.386,76.749,21.166,77.051,21.457,77.72z"/>
					<linearGradient id="SVGID_47_" gradientUnits="userSpaceOnUse" x1="46.6255" y1="77.0664" x2="46.6255" y2="79.7061">
						<stop  offset="0" style="stop-color:#F90E6B"/>
						<stop  offset="1" style="stop-color:#FF0F96"/>
					</linearGradient>
					<path fill="url(#SVGID_47_)" d="M47.837,77.857c0.291,0.666-0.015,1.445-0.685,1.738c-0.668,0.291-1.449-0.014-1.74-0.68
						c-0.291-0.67,0.019-1.446,0.685-1.737C46.766,76.886,47.546,77.188,47.837,77.857z"/>
				</g>
				<g>
					<linearGradient id="SVGID_48_" gradientUnits="userSpaceOnUse" x1="69.2324" y1="80.8008" x2="69.2324" y2="83.4404">
						<stop  offset="0" style="stop-color:#FF0F96"/>
						<stop  offset="0.9946" style="stop-color:#FF00BF"/>
					</linearGradient>
					<path fill="url(#SVGID_48_)" d="M70.444,81.592c0.292,0.667-0.016,1.446-0.686,1.738c-0.667,0.291-1.448-0.014-1.738-0.68
						c-0.291-0.669,0.018-1.447,0.685-1.738C69.374,80.62,70.153,80.923,70.444,81.592z"/>
					<linearGradient id="SVGID_49_" gradientUnits="userSpaceOnUse" x1="58.6582" y1="81.1143" x2="58.6582" y2="83.7529">
						<stop  offset="0" style="stop-color:#FF0F96"/>
						<stop  offset="0.9946" style="stop-color:#FF00BF"/>
					</linearGradient>
					<path fill="url(#SVGID_49_)" d="M59.87,81.905c0.291,0.666-0.016,1.445-0.686,1.737c-0.668,0.291-1.448-0.013-1.739-0.679
						c-0.291-0.67,0.019-1.447,0.686-1.738C58.799,80.933,59.579,81.235,59.87,81.905z"/>
					<linearGradient id="SVGID_50_" gradientUnits="userSpaceOnUse" x1="63.9453" y1="81.1152" x2="63.9453" y2="83.7529">
						<stop  offset="0" style="stop-color:#FF0F96"/>
						<stop  offset="0.9946" style="stop-color:#FF00BF"/>
					</linearGradient>
					<path fill="url(#SVGID_50_)" d="M65.157,81.905c0.292,0.668-0.016,1.447-0.686,1.737c-0.667,0.291-1.449-0.013-1.739-0.679
						c-0.291-0.668,0.019-1.447,0.685-1.738C64.086,80.935,64.866,81.237,65.157,81.905z"/>
					<linearGradient id="SVGID_51_" gradientUnits="userSpaceOnUse" x1="43.7612" y1="81.2861" x2="43.7612" y2="83.9277">
						<stop  offset="0" style="stop-color:#FF0F96"/>
						<stop  offset="0.9946" style="stop-color:#FF00BF"/>
					</linearGradient>
					<path fill="url(#SVGID_51_)" d="M44.973,82.077c0.292,0.668-0.015,1.447-0.685,1.74c-0.667,0.291-1.449-0.014-1.739-0.68
						c-0.291-0.67,0.018-1.449,0.685-1.74C43.902,81.105,44.682,81.407,44.973,82.077z"/>
					<linearGradient id="SVGID_52_" gradientUnits="userSpaceOnUse" x1="33.187" y1="81.1143" x2="33.187" y2="83.7549">
						<stop  offset="0" style="stop-color:#FF0F96"/>
						<stop  offset="0.9946" style="stop-color:#FF00BF"/>
					</linearGradient>
					<path fill="url(#SVGID_52_)" d="M34.399,81.905c0.292,0.668-0.015,1.447-0.685,1.739c-0.667,0.291-1.449-0.013-1.739-0.679
						c-0.291-0.67,0.018-1.449,0.685-1.74C33.328,80.933,34.108,81.235,34.399,81.905z"/>
					<linearGradient id="SVGID_53_" gradientUnits="userSpaceOnUse" x1="38.4741" y1="81.1143" x2="38.4741" y2="83.7549">
						<stop  offset="0" style="stop-color:#FF0F96"/>
						<stop  offset="0.9946" style="stop-color:#FF00BF"/>
					</linearGradient>
					<path fill="url(#SVGID_53_)" d="M39.686,81.905c0.292,0.668-0.015,1.447-0.685,1.739c-0.667,0.291-1.449-0.013-1.739-0.679
						c-0.291-0.67,0.018-1.449,0.685-1.74C38.615,80.933,39.395,81.235,39.686,81.905z"/>
					<linearGradient id="SVGID_54_" gradientUnits="userSpaceOnUse" x1="27.8989" y1="80.8008" x2="27.8989" y2="83.4404">
						<stop  offset="0" style="stop-color:#FF0F96"/>
						<stop  offset="0.0376" style="stop-color:#FF0E97"/>
						<stop  offset="0.9946" style="stop-color:#FF00BF"/>
					</linearGradient>
					<path fill="url(#SVGID_54_)" d="M29.111,81.592c0.292,0.667-0.015,1.446-0.685,1.738c-0.667,0.291-1.449-0.014-1.739-0.68
						c-0.291-0.669,0.018-1.447,0.685-1.738C28.04,80.62,28.82,80.923,29.111,81.592z"/>
					<linearGradient id="SVGID_55_" gradientUnits="userSpaceOnUse" x1="22.8892" y1="80.665" x2="22.8892" y2="82.9082">
						<stop  offset="0" style="stop-color:#FF0F96"/>
						<stop  offset="0.0376" style="stop-color:#FF0E97"/>
						<stop  offset="0.9946" style="stop-color:#FF00BF"/>
					</linearGradient>
					<path fill="url(#SVGID_55_)" d="M23.919,81.337c0.248,0.567-0.013,1.229-0.583,1.478c-0.567,0.248-1.232-0.012-1.479-0.577
						c-0.247-0.569,0.016-1.23,0.582-1.478C23.009,80.512,23.671,80.769,23.919,81.337z"/>
				</g>
				<g>
					<linearGradient id="SVGID_56_" gradientUnits="userSpaceOnUse" x1="56.1475" y1="84.9473" x2="56.1475" y2="87.5879">
						<stop  offset="0" style="stop-color:#FF00BA"/>
						<stop  offset="1" style="stop-color:#FF0FFF"/>
					</linearGradient>
					<path fill="url(#SVGID_56_)" d="M57.359,85.738c0.292,0.668-0.016,1.446-0.686,1.739c-0.667,0.291-1.449-0.013-1.739-0.679
						c-0.291-0.67,0.019-1.449,0.685-1.74C56.288,84.766,57.068,85.068,57.359,85.738z"/>
					<linearGradient id="SVGID_57_" gradientUnits="userSpaceOnUse" x1="41.1182" y1="84.9473" x2="41.1182" y2="87.5879">
						<stop  offset="0" style="stop-color:#FF00BA"/>
						<stop  offset="1" style="stop-color:#FF0FFF"/>
					</linearGradient>
					<path fill="url(#SVGID_57_)" d="M42.33,85.738c0.292,0.668-0.015,1.446-0.685,1.739c-0.667,0.291-1.449-0.013-1.739-0.679
						c-0.291-0.67,0.018-1.449,0.684-1.74C41.259,84.766,42.039,85.068,42.33,85.738z"/>
					<linearGradient id="SVGID_58_" gradientUnits="userSpaceOnUse" x1="35.8306" y1="84.4111" x2="35.8306" y2="87.0527">
						<stop  offset="0" style="stop-color:#FF00BA"/>
						<stop  offset="1" style="stop-color:#FF0FFF"/>
					</linearGradient>
					<path fill="url(#SVGID_58_)" d="M37.042,85.202c0.291,0.668-0.016,1.447-0.686,1.74c-0.667,0.291-1.449-0.014-1.738-0.68
						c-0.291-0.67,0.018-1.449,0.684-1.74C35.971,84.229,36.751,84.532,37.042,85.202z"/>
					<linearGradient id="SVGID_59_" gradientUnits="userSpaceOnUse" x1="30.543" y1="83.9561" x2="30.543" y2="85.9375">
						<stop  offset="0" style="stop-color:#FF00BA"/>
						<stop  offset="1" style="stop-color:#FF0FFF"/>
					</linearGradient>
					<path fill="url(#SVGID_59_)" d="M31.452,84.55c0.218,0.501-0.012,1.085-0.515,1.305c-0.5,0.219-1.087-0.01-1.304-0.51
						c-0.218-0.502,0.014-1.087,0.513-1.305C30.648,83.82,31.233,84.047,31.452,84.55z"/>
				</g>
			</g>
			<linearGradient id="SVGID_60_" gradientUnits="userSpaceOnUse" x1="46.6255" y1="84.9473" x2="46.6255" y2="87.5879">
				<stop  offset="0" style="stop-color:#FF00BA"/>
				<stop  offset="1" style="stop-color:#FF0FFF"/>
			</linearGradient>
			<path fill="url(#SVGID_60_)" d="M47.837,85.738c0.291,0.668-0.016,1.446-0.686,1.739c-0.667,0.291-1.449-0.013-1.738-0.679
				c-0.291-0.67,0.018-1.449,0.684-1.74C46.766,84.766,47.546,85.068,47.837,85.738z"/>
		</g>
		<g>
			<g>
				<path fill="none" stroke="#FFFFFF" stroke-width="2" stroke-miterlimit="10" d="M29.843,45.502
					c1.685,7.291,9.436,11.713,17.33,9.888"/>
				<path fill="none" stroke="#FFFFFF" stroke-width="2" stroke-miterlimit="10" d="M61.706,68.938
					c-1.059-8.348-7.824-14.356-15.125-13.429"/>
			</g>
			<g>
				<path opacity="0.2" enable-background="new    " d="M73.551,56.852c-1.908-4.342-6.976-6.322-11.336-4.422
					c-1.672,0.729-2.683,1.797-3.571,3.236l-7.242,3.158c-1.661-0.328-3.147-0.308-4.82,0.422c-4.36,1.9-6.362,6.963-4.479,11.314
					c0.276,0.787,4.409,12.373,4.419,12.396c1.164,2.664,4.271,3.882,6.941,2.718c2.045-0.892,3.231-2.915,3.166-5.004l-0.05-6.254
					l9.943-4.334l4.565,4.305c1.471,1.457,3.763,1.963,5.806,1.072c2.672-1.165,3.895-4.27,2.734-6.935
					C79.615,68.501,73.941,57.591,73.551,56.852z"/>
				<g>
					<path opacity="0.5" enable-background="new    " d="M47.495,82.692c0.951,2.185,3.497,3.183,5.689,2.227
						c1.674-0.729,2.642-2.386,2.59-4.101l-0.053-6.903l11.102-4.839l5.02,4.736c1.223,1.205,3.101,1.622,4.772,0.894
						c2.188-0.955,3.347-3.574,2.238-5.685C68.558,49.389,40.16,61.813,47.495,82.692z"/>
					
						<linearGradient id="SVGID_61_" gradientUnits="userSpaceOnUse" x1="54.96" y1="46.3525" x2="54.9599" y2="12.6714" gradientTransform="matrix(0.9167 -0.3996 -0.3996 -0.9167 21.8253 118.5384)">
						<stop  offset="0" style="stop-color:#FFFFFF"/>
						<stop  offset="1" style="stop-color:#B2B2C9"/>
					</linearGradient>
					<path fill="url(#SVGID_61_)" d="M72.786,57.366L72.786,57.366c-1.691-3.872-6.208-5.643-10.092-3.948
						c-1.583,0.689-2.809,1.852-3.601,3.247l-7.202,3.141c-1.562-0.37-3.249-0.263-4.832,0.428
						c-3.885,1.692-5.666,6.207-3.977,10.082c0,0,3.99,11.411,4.031,11.507c0.952,2.183,3.498,3.181,5.689,2.227
						c1.675-0.73,2.644-2.387,2.59-4.104l-0.052-6.902l11.103-4.84l5.019,4.737c1.224,1.208,3.099,1.622,4.772,0.894
						c2.188-0.955,3.191-3.5,2.24-5.684C78.433,68.056,72.786,57.366,72.786,57.366z"/>
					<path opacity="0.35" fill="#FFFFFF" enable-background="new    " d="M63.019,54.167c-1.413,0.615-2.501,1.649-3.214,2.901
						l-0.134,0.235l-7.708,3.359L51.7,60.601c-1.399-0.33-2.9-0.235-4.314,0.381c-3.472,1.511-5.061,5.548-3.555,9.006l3.369,9.632
						L69.333,54.6C67.492,53.479,65.15,53.234,63.019,54.167z"/>
					<polygon fill="#404040" points="53.291,65.262 50.725,66.38 49.608,63.82 47.957,64.54 49.074,67.1 46.508,68.219 
						47.227,69.865 49.792,68.746 50.906,71.305 52.557,70.585 51.442,68.028 54.01,66.909 					"/>
					
						<linearGradient id="SVGID_62_" gradientUnits="userSpaceOnUse" x1="63.541" y1="29.7378" x2="63.541" y2="33.7793" gradientTransform="matrix(0.9167 -0.3996 -0.3996 -0.9167 21.8253 118.5384)">
						<stop  offset="0" style="stop-color:#FFFFFF"/>
						<stop  offset="1" style="stop-color:#B2B2C9"/>
					</linearGradient>
					<path fill="url(#SVGID_62_)" d="M66.294,61.544c1.098-0.479,2.375,0.021,2.852,1.116c0.478,1.094-0.024,2.37-1.123,2.848
						c-1.096,0.479-2.374-0.021-2.851-1.115C64.694,63.298,65.197,62.021,66.294,61.544z"/>
					<circle fill="#051F7D" cx="67.159" cy="63.526" r="1.348"/>
					
						<linearGradient id="SVGID_63_" gradientUnits="userSpaceOnUse" x1="66.7695" y1="32.9619" x2="66.7695" y2="37.0024" gradientTransform="matrix(0.9167 -0.3996 -0.3996 -0.9167 21.8253 118.5384)">
						<stop  offset="0" style="stop-color:#FFFFFF"/>
						<stop  offset="1" style="stop-color:#B2B2C9"/>
					</linearGradient>
					<path fill="url(#SVGID_63_)" d="M67.968,57.3c1.098-0.479,2.373,0.021,2.851,1.116c0.477,1.094-0.026,2.367-1.122,2.846
						c-1.099,0.479-2.374-0.021-2.852-1.113C66.368,59.054,66.87,57.778,67.968,57.3z"/>
					<circle fill="#ED2D81" cx="68.832" cy="59.28" r="1.35"/>
					
						<linearGradient id="SVGID_64_" gradientUnits="userSpaceOnUse" x1="63.5664" y1="36.1548" x2="63.5664" y2="40.1994" gradientTransform="matrix(0.9167 -0.3996 -0.3996 -0.9167 21.8253 118.5384)">
						<stop  offset="0" style="stop-color:#FFFFFF"/>
						<stop  offset="1" style="stop-color:#B2B2C9"/>
					</linearGradient>
					<path fill="url(#SVGID_64_)" d="M63.752,55.647c-1.094,0.477-1.598,1.753-1.121,2.85c0.477,1.091,1.754,1.592,2.85,1.117
						c1.097-0.481,1.601-1.757,1.124-2.85C66.126,55.668,64.851,55.169,63.752,55.647z"/>
					<circle fill="#FFE23D" cx="64.619" cy="57.629" r="1.349"/>
					
						<linearGradient id="SVGID_65_" gradientUnits="userSpaceOnUse" x1="60.3379" y1="32.9355" x2="60.3379" y2="36.9756" gradientTransform="matrix(0.9167 -0.3996 -0.3996 -0.9167 21.8253 118.5384)">
						<stop  offset="0" style="stop-color:#FFFFFF"/>
						<stop  offset="1" style="stop-color:#B2B2C9"/>
					</linearGradient>
					<path fill="url(#SVGID_65_)" d="M62.08,59.895c1.095-0.479,2.37,0.022,2.848,1.117c0.476,1.095-0.025,2.369-1.12,2.846
						c-1.093,0.478-2.368-0.023-2.845-1.117C60.485,61.646,60.985,60.371,62.08,59.895z"/>
					<path fill="#79CD19" d="M64.182,61.336c0.298,0.681-0.016,1.476-0.699,1.773c-0.681,0.297-1.479-0.014-1.774-0.693
						c-0.297-0.683,0.019-1.477,0.698-1.773C63.089,60.345,63.885,60.653,64.182,61.336z"/>
					
						<linearGradient id="SVGID_66_" gradientUnits="userSpaceOnUse" x1="54.96" y1="80.0986" x2="54.9599" y2="54.9723" gradientTransform="matrix(0.9167 -0.3996 0.3996 0.9167 -16.9377 29.6203)">
						<stop  offset="0" style="stop-color:#FFFFFF"/>
						<stop  offset="1" style="stop-color:#B2B2C9"/>
					</linearGradient>
					<path fill="url(#SVGID_66_)" d="M78.475,68.15c-0.042-0.095-5.688-10.784-5.688-10.784c-1.691-3.872-6.208-5.643-10.092-3.948
						c-1.583,0.689-2.809,1.852-3.601,3.247l-7.202,3.141c-1.562-0.37-3.249-0.263-4.832,0.428
						c-3.885,1.692-5.666,6.207-3.977,10.082c0,0,3.99,11.411,4.031,11.507c0.952,2.183,3.498,3.181,5.689,2.227
						c1.675-0.73,2.644-2.387,2.59-4.104l-0.052-6.902l11.103-4.84l5.016,4.741l0.003-0.004c1.224,1.208,3.099,1.622,4.772,0.894
						C78.422,72.88,79.426,70.335,78.475,68.15z M75.906,73.085c-1.356,0.594-2.877,0.256-3.867-0.724l-5.43-5.12l-12.088,5.27
						l0.054,7.465c0.042,1.392-0.743,2.735-2.099,3.322c-1.777,0.772-3.839-0.033-4.615-1.801l-4.03-11.51
						c-1.508-3.46,0.083-7.495,3.555-9.006c1.414-0.616,2.915-0.711,4.314-0.381l0.263,0.063l7.708-3.359l0.134-0.235
						c0.713-1.252,1.801-2.286,3.214-2.901c3.47-1.516,7.508,0.066,9.018,3.524c0,0,5.669,10.745,5.688,10.787
						C78.491,70.251,77.679,72.31,75.906,73.085z"/>
					<polygon opacity="0.15" enable-background="new    " points="66.416,68.216 66.577,67.255 54.521,72.511 54.522,72.64 
						55.377,73.028 					"/>
					
						<rect x="38.952" y="47.462" transform="matrix(-0.9167 0.3996 -0.3996 -0.9167 142.0556 107.1215)" fill="none" width="41.817" height="41.817"/>
				</g>
			</g>
		</g>
		<g>
			<g>
				
					<linearGradient id="SVGID_67_" gradientUnits="userSpaceOnUse" x1="90.416" y1="-3120.6279" x2="90.416" y2="-3059.4775" gradientTransform="matrix(4.489659e-011 -1 -1 -4.489659e-011 -3043.9893 125.2168)">
					<stop  offset="0" style="stop-color:#EEEEF3"/>
					<stop  offset="0.1365" style="stop-color:#F5F5F8"/>
					<stop  offset="0.4127" style="stop-color:#FDFDFD"/>
					<stop  offset="1" style="stop-color:#FFFFFF"/>
				</linearGradient>
				<path fill="url(#SVGID_67_)" d="M69.625,20.68c1.135,0,2.061,0.946,2.061,2.101v24.044c0,1.154-0.926,2.097-2.061,2.097H27.47
					c-1.134,0-2.062-0.943-2.062-2.097V22.78c0-1.153,0.928-2.1,2.062-2.1H69.625L69.625,20.68z"/>
				<g>
					<g>
						
							<linearGradient id="SVGID_68_" gradientUnits="userSpaceOnUse" x1="76.9639" y1="619.9453" x2="102.218" y2="651.2502" gradientTransform="matrix(0.3023 -1.0345 1.0259 0.2998 -629.8872 -63.5099)">
							<stop  offset="0" style="stop-color:#A0A0A0"/>
							<stop  offset="1" style="stop-color:#070707"/>
						</linearGradient>
						<polygon fill="url(#SVGID_68_)" points="67.287,22.135 67.184,47.488 29.048,47.504 29.154,22.148 						"/>
					</g>
					
						<linearGradient id="SVGID_69_" gradientUnits="userSpaceOnUse" x1="82.8994" y1="621.3223" x2="95.0874" y2="624.6641" gradientTransform="matrix(0.3023 -1.0345 1.0259 0.2998 -629.8872 -63.5099)">
						<stop  offset="0" style="stop-color:#FFFFFF"/>
						<stop  offset="1" style="stop-color:#A0A0A0"/>
					</linearGradient>
					<polygon opacity="0.17" fill="url(#SVGID_69_)" enable-background="new    " points="29.051,46.261 29.126,22.245 
						54.145,22.233 					"/>
				</g>
			</g>
			<g>
				<g>
					<polygon fill="#131112" points="44.571,33.419 45.053,33.957 49.402,33.085 48.92,32.548 					"/>
					<polygon fill="#121011" points="48.92,32.548 49.402,33.085 52.307,29.225 51.822,28.688 					"/>
					<polygon fill="#121010" points="46.779,36.303 47.26,36.839 45.053,33.957 44.571,33.419 					"/>
					<polygon fill="#121010" points="45.067,40.527 45.55,41.063 47.26,36.839 46.779,36.303 					"/>
					<polygon fill="#131112" points="52.799,32.376 53.281,32.912 57.281,33.41 56.801,32.874 					"/>
					
						<radialGradient id="SVGID_70_" cx="-165.4297" cy="31.4453" r="11.6993" gradientTransform="matrix(-0.7988 0.241 0.1577 0.7705 -86.8788 50.5918)" gradientUnits="userSpaceOnUse">
						<stop  offset="0" style="stop-color:#FFFFFF"/>
						<stop  offset="0.2839" style="stop-color:#FDFDFD"/>
						<stop  offset="0.4478" style="stop-color:#F4F4F5"/>
						<stop  offset="0.5812" style="stop-color:#E6E6E7"/>
						<stop  offset="0.6982" style="stop-color:#D3D2D4"/>
						<stop  offset="0.8044" style="stop-color:#B9B9BB"/>
						<stop  offset="0.9022" style="stop-color:#9A999D"/>
						<stop  offset="0.9929" style="stop-color:#757479"/>
						<stop  offset="1" style="stop-color:#727176"/>
					</radialGradient>
					<path fill="url(#SVGID_70_)" d="M56.227,26.446c2.451-0.109,3.926,1.792,3.301,4.248l-1.988,7.779
						c-0.623,2.454-3.117,4.534-5.564,4.644l-7.753,0.346c-2.447,0.109-3.923-1.792-3.297-4.247l1.983-7.779
						c0.625-2.458,3.118-4.538,5.564-4.647L56.227,26.446z M46.779,36.303l-1.711,4.224l4.267-2.077l3.293,1.738l0.426-4.166
						l3.748-3.149l-4.002-0.498l-0.977-3.688l-2.902,3.86l-4.349,0.871L46.779,36.303L46.779,36.303z"/>
					
						<linearGradient id="SVGID_71_" gradientUnits="userSpaceOnUse" x1="-178.3906" y1="34.2842" x2="-153.3936" y2="34.2842" gradientTransform="matrix(-0.7988 0.241 0.1577 0.7705 -86.8788 50.5918)">
						<stop  offset="0.0495" style="stop-color:#727176"/>
						<stop  offset="0.1813" style="stop-color:#FFFFFF"/>
						<stop  offset="0.3132" style="stop-color:#727176"/>
						<stop  offset="0.456" style="stop-color:#444242"/>
						<stop  offset="0.5659" style="stop-color:#D2D5D4"/>
						<stop  offset="0.7418" style="stop-color:#444242"/>
						<stop  offset="0.8791" style="stop-color:#FFFFFF"/>
						<stop  offset="1" style="stop-color:#444242"/>
					</linearGradient>
					<path fill="url(#SVGID_71_)" d="M42.153,43.117c-0.041-0.04-0.081-0.081-0.118-0.123c-0.161-0.178-0.322-0.357-0.482-0.537
						c0.038,0.044,0.077,0.084,0.117,0.125c0.01,0.009,0.02,0.018,0.03,0.026c0.031,0.03,0.063,0.062,0.097,0.09
						c0.001,0.002,0.004,0.002,0.005,0.005c0.067,0.059,0.138,0.113,0.212,0.166c0.01,0.007,0.019,0.013,0.029,0.021
						c0.072,0.05,0.147,0.097,0.225,0.141c0.015,0.007,0.028,0.016,0.042,0.024c0.078,0.042,0.159,0.083,0.241,0.119
						c0.013,0.005,0.026,0.011,0.039,0.016c0.088,0.038,0.178,0.073,0.271,0.102c0.001,0,0.001,0,0.002,0
						c0.093,0.031,0.188,0.056,0.286,0.078c0.014,0.004,0.027,0.007,0.041,0.01c0.095,0.02,0.192,0.037,0.291,0.051
						c0.017,0.001,0.036,0.003,0.055,0.007c0.099,0.011,0.2,0.02,0.304,0.024c0.015,0.001,0.032,0.001,0.047,0.001
						c0.109,0.004,0.22,0.004,0.334-0.001l7.753-0.346c0.076-0.003,0.148-0.01,0.223-0.015c0.025-0.003,0.053-0.006,0.078-0.01
						c0.051-0.004,0.1-0.01,0.148-0.017c0.029-0.005,0.059-0.01,0.086-0.015c0.049-0.007,0.094-0.015,0.141-0.023
						c0.029-0.005,0.061-0.013,0.09-0.018c0.047-0.01,0.09-0.019,0.133-0.029c0.033-0.008,0.063-0.017,0.096-0.025
						c0.043-0.01,0.088-0.021,0.131-0.033c0.029-0.009,0.064-0.019,0.096-0.029c0.043-0.013,0.084-0.024,0.125-0.038
						c0.033-0.011,0.066-0.022,0.098-0.034c0.041-0.014,0.082-0.027,0.123-0.042c0.033-0.012,0.066-0.026,0.102-0.039
						c0.037-0.015,0.076-0.031,0.117-0.048c0.033-0.014,0.068-0.028,0.102-0.044c0.037-0.016,0.076-0.033,0.113-0.05
						c0.035-0.016,0.066-0.032,0.102-0.048c0.039-0.019,0.076-0.037,0.111-0.056c0.033-0.018,0.068-0.035,0.102-0.053
						c0.037-0.019,0.072-0.039,0.109-0.06c0.033-0.019,0.066-0.037,0.1-0.057c0.035-0.02,0.07-0.042,0.107-0.063
						c0.031-0.02,0.064-0.04,0.098-0.061c0.035-0.022,0.072-0.044,0.105-0.067c0.031-0.022,0.064-0.043,0.098-0.065
						c0.033-0.022,0.068-0.046,0.102-0.071c0.031-0.022,0.064-0.046,0.094-0.068c0.033-0.024,0.068-0.049,0.1-0.074
						c0.033-0.024,0.064-0.048,0.094-0.072c0.033-0.027,0.066-0.052,0.098-0.078c0.029-0.025,0.061-0.05,0.09-0.076
						c0.031-0.027,0.064-0.053,0.094-0.081c0.029-0.026,0.063-0.053,0.09-0.08c0.031-0.027,0.061-0.056,0.092-0.084
						c0.027-0.026,0.055-0.054,0.084-0.083c0.029-0.028,0.061-0.057,0.088-0.086c0.027-0.028,0.057-0.057,0.084-0.085
						c0.027-0.031,0.057-0.06,0.084-0.091c0.027-0.029,0.053-0.058,0.078-0.087c0.029-0.031,0.057-0.063,0.082-0.093
						c0.025-0.03,0.053-0.061,0.078-0.091c0.025-0.031,0.051-0.064,0.076-0.096c0.025-0.03,0.049-0.062,0.074-0.092
						c0.025-0.033,0.051-0.066,0.074-0.099c0.021-0.031,0.047-0.063,0.07-0.095c0.023-0.034,0.045-0.068,0.068-0.102
						c0.023-0.032,0.045-0.064,0.068-0.097c0.021-0.036,0.043-0.07,0.064-0.104c0.02-0.033,0.043-0.065,0.063-0.098
						c0.021-0.037,0.043-0.073,0.064-0.109c0.018-0.032,0.037-0.066,0.055-0.098c0.021-0.038,0.039-0.074,0.059-0.111
						c0.018-0.034,0.035-0.067,0.053-0.1c0.02-0.039,0.037-0.078,0.055-0.116c0.018-0.033,0.033-0.065,0.047-0.099
						c0.02-0.04,0.037-0.082,0.051-0.121c0.016-0.033,0.029-0.065,0.045-0.097c0.014-0.044,0.031-0.086,0.047-0.129
						c0.01-0.03,0.023-0.061,0.035-0.092c0.016-0.048,0.031-0.097,0.049-0.146c0.008-0.026,0.016-0.051,0.023-0.077
						c0.023-0.075,0.045-0.149,0.063-0.226l1.988-7.779c0.336-1.315,0.066-2.47-0.627-3.244c0.16,0.18,0.32,0.358,0.48,0.537
						c0.697,0.773,0.965,1.929,0.629,3.242l-1.988,7.78c-0.018,0.074-0.037,0.15-0.063,0.226c-0.008,0.023-0.016,0.048-0.023,0.071
						c-0.016,0.051-0.033,0.102-0.051,0.153c-0.01,0.027-0.02,0.056-0.029,0.083c-0.02,0.045-0.037,0.091-0.051,0.138
						c-0.014,0.029-0.025,0.058-0.039,0.087c-0.02,0.043-0.037,0.088-0.057,0.129c-0.014,0.03-0.029,0.061-0.043,0.091
						c-0.02,0.042-0.037,0.083-0.059,0.125c-0.014,0.03-0.031,0.061-0.051,0.091c-0.02,0.04-0.039,0.08-0.063,0.12
						c-0.016,0.03-0.033,0.06-0.051,0.091c-0.023,0.039-0.045,0.077-0.068,0.116c-0.018,0.03-0.039,0.06-0.057,0.09
						c-0.021,0.038-0.047,0.076-0.07,0.112c-0.021,0.031-0.041,0.06-0.061,0.09c-0.025,0.036-0.049,0.074-0.076,0.108
						c-0.021,0.03-0.043,0.059-0.064,0.088c-0.025,0.037-0.053,0.071-0.08,0.107c-0.021,0.029-0.045,0.057-0.07,0.086
						c-0.025,0.035-0.053,0.069-0.08,0.103c-0.023,0.028-0.049,0.057-0.072,0.085c-0.029,0.033-0.057,0.066-0.086,0.098
						c-0.025,0.029-0.051,0.056-0.076,0.083c-0.027,0.031-0.059,0.063-0.088,0.096c-0.025,0.026-0.055,0.053-0.08,0.079
						c-0.029,0.031-0.061,0.063-0.09,0.093c-0.029,0.026-0.055,0.052-0.082,0.077c-0.031,0.031-0.063,0.061-0.096,0.09
						c-0.029,0.025-0.057,0.049-0.084,0.075c-0.033,0.028-0.066,0.058-0.1,0.085c-0.027,0.025-0.057,0.048-0.086,0.072
						c-0.033,0.027-0.066,0.055-0.102,0.082c-0.027,0.023-0.059,0.046-0.086,0.069c-0.037,0.026-0.072,0.052-0.107,0.078
						c-0.031,0.022-0.061,0.044-0.088,0.065c-0.037,0.025-0.072,0.05-0.107,0.074c-0.031,0.021-0.064,0.042-0.094,0.062
						c-0.035,0.024-0.074,0.048-0.109,0.07c-0.031,0.02-0.061,0.04-0.094,0.059c-0.035,0.023-0.074,0.044-0.109,0.066
						c-0.033,0.019-0.066,0.037-0.1,0.055c-0.035,0.021-0.072,0.041-0.111,0.062c-0.033,0.018-0.063,0.034-0.096,0.051
						c-0.041,0.019-0.076,0.038-0.117,0.057c-0.033,0.015-0.066,0.032-0.098,0.048c-0.039,0.017-0.078,0.035-0.119,0.051
						c-0.033,0.015-0.064,0.029-0.098,0.043c-0.039,0.017-0.08,0.033-0.119,0.048c-0.033,0.013-0.066,0.025-0.1,0.038
						c-0.041,0.015-0.082,0.029-0.123,0.043c-0.031,0.011-0.064,0.022-0.098,0.034c-0.041,0.012-0.084,0.024-0.125,0.037
						c-0.033,0.01-0.063,0.02-0.1,0.029c-0.039,0.012-0.084,0.023-0.127,0.034c-0.029,0.008-0.063,0.017-0.094,0.025
						c-0.045,0.009-0.088,0.019-0.135,0.026c-0.029,0.007-0.061,0.014-0.09,0.02c-0.047,0.009-0.092,0.017-0.141,0.024
						c-0.027,0.003-0.059,0.01-0.086,0.013c-0.049,0.007-0.1,0.012-0.148,0.018c-0.025,0.003-0.053,0.006-0.078,0.008
						c-0.004,0-0.008,0.002-0.012,0.002c-0.068,0.005-0.141,0.01-0.211,0.014l-7.753,0.345C44.59,44.003,44.479,44.003,44.37,44
						c-0.016,0-0.031-0.001-0.047-0.001c-0.104-0.005-0.205-0.014-0.305-0.024c-0.018-0.003-0.037-0.005-0.054-0.007
						c-0.099-0.014-0.197-0.03-0.291-0.05c-0.014-0.003-0.027-0.007-0.04-0.009c-0.099-0.023-0.195-0.048-0.288-0.078
						c0,0-0.001,0-0.002,0c-0.093-0.031-0.182-0.065-0.271-0.103c-0.012-0.005-0.025-0.01-0.039-0.016
						c-0.083-0.037-0.163-0.076-0.241-0.12c-0.015-0.007-0.029-0.015-0.042-0.023c-0.078-0.045-0.152-0.091-0.225-0.141
						c-0.01-0.007-0.02-0.014-0.029-0.022c-0.074-0.051-0.144-0.106-0.211-0.166c-0.002-0.001-0.003-0.001-0.005-0.003
						c-0.001-0.001-0.001-0.001-0.002-0.001c-0.031-0.026-0.059-0.054-0.087-0.082C42.178,43.141,42.165,43.13,42.153,43.117z"/>
					<g>
						
							<radialGradient id="SVGID_72_" cx="-159.958" cy="20.8096" r="2.0323" gradientTransform="matrix(-0.7988 0.241 0.1355 0.662 -86.4167 52.8496)" gradientUnits="userSpaceOnUse">
							<stop  offset="0" style="stop-color:#FEE361"/>
							<stop  offset="0.2582" style="stop-color:#F7EC45"/>
							<stop  offset="1" style="stop-color:#E6B54A"/>
						</radialGradient>
						<polygon fill="url(#SVGID_72_)" stroke="#FFFF00" stroke-width="0.25" stroke-miterlimit="10" points="44.424,29.653 
							44.907,30.189 43.929,26.499 43.447,25.962 						"/>
						
							<radialGradient id="SVGID_73_" cx="-151.769" cy="29.8755" r="2.2046" gradientTransform="matrix(-0.7988 0.241 0.1355 0.662 -86.2154 53.8333)" gradientUnits="userSpaceOnUse">
							<stop  offset="0" style="stop-color:#FEE361"/>
							<stop  offset="0.2582" style="stop-color:#F7EC45"/>
							<stop  offset="1" style="stop-color:#E6B54A"/>
						</radialGradient>
						<polygon fill="url(#SVGID_73_)" stroke="#FFFF00" stroke-width="0.25" stroke-miterlimit="10" points="36.691,37.804 
							37.173,38.341 41.439,36.264 40.958,35.728 						"/>
						
							<radialGradient id="SVGID_74_" cx="-162.0967" cy="26.5635" r="2.3032" gradientTransform="matrix(-0.7988 0.241 0.1355 0.662 -86.289 53.4739)" gradientUnits="userSpaceOnUse">
							<stop  offset="0" style="stop-color:#FEE361"/>
							<stop  offset="0.2582" style="stop-color:#F7EC45"/>
							<stop  offset="1" style="stop-color:#E6B54A"/>
						</radialGradient>
						<polygon fill="url(#SVGID_74_)" stroke="#FFFF00" stroke-width="0.25" stroke-miterlimit="10" points="44.679,33.3 
							45.161,33.837 48.906,30.688 48.424,30.151 						"/>
						
							<radialGradient id="SVGID_75_" cx="-158.7534" cy="30.2661" r="2.1531" gradientTransform="matrix(-0.7988 0.241 0.1355 0.662 -86.2067 53.8757)" gradientUnits="userSpaceOnUse">
							<stop  offset="0" style="stop-color:#FEE361"/>
							<stop  offset="0.2582" style="stop-color:#F7EC45"/>
							<stop  offset="1" style="stop-color:#E6B54A"/>
						</radialGradient>
						<polygon fill="url(#SVGID_75_)" stroke="#FFFF00" stroke-width="0.25" stroke-miterlimit="10" points="44.251,37.467 
							44.733,38.004 45.161,33.837 44.679,33.3 						"/>
						
							<radialGradient id="SVGID_76_" cx="-156.2671" cy="31.0635" r="2.0204" gradientTransform="matrix(-0.7988 0.241 0.1355 0.662 -86.189 53.9622)" gradientUnits="userSpaceOnUse">
							<stop  offset="0" style="stop-color:#FEE361"/>
							<stop  offset="0.2582" style="stop-color:#F7EC45"/>
							<stop  offset="1" style="stop-color:#E6B54A"/>
						</radialGradient>
						<polygon fill="url(#SVGID_76_)" stroke="#FFFF00" stroke-width="0.25" stroke-miterlimit="10" points="40.958,35.728 
							41.439,36.264 44.733,38.004 44.251,37.467 						"/>
						
							<radialGradient id="SVGID_77_" cx="-160.543" cy="22.2021" r="11.6903" gradientTransform="matrix(-0.7988 0.241 0.1355 0.662 -86.3858 53.0008)" gradientUnits="userSpaceOnUse">
							<stop  offset="0" style="stop-color:#FEE361"/>
							<stop  offset="0.2582" style="stop-color:#F7EC45"/>
							<stop  offset="1" style="stop-color:#E6B54A"/>
						</radialGradient>
						<polygon fill="url(#SVGID_77_)" stroke="#FFFF00" stroke-width="0.25" stroke-miterlimit="10" points="43.447,25.962 
							40.545,29.825 36.196,30.697 38.402,33.581 36.691,37.804 40.958,35.728 44.251,37.467 44.679,33.3 48.424,30.151 
							44.424,29.653 						"/>
					</g>
				</g>
			</g>
		</g>
		<path fill="#00BAC1" d="M69.334,40.343c0.321,0,0.583,0.261,0.583,0.583v3.994c0,0.322-0.262,0.583-0.583,0.583l0,0
			c-0.322,0-0.583-0.261-0.583-0.583v-3.994C68.751,40.604,69.012,40.343,69.334,40.343L69.334,40.343z"/>
		<linearGradient id="SVGID_78_" gradientUnits="userSpaceOnUse" x1="61.3027" y1="84.4111" x2="61.3027" y2="87.0527">
			<stop  offset="0" style="stop-color:#FF00BA"/>
			<stop  offset="1" style="stop-color:#FF0FFF"/>
		</linearGradient>
		<path fill="url(#SVGID_78_)" d="M62.514,85.202c0.291,0.668-0.016,1.447-0.686,1.74c-0.667,0.291-1.449-0.014-1.738-0.68
			c-0.291-0.67,0.018-1.449,0.684-1.74C61.442,84.229,62.223,84.532,62.514,85.202z"/>
	</g>
	<linearGradient id="SVGID_79_" gradientUnits="userSpaceOnUse" x1="67.1582" y1="83.9561" x2="67.1582" y2="85.9375">
		<stop  offset="0" style="stop-color:#FF00BA"/>
		<stop  offset="1" style="stop-color:#FF0FFF"/>
	</linearGradient>
	<path fill="url(#SVGID_79_)" d="M68.066,84.55c0.219,0.501-0.012,1.085-0.514,1.305c-0.501,0.219-1.088-0.01-1.305-0.51
		c-0.218-0.502,0.014-1.087,0.514-1.305C67.263,83.82,67.848,84.047,68.066,84.55z"/>
	<linearGradient id="SVGID_80_" gradientUnits="userSpaceOnUse" x1="74.1758" y1="80.7959" x2="74.1758" y2="82.7773">
		<stop  offset="0" style="stop-color:#FF00BA"/>
		<stop  offset="1" style="stop-color:#FF0FFF"/>
	</linearGradient>
	<path fill="url(#SVGID_80_)" d="M75.084,81.39c0.219,0.501-0.012,1.085-0.514,1.305c-0.502,0.219-1.088-0.01-1.305-0.51
		c-0.218-0.502,0.014-1.087,0.514-1.305C74.279,80.66,74.865,80.887,75.084,81.39z"/>
	<linearGradient id="SVGID_81_" gradientUnits="userSpaceOnUse" x1="51.5488" y1="85.6113" x2="51.5488" y2="87.5928">
		<stop  offset="0" style="stop-color:#FF00BA"/>
		<stop  offset="1" style="stop-color:#FF0FFF"/>
	</linearGradient>
	<path fill="url(#SVGID_81_)" d="M52.457,86.205c0.219,0.501-0.012,1.085-0.514,1.305c-0.501,0.219-1.088-0.01-1.305-0.51
		c-0.218-0.502,0.014-1.087,0.514-1.305C51.653,85.476,52.238,85.702,52.457,86.205z"/>
</g>
</svg>
