<?xml version="1.0" encoding="utf-8"?>
<!-- Generator: Adobe Illustrator 16.0.1, SVG Export Plug-In . SVG Version: 6.00 Build 0)  -->
<!DOCTYPE svg PUBLIC "-//W3C//DTD SVG 1.0//EN" "http://www.w3.org/TR/2001/REC-SVG-20010904/DTD/svg10.dtd">
<svg version="1.0" id="Layer_1" xmlns="http://www.w3.org/2000/svg" xmlns:xlink="http://www.w3.org/1999/xlink" x="0px" y="0px"
	 width="96px" height="96px" viewBox="0 0 96 96" enable-background="new 0 0 96 96" xml:space="preserve">
<g id="PLACE_YOUR_GRAPHIC_HERE">
</g>
<g id="DO_NOT_EDIT_-_FOCAL_ZONE_GUIDES_ONLY">
</g>
<g>
	<g id="GREEN_BACKGROUNDS">
		<g id="GREEN1">
			
				<radialGradient id="GREEN_1_1_" cx="47.5898" cy="743" r="39.9946" gradientTransform="matrix(1 0 0 1 0 -695)" gradientUnits="userSpaceOnUse">
				<stop  offset="0" style="stop-color:#FF5900"/>
				<stop  offset="0.0808" style="stop-color:#FE9000"/>
				<stop  offset="0.2312" style="stop-color:#FCFF00"/>
				<stop  offset="0.2602" style="stop-color:#FCF500"/>
				<stop  offset="0.3096" style="stop-color:#FDDA00"/>
				<stop  offset="0.373" style="stop-color:#FEAF00"/>
				<stop  offset="0.4247" style="stop-color:#FF8600"/>
				<stop  offset="0.4247" style="stop-color:#FF8600"/>
				<stop  offset="0.4247" style="stop-color:#FF8600"/>
				<stop  offset="0.7848" style="stop-color:#FF8600"/>
				<stop  offset="0.8441" style="stop-color:#FF8600"/>
				<stop  offset="0.8781" style="stop-color:#FF8B00"/>
				<stop  offset="0.9166" style="stop-color:#FE9800"/>
				<stop  offset="0.9573" style="stop-color:#FEAF00"/>
				<stop  offset="0.9992" style="stop-color:#FDCE00"/>
				<stop  offset="1" style="stop-color:#FDCF00"/>
			</radialGradient>
			<path id="GREEN_1_2_" fill="url(#GREEN_1_1_)" d="M7.59,47.989c0,29.633,10.365,40,40,40c29.637,0,40-10.367,40-40
				c0-28.985-9.926-39.53-38.091-39.979h-3.817C17.518,8.459,7.59,19.004,7.59,47.989z"/>
			
				<linearGradient id="HIGHLIGHT_GR1_1_" gradientUnits="userSpaceOnUse" x1="7.5898" y1="49" x2="87.5898" y2="49" gradientTransform="matrix(1 0 0 -1 0 97)">
				<stop  offset="0" style="stop-color:#FF0000"/>
				<stop  offset="0.0627" style="stop-color:#C80000"/>
				<stop  offset="0.0968" style="stop-color:#A90000"/>
			</linearGradient>
			<path id="HIGHLIGHT_GR1" opacity="0.25" fill="url(#HIGHLIGHT_GR1_1_)" enable-background="new    " d="M47.59,8
				c-29.635,0-40,10.365-40,40c0,29.633,10.365,40,40,40c29.637,0,40-10.367,40-40C87.59,18.365,77.227,8,47.59,8z M47.59,87.023
				c-29.158,0-39-9.851-39-39.023s9.842-39.023,39-39.023c29.158,0,39,9.847,39,39.023S76.748,87.023,47.59,87.023z"/>
		</g>
	</g>
	<g>
		<g>
			<g id="Layer_4">
				<path opacity="0.15" enable-background="new    " d="M34.655,75.5c-1.03,0-2.096-0.736-2.479-1.712L30.82,70.33
					c-0.272-0.694-0.477-1.782-0.477-2.53V28.2c0-0.749,0.205-1.836,0.477-2.53l1.355-3.458c0.383-0.976,1.449-1.713,2.479-1.713
					h25.87c1.031,0,2.1,0.737,2.479,1.714l1.356,3.457c0.271,0.694,0.477,1.782,0.477,2.53v39.6c0,0.748-0.204,1.837-0.477,2.531
					l-1.356,3.457c-0.383,0.976-1.448,1.712-2.479,1.712H34.655z M40.583,68.9c-0.296,0-0.539,0.246-0.539,0.55
					c0,0.303,0.243,0.55,0.539,0.55h14.013c0.297,0,0.539-0.247,0.539-0.55c0-0.304-0.242-0.55-0.539-0.55H40.583z M59.445,63.4
					V29.3H35.733V63.4H59.445z"/>
				<path opacity="0.3" enable-background="new    " d="M63.357,27.178l-1.354-3.457c-0.221-0.561-0.886-1.021-1.479-1.021h-25.87
					c-0.593,0-1.258,0.459-1.479,1.022L31.82,27.18c-0.22,0.561-0.399,1.516-0.399,2.12V68.9c0,0.604,0.179,1.56,0.399,2.121
					l1.355,3.461c0.22,0.558,0.885,1.018,1.479,1.018h25.87c0.596,0,1.261-0.46,1.479-1.021l1.354-3.457
					c0.221-0.563,0.397-1.52,0.397-2.125v-39.6C63.758,28.695,63.578,27.74,63.357,27.178z M54.596,72.2H40.583
					c-0.893,0-1.617-0.739-1.617-1.65S39.69,68.9,40.583,68.9h14.013c0.893,0,1.617,0.738,1.617,1.646
					C56.213,71.46,55.488,72.2,54.596,72.2z M60.523,65.6H34.653V29.3h25.871V65.6L60.523,65.6z"/>
				
					<linearGradient id="SVGID_1_" gradientUnits="userSpaceOnUse" x1="185.1084" y1="-2414.2324" x2="185.1084" y2="-2361.4302" gradientTransform="matrix(1 0 0 -1 -137.52 -2339.8301)">
					<stop  offset="0" style="stop-color:#D0CBC5"/>
					<stop  offset="0.5031" style="stop-color:#FAFCEF"/>
					<stop  offset="0.9693" style="stop-color:#FFFFFF"/>
				</linearGradient>
				<path fill="url(#SVGID_1_)" d="M63.357,26.078l-1.354-3.457c-0.221-0.561-0.886-1.021-1.479-1.021h-25.87
					c-0.593,0-1.258,0.459-1.479,1.022L31.82,26.08c-0.22,0.561-0.399,1.516-0.399,2.121v39.6c0,0.606,0.179,1.561,0.399,2.123
					l1.355,3.46c0.22,0.558,0.885,1.019,1.479,1.019h25.87c0.596,0,1.261-0.461,1.479-1.021l1.354-3.457
					c0.221-0.565,0.397-1.521,0.397-2.125V28.2C63.758,27.595,63.578,26.64,63.357,26.078z M54.596,71.1H40.583
					c-0.893,0-1.617-0.738-1.617-1.646c0-0.911,0.724-1.65,1.617-1.65h14.013c0.893,0,1.617,0.739,1.617,1.65
					C56.213,70.361,55.488,71.1,54.596,71.1z M60.523,64.5H34.653V28.2h25.871V64.5L60.523,64.5z"/>
				<path fill="#FFFFFF" d="M34.655,65.6h25.871v-1.1H34.655V65.6z M54.596,71.1H40.583c-0.702,0-1.294-0.459-1.518-1.1
					c-0.06,0.174-0.099,0.355-0.099,0.55c0,0.911,0.724,1.65,1.617,1.65h14.013c0.893,0,1.617-0.739,1.617-1.65
					c0-0.192-0.039-0.376-0.1-0.55C55.891,70.641,55.299,71.1,54.596,71.1z M63.357,26.078l-1.354-3.457
					c-0.221-0.561-0.886-1.021-1.479-1.021h-25.87c-0.593,0-1.258,0.459-1.479,1.022L31.82,26.08
					c-0.22,0.561-0.399,1.516-0.399,2.121v1.1c0-0.604,0.179-1.56,0.399-2.122l1.355-3.457c0.22-0.561,0.885-1.021,1.479-1.021
					h25.87c0.596,0,1.261,0.459,1.479,1.022l1.354,3.458c0.221,0.561,0.397,1.516,0.397,2.12v-1.1
					C63.758,27.595,63.578,26.64,63.357,26.078z"/>
			</g>
		</g>
	</g>
	<g>
		<g>
			<g>
				<g>
					<path fill="#FFFFFF" stroke="#000000" stroke-width="0.1" stroke-miterlimit="10" d="M57.557,47.037
						c0.881-1.64,1.348-3.738,1.129-5.996c-0.218-2.248-1.104-4.639-2.729-6.758c0.932,2.313,1.143,4.644,0.771,6.659
						c-1.367-1.897-3.334-3.319-5.517-4.006c-2.183-0.692-4.547-0.652-6.658,0.074c-2.114,0.723-3.942,2.141-5.171,3.936
						c-1.231,1.797-1.849,3.969-1.758,6.091c0.08-2.124,0.863-4.179,2.166-5.787c1.302-1.609,3.105-2.77,5.057-3.265
						c1.952-0.501,4.036-0.353,5.847,0.389c1.816,0.738,3.353,2.069,4.339,3.701c-1.851-0.211-3.58,0.203-4.886,1.05
						c1.129-0.316,2.531-0.208,3.886,0.435C55.383,44.197,56.672,45.384,57.557,47.037z"/>
				</g>
			</g>
		</g>
		<g>
			<g>
				<g>
					<path fill="#FFFFFF" stroke="#000000" stroke-width="0.1" stroke-miterlimit="10" d="M37.624,46.765
						c-0.881,1.64-1.348,3.739-1.129,5.995c0.216,2.247,1.103,4.641,2.728,6.758c-0.93-2.313-1.141-4.643-0.771-6.658
						c1.367,1.897,3.333,3.318,5.516,4.009c2.182,0.69,4.548,0.651,6.658-0.076c2.114-0.722,3.942-2.14,5.171-3.937
						c1.23-1.797,1.848-3.969,1.758-6.088c-0.08,2.125-0.863,4.176-2.166,5.788c-1.303,1.607-3.104,2.771-5.059,3.266
						c-1.949,0.5-4.036,0.354-5.848-0.389c-1.816-0.736-3.352-2.068-4.338-3.701c1.851,0.213,3.581-0.201,4.885-1.049
						c-1.13,0.314-2.53,0.209-3.885-0.437C39.796,49.604,38.507,48.417,37.624,46.765z"/>
				</g>
			</g>
		</g>
	</g>
</g>
</svg>
