<?xml version="1.0" encoding="utf-8"?>
<!-- Generator: Adobe Illustrator 17.0.1, SVG Export Plug-In . SVG Version: 6.00 Build 0)  -->
<!DOCTYPE svg PUBLIC "-//W3C//DTD SVG 1.1//EN" "http://www.w3.org/Graphics/SVG/1.1/DTD/svg11.dtd">
<svg version="1.1" id="Слой_1" xmlns="http://www.w3.org/2000/svg" xmlns:xlink="http://www.w3.org/1999/xlink" x="0px" y="0px"
	 width="150px" height="150px" viewBox="0 0 150 150" enable-background="new 0 0 150 150" xml:space="preserve">
<g>
	<g>
		<g>
			<path fill="none" stroke="#FFFFFF" stroke-width="2" stroke-miterlimit="10" d="M11.091,49.347
				c4.024,14.348,22.533,23.05,41.386,19.458"/>
			<path fill="none" stroke="#FFFFFF" stroke-width="2" stroke-miterlimit="10" d="M87.182,95.465
				c-2.529-16.428-18.685-28.251-36.119-26.427"/>
		</g>
		<g>
			<path opacity="0.2" fill="#010101" enable-background="new    " d="M115.469,71.682c-4.557-8.544-16.659-12.441-27.071-8.701
				c-3.993,1.434-6.407,3.536-8.528,6.368l-17.295,6.214c-3.967-0.646-7.515-0.606-11.511,0.83
				c-10.412,3.739-15.193,13.702-10.696,22.264c0.66,1.549,10.529,24.349,10.552,24.394c2.78,5.242,10.2,7.64,16.576,5.348
				c4.884-1.756,7.716-5.737,7.56-9.847l-0.119-12.307l23.745-8.528l10.901,8.472c3.513,2.867,8.986,3.863,13.865,2.11
				c6.381-2.293,9.301-8.403,6.529-13.647C129.95,94.606,116.401,73.136,115.469,71.682z"/>
			<g>
				<path opacity="0.5" fill="#010101" enable-background="new    " d="M53.246,122.531c2.271,4.299,8.351,6.264,13.586,4.382
					c3.998-1.434,6.309-4.696,6.185-8.07l-0.126-13.584l26.512-9.523l11.988,9.32c2.921,2.372,7.406,3.192,11.396,1.76
					c5.225-1.879,7.993-7.033,5.344-11.188C103.545,56.995,35.729,81.444,53.246,122.531z"/>
				
					<linearGradient id="SVGID_1_" gradientUnits="userSpaceOnUse" x1="231.4816" y1="-747.1462" x2="231.4814" y2="-820.3607" gradientTransform="matrix(0.9167 -0.3996 -0.3996 -0.9167 -440.2171 -529.2022)">
					<stop  offset="0" style="stop-color:#FFFFFF"/>
					<stop  offset="1" style="stop-color:#B3B2C9"/>
				</linearGradient>
				<path fill="url(#SVGID_1_)" d="M113.642,72.693L113.642,72.693c-4.038-7.62-14.825-11.105-24.101-7.769
					c-3.781,1.356-6.708,3.645-8.6,6.39l-17.198,6.181c-3.73-0.729-7.759-0.518-11.539,0.842c-9.278,3.33-13.531,12.215-9.498,19.84
					c0,0,9.528,22.456,9.627,22.644c2.273,4.295,8.353,6.26,13.586,4.382c4-1.436,6.314-4.698,6.185-8.076l-0.124-13.582
					l26.515-9.525l11.986,9.322c2.923,2.378,7.401,3.192,11.396,1.76c5.225-1.879,7.621-6.887,5.349-11.186
					C127.128,93.73,113.642,72.693,113.642,72.693z"/>
				<path opacity="0.35" fill="#FFFFFF" enable-background="new    " d="M90.318,66.398c-3.375,1.21-5.972,3.245-7.675,5.709
					l-0.32,0.463l-18.408,6.61l-0.628-0.12c-3.341-0.649-6.926-0.463-10.302,0.749c-8.291,2.974-12.086,10.918-8.49,17.722
					l8.045,18.955l52.855-49.236C101,65.044,95.407,64.562,90.318,66.398z"/>
				<polygon fill="#414141" points="67.087,88.231 60.959,90.431 58.291,85.394 54.349,86.811 57.017,91.849 50.889,94.05 
					52.606,97.29 58.731,95.087 61.392,100.123 65.334,98.706 62.671,93.674 68.804,91.472 				"/>
				
					<linearGradient id="SVGID_2_" gradientUnits="userSpaceOnUse" x1="250.0388" y1="-784.0654" x2="250.0388" y2="-775.8165" gradientTransform="matrix(0.9167 -0.3996 -0.3996 -0.9167 -440.2171 -529.2022)">
					<stop  offset="0" style="stop-color:#FFFFFF"/>
					<stop  offset="1" style="stop-color:#B3B2C9"/>
				</linearGradient>
				<path fill="url(#SVGID_2_)" d="M98.139,80.915c2.622-0.942,5.672,0.042,6.811,2.197c1.142,2.153-0.057,4.664-2.681,5.604
					c-2.617,0.942-5.67-0.042-6.808-2.195C94.318,84.366,95.52,81.853,98.139,80.915z"/>
				<ellipse fill="#283176" cx="100.204" cy="84.815" rx="3.219" ry="2.652"/>
				
					<linearGradient id="SVGID_3_" gradientUnits="userSpaceOnUse" x1="257.0374" y1="-778.0012" x2="257.0374" y2="-769.7548" gradientTransform="matrix(0.9167 -0.3996 -0.3996 -0.9167 -440.2171 -529.2022)">
					<stop  offset="0" style="stop-color:#FFFFFF"/>
					<stop  offset="1" style="stop-color:#B3B2C9"/>
				</linearGradient>
				<path fill="url(#SVGID_3_)" d="M102.137,72.563c2.622-0.943,5.667,0.042,6.808,2.197c1.139,2.153-0.062,4.658-2.68,5.6
					c-2.624,0.942-5.67-0.042-6.811-2.191C98.316,76.015,99.514,73.504,102.137,72.563z"/>
				<ellipse fill="#EC3182" cx="104.2" cy="76.459" rx="3.224" ry="2.656"/>
				
					<linearGradient id="SVGID_4_" gradientUnits="userSpaceOnUse" x1="249.1126" y1="-771.0098" x2="249.1126" y2="-762.7558" gradientTransform="matrix(0.9167 -0.3996 -0.3996 -0.9167 -440.2171 -529.2022)">
					<stop  offset="0" style="stop-color:#FFFFFF"/>
					<stop  offset="1" style="stop-color:#B3B2C9"/>
				</linearGradient>
				<path fill="url(#SVGID_4_)" d="M92.068,69.31c-2.612,0.939-3.816,3.45-2.677,5.608c1.139,2.147,4.189,3.133,6.806,2.199
					c2.619-0.946,3.823-3.458,2.684-5.608C97.738,69.351,94.694,68.37,92.068,69.31z"/>
				<ellipse fill="#FEE23F" cx="94.14" cy="73.211" rx="3.222" ry="2.654"/>
				
					<linearGradient id="SVGID_5_" gradientUnits="userSpaceOnUse" x1="242.1116" y1="-777.0646" x2="242.1116" y2="-768.8187" gradientTransform="matrix(0.9167 -0.3996 -0.3996 -0.9167 -440.2171 -529.2022)">
					<stop  offset="0" style="stop-color:#FFFFFF"/>
					<stop  offset="1" style="stop-color:#B3B2C9"/>
				</linearGradient>
				<path fill="url(#SVGID_5_)" d="M88.076,77.669c2.615-0.943,5.66,0.043,6.801,2.199c1.137,2.155-0.06,4.662-2.675,5.6
					c-2.611,0.94-5.655-0.045-6.794-2.199C84.266,81.116,85.461,78.607,88.076,77.669z"/>
				<path fill="#7EC242" d="M93.096,80.506c0.712,1.341-0.038,2.904-1.669,3.489c-1.627,0.584-3.532-0.028-4.236-1.363
					c-0.709-1.344,0.045-2.906,1.667-3.489C90.485,78.555,92.387,79.161,93.096,80.506z"/>
				
					<linearGradient id="SVGID_6_" gradientUnits="userSpaceOnUse" x1="231.4856" y1="973.1672" x2="231.4853" y2="918.5482" gradientTransform="matrix(0.9167 -0.3996 0.3996 0.9167 -504.9542 -677.7059)">
					<stop  offset="0" style="stop-color:#FFFFFF"/>
					<stop  offset="1" style="stop-color:#B3B2C9"/>
				</linearGradient>
				<path fill="url(#SVGID_6_)" d="M127.228,93.915c-0.101-0.187-13.583-21.222-13.583-21.222
					c-4.038-7.62-14.825-11.105-24.101-7.769c-3.781,1.356-6.708,3.645-8.6,6.39l-17.199,6.181
					c-3.73-0.729-7.759-0.518-11.539,0.842c-9.278,3.33-13.531,12.215-9.498,19.84c0,0,9.528,22.456,9.627,22.644
					c2.273,4.295,8.353,6.26,13.586,4.382c4-1.436,6.314-4.698,6.185-8.076l-0.124-13.582l26.515-9.525l11.979,9.329l0.007-0.008
					c2.923,2.378,7.401,3.192,11.396,1.76C127.101,103.222,129.5,98.214,127.228,93.915z M121.094,103.625
					c-3.239,1.169-6.87,0.504-9.234-1.425L98.891,92.125l-28.868,10.371l0.129,14.69c0.101,2.739-1.775,5.382-5.013,6.537
					c-4.244,1.519-9.167-0.065-11.021-3.544l-9.624-22.65c-3.601-6.809,0.198-14.75,8.49-17.722
					c3.377-1.212,6.961-1.399,10.302-0.749l0.628,0.124l18.408-6.611l0.32-0.463c1.703-2.464,4.301-4.499,7.675-5.709
					c8.287-2.984,17.93,0.13,21.536,6.935c0,0,13.538,21.145,13.583,21.228C127.267,98.049,125.328,102.101,121.094,103.625z"/>
				<polygon opacity="0.15" fill="#010101" enable-background="new    " points="98.431,94.044 98.815,92.153 70.024,102.497 
					70.027,102.751 72.068,103.514 				"/>
				<polygon fill="none" points="148.5,115.617 56.956,148.5 17.051,73.065 108.595,40.182 				"/>
			</g>
		</g>
	</g>
	<g>
		<g>
			
				<linearGradient id="SVGID_7_" gradientUnits="userSpaceOnUse" x1="-560.4911" y1="-3578.6521" x2="-560.4911" y2="-3432.6204" gradientTransform="matrix(4.489659e-011 -1 -1 -4.489659e-011 -3455.8091 -532.2032)">
				<stop  offset="0" style="stop-color:#EEEEF2"/>
				<stop  offset="0.1365" style="stop-color:#F5F5F8"/>
				<stop  offset="0.4127" style="stop-color:#FFFFFF"/>
				<stop  offset="1" style="stop-color:#FFFFFF"/>
			</linearGradient>
			<path fill="url(#SVGID_7_)" d="M106.094,0.5c2.71,0,4.921,1.861,4.921,4.134V51.95c0,2.271-2.211,4.126-4.921,4.126H5.424
				c-2.708,0-4.924-1.856-4.924-4.126V4.632C0.5,2.363,2.716,0.5,5.424,0.5H106.094L106.094,0.5z"/>
			<g>
				<g>
					
						<linearGradient id="SVGID_8_" gradientUnits="userSpaceOnUse" x1="-397.1959" y1="1217.886" x2="-339.1632" y2="1289.8231" gradientTransform="matrix(0.3023 -1.0345 1.0259 0.2998 -1117.676 -729.5176)">
						<stop  offset="0" style="stop-color:#A09F9F"/>
						<stop  offset="1" style="stop-color:#090909"/>
					</linearGradient>
					<polygon fill="url(#SVGID_8_)" points="100.51,3.363 100.265,53.254 9.192,53.286 9.446,3.389 					"/>
				</g>
				
					<linearGradient id="SVGID_9_" gradientUnits="userSpaceOnUse" x1="-383.3439" y1="1222.7253" x2="-357.3492" y2="1229.8527" gradientTransform="matrix(0.3023 -1.0345 1.0259 0.2998 -1117.676 -729.5176)">
					<stop  offset="0" style="stop-color:#FFFFFF"/>
					<stop  offset="1" style="stop-color:#A09F9F"/>
				</linearGradient>
				<polygon opacity="0.17" fill="url(#SVGID_9_)" enable-background="new    " points="9.2,50.839 9.379,3.579 69.127,3.556 				
					"/>
			</g>
		</g>
		<g>
			<g>
				<polygon fill="#151314" points="46.263,25.568 47.413,26.627 57.799,24.911 56.649,23.854 				"/>
				<polygon fill="#141314" points="56.649,23.854 57.799,24.911 64.737,17.315 63.578,16.258 				"/>
				<polygon fill="#141212" points="51.535,31.244 52.685,32.299 47.413,26.627 46.263,25.568 				"/>
				<polygon fill="#141212" points="47.447,39.556 48.6,40.611 52.685,32.299 51.535,31.244 				"/>
				<polygon fill="#151314" points="65.912,23.516 67.063,24.571 76.615,25.551 75.469,24.496 				"/>
				
					<radialGradient id="SVGID_10_" cx="58.0202" cy="27.6002" r="19.3925" gradientTransform="matrix(1.0234 0 0 1.0263 0.3882 0.2639)" gradientUnits="userSpaceOnUse">
					<stop  offset="0" style="stop-color:#FFFFFF"/>
					<stop  offset="0.2839" style="stop-color:#FFFFFF"/>
					<stop  offset="0.4478" style="stop-color:#F4F4F5"/>
					<stop  offset="0.5812" style="stop-color:#E7E6E7"/>
					<stop  offset="0.6982" style="stop-color:#D4D3D4"/>
					<stop  offset="0.8044" style="stop-color:#BABABC"/>
					<stop  offset="0.9022" style="stop-color:#9A999D"/>
					<stop  offset="0.9929" style="stop-color:#76757A"/>
					<stop  offset="1" style="stop-color:#737277"/>
				</radialGradient>
				<path fill="url(#SVGID_10_)" d="M74.098,11.846c5.853-0.215,9.375,3.526,7.883,8.359l-4.748,15.308
					c-1.488,4.829-7.444,8.922-13.287,9.138l-18.515,0.681c-5.844,0.215-9.368-3.526-7.874-8.357l4.736-15.308
					c1.493-4.837,7.446-8.93,13.287-9.144L74.098,11.846z M51.535,31.244l-4.086,8.312l10.19-4.087l7.864,3.42l1.017-8.198
					l8.95-6.196l-9.557-0.98l-2.333-7.257l-6.93,7.596l-10.386,1.714L51.535,31.244L51.535,31.244z"/>
				
					<linearGradient id="SVGID_11_" gradientUnits="userSpaceOnUse" x1="-532.2678" y1="1074.6493" x2="-473.8815" y2="1074.6493" gradientTransform="matrix(-0.7988 0.241 0.1577 0.7705 -509.5642 -673.4429)">
					<stop  offset="0.0495" style="stop-color:#737277"/>
					<stop  offset="0.1813" style="stop-color:#FFFFFF"/>
					<stop  offset="0.3132" style="stop-color:#737277"/>
					<stop  offset="0.456" style="stop-color:#454343"/>
					<stop  offset="0.5659" style="stop-color:#D3D6D4"/>
					<stop  offset="0.7418" style="stop-color:#454343"/>
					<stop  offset="0.8791" style="stop-color:#FFFFFF"/>
					<stop  offset="1" style="stop-color:#454343"/>
				</linearGradient>
				<path fill="url(#SVGID_11_)" d="M40.489,44.653c-0.098-0.079-0.193-0.159-0.282-0.242c-0.384-0.35-0.769-0.703-1.151-1.057
					c0.091,0.087,0.184,0.165,0.279,0.246c0.024,0.018,0.047,0.036,0.072,0.051c0.074,0.059,0.151,0.122,0.232,0.177
					c0.002,0.004,0.01,0.004,0.012,0.01c0.16,0.116,0.329,0.222,0.507,0.326c0.024,0.014,0.045,0.026,0.069,0.042
					c0.172,0.099,0.351,0.191,0.537,0.278c0.035,0.014,0.067,0.032,0.101,0.047c0.186,0.083,0.38,0.163,0.576,0.234
					c0.031,0.01,0.062,0.022,0.093,0.032c0.21,0.075,0.425,0.143,0.647,0.201c0.002,0,0.002,0,0.005,0
					c0.222,0.061,0.449,0.11,0.683,0.153c0.034,0.008,0.064,0.014,0.098,0.02c0.227,0.04,0.458,0.073,0.695,0.101
					c0.04,0.002,0.086,0.006,0.131,0.014c0.237,0.022,0.477,0.04,0.726,0.047c0.035,0.002,0.077,0.002,0.112,0.002
					c0.26,0.008,0.525,0.008,0.798-0.002l18.515-0.681c0.181-0.006,0.354-0.02,0.532-0.03c0.06-0.006,0.126-0.012,0.186-0.02
					c0.122-0.008,0.239-0.02,0.354-0.034c0.069-0.01,0.141-0.02,0.205-0.03c0.117-0.014,0.225-0.03,0.337-0.045
					c0.069-0.01,0.146-0.026,0.215-0.036c0.112-0.02,0.215-0.038,0.317-0.057c0.079-0.016,0.151-0.034,0.23-0.049
					c0.103-0.02,0.21-0.042,0.313-0.065c0.069-0.018,0.153-0.038,0.23-0.057c0.103-0.026,0.2-0.047,0.299-0.075
					c0.079-0.022,0.158-0.043,0.234-0.067c0.098-0.028,0.196-0.053,0.294-0.083c0.079-0.024,0.158-0.051,0.244-0.077
					c0.089-0.03,0.181-0.061,0.279-0.095c0.079-0.028,0.163-0.055,0.243-0.087c0.089-0.032,0.181-0.065,0.27-0.099
					c0.084-0.032,0.158-0.063,0.244-0.095c0.093-0.038,0.181-0.073,0.265-0.11c0.079-0.036,0.163-0.069,0.243-0.105
					c0.089-0.038,0.172-0.077,0.26-0.118c0.079-0.038,0.158-0.073,0.239-0.112c0.084-0.04,0.168-0.083,0.255-0.124
					c0.074-0.04,0.153-0.079,0.234-0.12c0.084-0.043,0.172-0.087,0.25-0.131c0.074-0.043,0.153-0.085,0.234-0.128
					c0.079-0.043,0.163-0.091,0.244-0.139c0.074-0.043,0.153-0.091,0.225-0.133c0.079-0.047,0.163-0.097,0.239-0.145
					c0.079-0.047,0.153-0.095,0.225-0.141c0.079-0.053,0.158-0.103,0.234-0.153c0.069-0.049,0.146-0.099,0.215-0.149
					c0.074-0.053,0.153-0.105,0.225-0.159c0.069-0.051,0.151-0.105,0.215-0.157c0.074-0.053,0.146-0.11,0.22-0.165
					c0.064-0.051,0.131-0.106,0.2-0.163c0.069-0.055,0.146-0.112,0.21-0.169c0.064-0.055,0.136-0.112,0.2-0.167
					c0.064-0.061,0.136-0.118,0.2-0.179c0.064-0.057,0.126-0.114,0.186-0.171c0.069-0.061,0.136-0.124,0.196-0.183
					c0.06-0.059,0.126-0.12,0.186-0.179c0.06-0.061,0.122-0.126,0.181-0.189c0.06-0.059,0.117-0.122,0.176-0.181
					c0.06-0.065,0.122-0.13,0.176-0.195c0.05-0.061,0.112-0.124,0.168-0.187c0.055-0.067,0.107-0.133,0.163-0.201
					c0.055-0.063,0.107-0.126,0.163-0.191c0.05-0.071,0.103-0.137,0.153-0.205c0.047-0.065,0.103-0.128,0.151-0.193
					c0.05-0.073,0.103-0.143,0.153-0.215c0.043-0.063,0.089-0.13,0.131-0.193c0.05-0.075,0.093-0.145,0.141-0.218
					c0.043-0.067,0.084-0.131,0.126-0.197c0.047-0.077,0.089-0.153,0.131-0.228c0.043-0.065,0.079-0.128,0.112-0.195
					c0.047-0.079,0.089-0.161,0.122-0.238c0.038-0.065,0.069-0.128,0.107-0.191c0.034-0.087,0.074-0.169,0.112-0.254
					c0.024-0.059,0.055-0.12,0.084-0.181c0.038-0.095,0.074-0.191,0.117-0.288c0.019-0.051,0.038-0.101,0.055-0.151
					c0.055-0.147,0.107-0.294,0.151-0.445l4.748-15.308c0.802-2.588,0.158-4.861-1.497-6.384c0.383,0.354,0.764,0.705,1.147,1.057
					c1.664,1.521,2.305,3.796,1.502,6.38l-4.748,15.308c-0.043,0.145-0.089,0.296-0.151,0.445c-0.019,0.045-0.038,0.095-0.055,0.139
					c-0.038,0.101-0.079,0.201-0.122,0.302c-0.024,0.053-0.047,0.11-0.069,0.163c-0.047,0.089-0.089,0.179-0.122,0.272
					c-0.034,0.057-0.06,0.114-0.093,0.171c-0.047,0.085-0.089,0.173-0.136,0.254c-0.034,0.059-0.069,0.12-0.103,0.179
					c-0.047,0.083-0.089,0.163-0.141,0.246c-0.034,0.059-0.074,0.12-0.122,0.179c-0.047,0.079-0.093,0.157-0.151,0.236
					c-0.038,0.059-0.079,0.118-0.122,0.179c-0.055,0.077-0.107,0.151-0.163,0.228c-0.043,0.059-0.093,0.118-0.136,0.177
					c-0.05,0.075-0.112,0.149-0.168,0.22c-0.05,0.061-0.098,0.118-0.146,0.177c-0.06,0.071-0.117,0.145-0.181,0.213
					c-0.05,0.059-0.103,0.116-0.153,0.173c-0.06,0.073-0.126,0.139-0.191,0.211c-0.05,0.057-0.107,0.112-0.168,0.169
					c-0.06,0.069-0.126,0.135-0.191,0.203c-0.055,0.055-0.117,0.112-0.172,0.167c-0.069,0.065-0.136,0.13-0.205,0.193
					c-0.06,0.057-0.122,0.11-0.181,0.163c-0.064,0.061-0.141,0.124-0.21,0.189c-0.06,0.051-0.131,0.105-0.191,0.155
					c-0.069,0.061-0.146,0.124-0.215,0.183c-0.069,0.051-0.131,0.103-0.196,0.151c-0.074,0.061-0.151,0.12-0.23,0.177
					c-0.069,0.049-0.136,0.097-0.2,0.147c-0.079,0.055-0.158,0.114-0.239,0.167c-0.064,0.049-0.136,0.095-0.205,0.141
					c-0.079,0.053-0.158,0.108-0.244,0.161c-0.064,0.045-0.141,0.091-0.205,0.135c-0.089,0.051-0.172,0.103-0.255,0.153
					c-0.074,0.043-0.146,0.087-0.21,0.128c-0.089,0.049-0.172,0.099-0.255,0.145c-0.074,0.042-0.153,0.083-0.225,0.122
					c-0.084,0.047-0.176,0.095-0.26,0.137c-0.074,0.04-0.146,0.079-0.225,0.116c-0.084,0.045-0.176,0.087-0.26,0.13
					c-0.079,0.038-0.158,0.073-0.239,0.108c-0.084,0.042-0.172,0.081-0.265,0.122c-0.079,0.036-0.151,0.067-0.23,0.101
					c-0.098,0.038-0.181,0.075-0.279,0.112c-0.079,0.03-0.158,0.063-0.234,0.095c-0.093,0.034-0.186,0.069-0.284,0.101
					c-0.079,0.03-0.153,0.057-0.234,0.085c-0.093,0.034-0.191,0.065-0.284,0.095c-0.079,0.026-0.158,0.049-0.239,0.075
					c-0.098,0.03-0.196,0.057-0.294,0.085c-0.074,0.022-0.153,0.043-0.234,0.067c-0.098,0.024-0.2,0.047-0.299,0.073
					c-0.079,0.02-0.151,0.04-0.239,0.057c-0.093,0.024-0.2,0.045-0.304,0.067c-0.069,0.016-0.151,0.034-0.225,0.049
					c-0.107,0.018-0.21,0.038-0.322,0.051c-0.069,0.014-0.146,0.028-0.215,0.04c-0.112,0.018-0.22,0.034-0.337,0.047
					c-0.064,0.006-0.141,0.02-0.205,0.026c-0.117,0.014-0.239,0.024-0.354,0.036c-0.06,0.006-0.126,0.012-0.186,0.016
					c-0.01,0-0.019,0.004-0.029,0.004c-0.163,0.01-0.337,0.02-0.504,0.028l-18.515,0.679c-0.272,0.012-0.537,0.012-0.798,0.006
					c-0.038,0-0.074-0.002-0.112-0.002c-0.248-0.01-0.49-0.028-0.729-0.047c-0.043-0.006-0.089-0.01-0.129-0.014
					c-0.237-0.028-0.47-0.059-0.695-0.099c-0.034-0.006-0.064-0.014-0.096-0.018c-0.237-0.045-0.465-0.095-0.688-0.153
					c0,0-0.002,0-0.005,0c-0.222-0.061-0.435-0.128-0.647-0.203c-0.029-0.01-0.06-0.02-0.093-0.032
					c-0.198-0.073-0.389-0.149-0.576-0.236c-0.035-0.014-0.069-0.03-0.101-0.045c-0.186-0.089-0.363-0.179-0.537-0.278
					c-0.024-0.014-0.047-0.028-0.069-0.043c-0.176-0.101-0.344-0.209-0.504-0.326c-0.005-0.002-0.007-0.002-0.012-0.006
					c-0.002-0.002-0.002-0.002-0.005-0.002c-0.074-0.051-0.141-0.106-0.208-0.161C40.548,44.7,40.517,44.679,40.489,44.653z"/>
				<g>
					
						<radialGradient id="SVGID_12_" cx="-345.56" cy="885.8098" r="1.9573" gradientTransform="matrix(-1.9804 0.4923 0.3359 1.3524 -936.5621 -1012.8063)" gradientUnits="userSpaceOnUse">
						<stop  offset="0" style="stop-color:#FDE262"/>
						<stop  offset="0.2582" style="stop-color:#F6EB49"/>
						<stop  offset="1" style="stop-color:#E6B54A"/>
					</radialGradient>
					<polygon fill="url(#SVGID_12_)" stroke="#F6EB16" stroke-width="0.25" stroke-miterlimit="10" points="45.912,18.157 
						47.065,19.212 44.73,11.951 43.578,10.894 					"/>
					
						<radialGradient id="SVGID_13_" cx="-337.6716" cy="894.4883" r="2.123" gradientTransform="matrix(-1.9804 0.4923 0.3359 1.3524 -936.0631 -1010.7968)" gradientUnits="userSpaceOnUse">
						<stop  offset="0" style="stop-color:#FDE262"/>
						<stop  offset="0.2582" style="stop-color:#F6EB49"/>
						<stop  offset="1" style="stop-color:#E6B54A"/>
					</radialGradient>
					<polygon fill="url(#SVGID_13_)" stroke="#F6EB16" stroke-width="0.25" stroke-miterlimit="10" points="27.445,34.198 
						28.596,35.254 38.783,31.167 37.635,30.112 					"/>
					
						<radialGradient id="SVGID_14_" cx="-347.6198" cy="891.3184" r="2.2182" gradientTransform="matrix(-1.9804 0.4923 0.3359 1.3524 -936.2455 -1011.5309)" gradientUnits="userSpaceOnUse">
						<stop  offset="0" style="stop-color:#FDE262"/>
						<stop  offset="0.2582" style="stop-color:#F6EB49"/>
						<stop  offset="1" style="stop-color:#E6B54A"/>
					</radialGradient>
					<polygon fill="url(#SVGID_14_)" stroke="#F6EB16" stroke-width="0.25" stroke-miterlimit="10" points="46.52,25.334 
						47.672,26.391 56.615,20.194 55.464,19.138 					"/>
					
						<radialGradient id="SVGID_15_" cx="-344.3996" cy="894.8618" r="2.0735" gradientTransform="matrix(-1.9804 0.4923 0.3359 1.3524 -936.0414 -1010.7101)" gradientUnits="userSpaceOnUse">
						<stop  offset="0" style="stop-color:#FDE262"/>
						<stop  offset="0.2582" style="stop-color:#F6EB49"/>
						<stop  offset="1" style="stop-color:#E6B54A"/>
					</radialGradient>
					<polygon fill="url(#SVGID_15_)" stroke="#F6EB16" stroke-width="0.25" stroke-miterlimit="10" points="45.499,33.534 
						46.649,34.591 47.672,26.391 46.52,25.334 					"/>
					
						<radialGradient id="SVGID_16_" cx="-342.0044" cy="895.6255" r="1.9458" gradientTransform="matrix(-1.9804 0.4923 0.3359 1.3524 -935.9977 -1010.5334)" gradientUnits="userSpaceOnUse">
						<stop  offset="0" style="stop-color:#FDE262"/>
						<stop  offset="0.2582" style="stop-color:#F6EB49"/>
						<stop  offset="1" style="stop-color:#E6B54A"/>
					</radialGradient>
					<polygon fill="url(#SVGID_16_)" stroke="#F6EB16" stroke-width="0.25" stroke-miterlimit="10" points="37.635,30.112 
						38.783,31.167 46.649,34.591 45.499,33.534 					"/>
					
						<radialGradient id="SVGID_17_" cx="-346.124" cy="887.1432" r="11.2608" gradientTransform="matrix(-1.9804 0.4923 0.3359 1.3524 -936.4854 -1012.4975)" gradientUnits="userSpaceOnUse">
						<stop  offset="0" style="stop-color:#FDE262"/>
						<stop  offset="0.2582" style="stop-color:#F6EB49"/>
						<stop  offset="1" style="stop-color:#E6B54A"/>
					</radialGradient>
					<polygon fill="url(#SVGID_17_)" stroke="#F6EB16" stroke-width="0.25" stroke-miterlimit="10" points="43.578,10.894 
						36.648,18.496 26.263,20.212 31.53,25.887 27.445,34.198 37.635,30.112 45.499,33.534 46.52,25.334 55.464,19.138 
						45.912,18.157 					"/>
				</g>
			</g>
		</g>
	</g>
	<path fill="#02BAC1" d="M105.399,39.194c0.767,0,1.392,0.514,1.392,1.148v7.859c0,0.634-0.626,1.148-1.392,1.148l0,0
		c-0.769,0-1.392-0.514-1.392-1.148v-7.859C104.007,39.708,104.63,39.194,105.399,39.194L105.399,39.194z"/>
</g>
</svg>
