<?xml version="1.0" encoding="utf-8"?>
<!-- Generator: Adobe Illustrator 17.0.1, SVG Export Plug-In . SVG Version: 6.00 Build 0)  -->
<!DOCTYPE svg PUBLIC "-//W3C//DTD SVG 1.1//EN" "http://www.w3.org/Graphics/SVG/1.1/DTD/svg11.dtd">
<svg version="1.1" id="Слой_1" xmlns="http://www.w3.org/2000/svg" xmlns:xlink="http://www.w3.org/1999/xlink" x="0px" y="0px"
	 width="150px" height="150px" viewBox="0 0 150 150" enable-background="new 0 0 150 150" xml:space="preserve">
<path opacity="0.2" fill="#010101" enable-background="new    " d="M136.527,56.745c-0.052-17.011-13.875-30.785-30.94-30.785
	c-6.538,0-11.394,2.062-16.378,5.525H60.87c-4.993-3.463-9.911-5.525-16.458-5.525c-17.06,0-30.899,13.774-30.944,30.783
	c-0.224,2.985-3.239,47.006-3.239,47.099c0.006,10.427,8.475,18.881,18.928,18.881c8.002,0,14.8-4.952,17.579-11.919l8.805-20.627
	h38.911l8.833,20.693c2.746,6.9,9.56,11.852,17.557,11.852c10.451,0,18.922-8.456,18.928-18.881
	C139.766,103.751,136.749,59.741,136.527,56.745z"/>
<g>
	<path opacity="0.5" fill="#010101" enable-background="new    " d="M13.808,104.367c0,8.546,6.943,15.476,15.515,15.476
		c6.551,0,12.11-4.059,14.398-9.775l9.721-22.77h43.442l9.715,22.77c2.29,5.716,7.862,9.775,14.409,9.775
		c8.566,0,16.126-6.952,15.513-15.477C130.803,25.054,19.619,25.202,13.808,104.367z"/>
	
		<linearGradient id="SVGID_1_" gradientUnits="userSpaceOnUse" x1="330.325" y1="385.6295" x2="330.3245" y2="506.44" gradientTransform="matrix(1 0 0 1 -255.16 -366.46)">
		<stop  offset="0" style="stop-color:#FFFFFF"/>
		<stop  offset="1" style="stop-color:#B3B2C9"/>
	</linearGradient>
	<path fill="url(#SVGID_1_)" d="M133.273,57.345L133.273,57.345c-0.011-15.16-12.33-27.451-27.526-27.451
		c-6.192,0-11.886,2.068-16.492,5.518H61.068c-4.601-3.452-10.3-5.518-16.496-5.518c-15.203,0.002-27.526,12.291-27.526,27.451
		c0,0-3.237,43.242-3.237,43.617c0,8.54,6.943,15.47,15.515,15.47c6.551,0,12.11-4.053,14.398-9.775l9.721-22.77h43.442l9.715,22.77
		c2.29,5.723,7.862,9.775,14.409,9.775c8.566,0,15.513-6.932,15.513-15.47C136.517,100.588,133.273,57.345,133.273,57.345z"/>
	<path opacity="0.35" fill="#FFFFFF" enable-background="new    " d="M105.747,32.823c-5.531,0-10.595,1.838-14.732,4.929
		l-0.775,0.583H60.08l-0.775-0.583c-4.128-3.091-9.201-4.929-14.732-4.929c-13.58-0.006-24.593,10.983-24.599,24.516L17.245,93.84
		l108.64-50.545C121.441,36.973,114.087,32.817,105.747,32.823z"/>
	<polygon fill="#414141" points="57.855,55.361 47.806,55.361 47.806,45.34 41.354,45.34 41.354,55.361 31.314,55.361 
		31.314,61.807 41.354,61.807 41.354,71.813 47.806,71.813 47.806,61.807 57.855,61.807 	"/>
	
		<linearGradient id="SVGID_2_" gradientUnits="userSpaceOnUse" x1="361.1007" y1="445.2311" x2="361.1007" y2="430.7296" gradientTransform="matrix(1 0 0 1 -255.16 -366.46)">
		<stop  offset="0" style="stop-color:#FFFFFF"/>
		<stop  offset="1" style="stop-color:#B3B2C9"/>
	</linearGradient>
	<ellipse fill="url(#SVGID_2_)" cx="105.941" cy="69.531" rx="7.776" ry="7.759"/>
	<circle fill="#283176" cx="105.941" cy="69.527" r="4.838"/>
	
		<linearGradient id="SVGID_3_" gradientUnits="userSpaceOnUse" x1="372.6859" y1="433.6589" x2="372.6859" y2="419.1685" gradientTransform="matrix(1 0 0 1 -255.16 -366.46)">
		<stop  offset="0" style="stop-color:#FFFFFF"/>
		<stop  offset="1" style="stop-color:#B3B2C9"/>
	</linearGradient>
	<ellipse fill="url(#SVGID_3_)" cx="117.526" cy="57.97" rx="7.771" ry="7.752"/>
	<circle fill="#EC3182" cx="117.526" cy="57.965" r="4.84"/>
	
		<linearGradient id="SVGID_4_" gradientUnits="userSpaceOnUse" x1="361.1933" y1="422.2064" x2="361.1933" y2="407.702" gradientTransform="matrix(1 0 0 1 -255.16 -366.46)">
		<stop  offset="0" style="stop-color:#FFFFFF"/>
		<stop  offset="1" style="stop-color:#B3B2C9"/>
	</linearGradient>
	<path fill="url(#SVGID_4_)" d="M106.031,38.744c-4.279,0-7.765,3.476-7.771,7.761c0.006,4.274,3.487,7.75,7.771,7.757
		c4.296-0.006,7.776-3.482,7.776-7.757C113.807,42.22,110.327,38.744,106.031,38.744z"/>
	<path fill="#FEE23F" d="M106.042,41.665c2.667,0,4.832,2.165,4.832,4.838s-2.165,4.838-4.832,4.838
		c-2.675,0-4.842-2.165-4.842-4.838S103.367,41.665,106.042,41.665z"/>
	
		<linearGradient id="SVGID_5_" gradientUnits="userSpaceOnUse" x1="349.606" y1="433.7596" x2="349.606" y2="419.2628" gradientTransform="matrix(1 0 0 1 -255.16 -366.46)">
		<stop  offset="0" style="stop-color:#FFFFFF"/>
		<stop  offset="1" style="stop-color:#B3B2C9"/>
	</linearGradient>
	<circle fill="url(#SVGID_5_)" cx="94.446" cy="58.064" r="7.757"/>
	<path fill="#7EC242" d="M99.291,58.064c0,2.662-2.167,4.827-4.845,4.827c-2.662,0-4.838-2.163-4.838-4.827
		c0-2.669,2.176-4.827,4.838-4.827C97.123,53.235,99.291,55.396,99.291,58.064z"/>
	
		<linearGradient id="SVGID_6_" gradientUnits="userSpaceOnUse" x1="330.3229" y1="387.9771" x2="330.3224" y2="478.1004" gradientTransform="matrix(1 0 0 1 -255.16 -366.46)">
		<stop  offset="0" style="stop-color:#FFFFFF"/>
		<stop  offset="1" style="stop-color:#B3B2C9"/>
	</linearGradient>
	<path fill="url(#SVGID_6_)" d="M136.517,100.962c0-0.374-3.243-43.617-3.243-43.617c-0.011-15.16-12.33-27.451-27.526-27.451
		c-6.192,0-11.886,2.068-16.492,5.518H61.068c-4.601-3.452-10.3-5.518-16.496-5.518c-15.203,0.002-27.526,12.291-27.526,27.451
		c0,0-3.237,43.242-3.237,43.617c0,8.54,6.943,15.47,15.515,15.47c6.551,0,12.11-4.053,14.398-9.775l9.721-22.77h43.442
		l9.696,22.779l0.019-0.009c2.29,5.723,7.862,9.775,14.409,9.775C129.565,116.432,136.517,109.502,136.517,100.962z
		 M121.002,113.503c-5.316,0.009-9.827-3.282-11.68-7.922L98.806,80.959H51.508l-10.52,24.621
		c-1.857,4.638-6.366,7.931-11.665,7.922c-6.952-0.013-12.577-5.617-12.592-12.541l3.243-43.623
		c0.004-13.537,11.017-24.522,24.599-24.516c5.529,0,10.604,1.838,14.732,4.929l0.775,0.583h30.161l0.775-0.583
		c4.136-3.091,9.198-4.929,14.732-4.929c13.576-0.006,24.586,10.983,24.597,24.516c0,0,3.235,43.457,3.235,43.623
		C133.564,107.886,127.938,113.49,121.002,113.503z"/>
	<polygon opacity="0.15" fill="#010101" enable-background="new    " points="96.777,83.886 98.681,80.959 51.508,80.959 
		51.327,81.383 53.578,83.886 	"/>
	<rect fill="none" width="150" height="150"/>
</g>
<radialGradient id="SVGID_7_" cx="281.1534" cy="-276.1438" r="13.0445" gradientTransform="matrix(2.1522 0 0 -2.1522 -549.1485 -489.5403)" gradientUnits="userSpaceOnUse">
	<stop  offset="0" style="stop-color:#F6EB16"/>
	<stop  offset="1" style="stop-color:#F16022"/>
</radialGradient>
<path fill="url(#SVGID_7_)" stroke="#F1E915" stroke-width="0.5" stroke-miterlimit="10" d="M63.336,89.155
	c1.302,2.753,4.825,5.404,7.832,5.893l10.675,1.737c3.002,0.489,3.648,2.593,1.433,4.683l-7.873,7.419
	c-2.215,2.088-3.648,6.256-3.181,9.265l1.649,10.692c0.463,3.007-1.341,4.272-4.009,2.813l-9.491-5.195
	c-2.669-1.461-7.074-1.537-9.795-0.166l-9.659,4.873c-2.716,1.373-4.477,0.045-3.913-2.944l2.01-10.628
	c0.568-2.994-0.727-7.208-2.871-9.371l-7.617-7.679c-2.144-2.161-1.425-4.246,1.593-4.632l10.726-1.375
	c3.022-0.387,6.633-2.916,8.025-5.624l4.952-9.618c1.39-2.707,3.594-2.669,4.896,0.082L63.336,89.155z"/>
</svg>
