<?xml version="1.0" encoding="utf-8"?>
<!-- Generator: Adobe Illustrator 16.0.1, SVG Export Plug-In . SVG Version: 6.00 Build 0)  -->
<!DOCTYPE svg PUBLIC "-//W3C//DTD SVG 1.1//EN" "http://www.w3.org/Graphics/SVG/1.1/DTD/svg11.dtd">
<svg version="1.1"
	 id="Слой_1" xmlns:cc="http://creativecommons.org/ns#" xmlns:svg="http://www.w3.org/2000/svg" xmlns:dc="http://purl.org/dc/elements/1.1/" xmlns:rdf="http://www.w3.org/1999/02/22-rdf-syntax-ns#"
	 xmlns="http://www.w3.org/2000/svg" xmlns:xlink="http://www.w3.org/1999/xlink" x="0px" y="0px" width="96px" height="96px"
	 viewBox="0 0 96 96" enable-background="new 0 0 96 96" xml:space="preserve">
<g>
	<g id="Layer_1">
		<g id="DO_NOT_EDIT_-_BOUNDING_BOX_3_">
			<path id="BOUNDING_BOX_3_" fill="none" d="M0.628-0.137h96v96h-96V-0.137z"/>
		</g>
		<linearGradient id="BLUE_4_1_" gradientUnits="userSpaceOnUse" x1="48.6279" y1="7.8628" x2="48.6279" y2="87.8638">
			<stop  offset="0" style="stop-color:#28D4E6"/>
			<stop  offset="1" style="stop-color:#0E5EBB"/>
		</linearGradient>
		<path id="BLUE_4_5_" fill="url(#BLUE_4_1_)" d="M8.628,47.863c0,29.6,10.4,40,40,40c29.601,0,40-10.4,40-40
			c0-29-9.899-39.5-38.101-40h-3.799C18.528,8.363,8.628,18.863,8.628,47.863z"/>
	</g>
	<g>
		<path opacity="0.2" enable-background="new    " d="M77.217,39.382c-0.024-7.904-6.447-14.304-14.376-14.304
			c-3.038,0-5.294,0.958-7.61,2.567H42.063c-2.32-1.609-4.605-2.567-7.647-2.567c-7.927,0-14.357,6.4-14.378,14.303
			c-0.104,1.387-1.505,21.841-1.505,21.884c0.003,4.845,3.938,8.773,8.795,8.773c3.718,0,6.877-2.301,8.168-5.538l4.091-9.584h18.08
			l4.104,9.615c1.276,3.206,4.442,5.507,8.158,5.507c4.856,0,8.792-3.929,8.795-8.773C78.722,61.223,77.32,40.774,77.217,39.382z"/>
		<g>
			<path opacity="0.5" enable-background="new    " d="M20.196,61.509c0,3.971,3.226,7.191,7.209,7.191
				c3.044,0,5.627-1.886,6.69-4.542l4.517-10.58h20.185l4.514,10.58c1.064,2.656,3.653,4.542,6.695,4.542
				c3.98,0,7.493-3.23,7.208-7.191C74.557,24.657,22.896,24.726,20.196,61.509z"/>
			
				<linearGradient id="SVGID_1_" gradientUnits="userSpaceOnUse" x1="48.7041" y1="75.0771" x2="48.7039" y2="18.9437" gradientTransform="matrix(1 0 0 -1 0 97)">
				<stop  offset="0" style="stop-color:#FFFFFF"/>
				<stop  offset="1" style="stop-color:#B2B2C9"/>
			</linearGradient>
			<path fill="url(#SVGID_1_)" d="M75.705,39.661L75.705,39.661c-0.005-7.044-5.729-12.755-12.79-12.755
				c-2.877,0-5.523,0.961-7.663,2.564H42.155c-2.138-1.604-4.786-2.564-7.665-2.564C27.426,26.907,21.7,32.617,21.7,39.661
				c0,0-1.504,20.092-1.504,20.266c0,3.968,3.226,7.188,7.209,7.188c3.044,0,5.627-1.883,6.69-4.542l4.517-10.58h20.185l4.514,10.58
				c1.064,2.659,3.653,4.542,6.695,4.542c3.98,0,7.208-3.221,7.208-7.188C77.212,59.753,75.705,39.661,75.705,39.661z"/>
			<path opacity="0.35" fill="#FFFFFF" enable-background="new    " d="M62.915,28.267c-2.57,0-4.923,0.854-6.845,2.29l-0.36,0.271
				H41.696l-0.36-0.271c-1.918-1.436-4.275-2.29-6.845-2.29c-6.31-0.003-11.427,5.103-11.43,11.391l-1.268,16.96l50.479-23.485
				C70.207,30.195,66.79,28.264,62.915,28.267z"/>
			<polygon fill="#404040" points="40.662,38.739 35.993,38.739 35.993,34.083 32.995,34.083 32.995,38.739 28.33,38.739 
				28.33,41.734 32.995,41.734 32.995,46.383 35.993,46.383 35.993,41.734 40.662,41.734 			"/>
			
				<linearGradient id="SVGID_2_" gradientUnits="userSpaceOnUse" x1="63.0049" y1="47.3838" x2="63.0049" y2="54.1218" gradientTransform="matrix(1 0 0 -1 0 97)">
				<stop  offset="0" style="stop-color:#FFFFFF"/>
				<stop  offset="1" style="stop-color:#B2B2C9"/>
			</linearGradient>
			<ellipse fill="url(#SVGID_2_)" cx="63.005" cy="45.323" rx="3.613" ry="3.605"/>
			<circle fill="#051F7D" cx="63.005" cy="45.321" r="2.248"/>
			
				<linearGradient id="SVGID_3_" gradientUnits="userSpaceOnUse" x1="68.3867" y1="52.7607" x2="68.3867" y2="59.4935" gradientTransform="matrix(1 0 0 -1 0 97)">
				<stop  offset="0" style="stop-color:#FFFFFF"/>
				<stop  offset="1" style="stop-color:#B2B2C9"/>
			</linearGradient>
			<ellipse fill="url(#SVGID_3_)" cx="68.388" cy="39.951" rx="3.611" ry="3.602"/>
			<circle fill="#ED2D81" cx="68.388" cy="39.949" r="2.249"/>
			
				<linearGradient id="SVGID_4_" gradientUnits="userSpaceOnUse" x1="63.0479" y1="58.082" x2="63.0479" y2="64.8213" gradientTransform="matrix(1 0 0 -1 0 97)">
				<stop  offset="0" style="stop-color:#FFFFFF"/>
				<stop  offset="1" style="stop-color:#B2B2C9"/>
			</linearGradient>
			<path fill="url(#SVGID_4_)" d="M63.047,31.018c-1.988,0-3.608,1.615-3.611,3.606c0.003,1.986,1.62,3.601,3.611,3.604
				c1.996-0.003,3.613-1.618,3.613-3.604C66.66,32.633,65.043,31.018,63.047,31.018z"/>
			<path fill="#FFE23D" d="M63.052,32.375c1.239,0,2.245,1.006,2.245,2.248c0,1.242-1.006,2.248-2.245,2.248
				c-1.243,0-2.25-1.006-2.25-2.248C60.802,33.381,61.809,32.375,63.052,32.375z"/>
			
				<linearGradient id="SVGID_5_" gradientUnits="userSpaceOnUse" x1="57.6641" y1="52.7139" x2="57.6641" y2="59.4497" gradientTransform="matrix(1 0 0 -1 0 97)">
				<stop  offset="0" style="stop-color:#FFFFFF"/>
				<stop  offset="1" style="stop-color:#B2B2C9"/>
			</linearGradient>
			<circle fill="url(#SVGID_5_)" cx="57.664" cy="39.995" r="3.604"/>
			<path fill="#79CD19" d="M59.915,39.995c0,1.237-1.007,2.243-2.251,2.243c-1.237,0-2.248-1.005-2.248-2.243
				c0-1.24,1.011-2.243,2.248-2.243C58.908,37.751,59.915,38.755,59.915,39.995z"/>
			
				<linearGradient id="SVGID_6_" gradientUnits="userSpaceOnUse" x1="48.7041" y1="73.9863" x2="48.7039" y2="32.1114" gradientTransform="matrix(1 0 0 -1 0 97)">
				<stop  offset="0" style="stop-color:#FFFFFF"/>
				<stop  offset="1" style="stop-color:#B2B2C9"/>
			</linearGradient>
			<path fill="url(#SVGID_6_)" d="M77.212,59.927c0-0.174-1.507-20.266-1.507-20.266c-0.005-7.044-5.729-12.755-12.79-12.755
				c-2.877,0-5.523,0.961-7.663,2.564H42.155c-2.138-1.604-4.786-2.564-7.665-2.564C27.426,26.907,21.7,32.617,21.7,39.661
				c0,0-1.504,20.092-1.504,20.266c0,3.968,3.226,7.188,7.209,7.188c3.044,0,5.627-1.883,6.69-4.542l4.517-10.58h20.185
				l4.505,10.584l0.009-0.004c1.064,2.659,3.653,4.542,6.695,4.542C73.982,67.115,77.212,63.895,77.212,59.927z M70.003,65.754
				c-2.47,0.004-4.566-1.525-5.427-3.681l-4.886-11.44H37.713l-4.888,11.44c-0.863,2.155-2.958,3.685-5.42,3.681
				c-3.23-0.006-5.844-2.61-5.851-5.827l1.507-20.269c0.002-6.29,5.119-11.394,11.43-11.391c2.569,0,4.927,0.854,6.845,2.29
				l0.36,0.271H55.71l0.36-0.271c1.922-1.436,4.274-2.29,6.845-2.29c6.308-0.003,11.424,5.103,11.429,11.391
				c0,0,1.503,20.192,1.503,20.269C75.84,63.144,73.226,65.748,70.003,65.754z"/>
			<polygon opacity="0.15" enable-background="new    " points="58.747,51.993 59.632,50.633 37.713,50.633 37.629,50.83 
				38.675,51.993 			"/>
			<rect x="13.78" y="13.016" fill="none" width="69.697" height="69.696"/>
		</g>
	</g>
	<g>
		<radialGradient id="SVGID_7_" cx="39.7734" cy="61.6992" r="13.0453" gradientUnits="userSpaceOnUse">
			<stop  offset="0" style="stop-color:#FFFF00"/>
			<stop  offset="1" style="stop-color:#FF5E00"/>
		</radialGradient>
		<path fill="url(#SVGID_7_)" stroke="#F9FF00" stroke-width="0.5" stroke-miterlimit="10" d="M43.209,54.441
			c0.605,1.279,2.242,2.511,3.639,2.738l4.96,0.807c1.395,0.227,1.695,1.205,0.666,2.176l-3.658,3.447
			c-1.029,0.97-1.695,2.907-1.478,4.305l0.766,4.968c0.215,1.397-0.623,1.985-1.863,1.307l-4.41-2.414
			c-1.24-0.679-3.287-0.714-4.551-0.077l-4.488,2.264c-1.262,0.638-2.08,0.021-1.818-1.368l0.934-4.938
			c0.264-1.391-0.338-3.349-1.334-4.354l-3.539-3.568c-0.996-1.004-0.662-1.973,0.74-2.152l4.984-0.639
			c1.404-0.18,3.082-1.355,3.729-2.613l2.301-4.469c0.646-1.258,1.67-1.24,2.275,0.038L43.209,54.441z"/>
	</g>
</g>
</svg>
