<?xml version="1.0" encoding="utf-8"?>
<!-- Generator: Adobe Illustrator 17.0.1, SVG Export Plug-In . SVG Version: 6.00 Build 0)  -->
<!DOCTYPE svg PUBLIC "-//W3C//DTD SVG 1.1//EN" "http://www.w3.org/Graphics/SVG/1.1/DTD/svg11.dtd">
<svg version="1.1" id="Слой_1" xmlns="http://www.w3.org/2000/svg" xmlns:xlink="http://www.w3.org/1999/xlink" x="0px" y="0px"
	 width="30px" height="30px" viewBox="0 0 30 30" enable-background="new 0 0 30 30" xml:space="preserve">
<g>
	<path fill-opacity="0.4" d="M29.796,15.364c0,10.974-3.838,14.814-14.814,14.814c-10.975,0-14.814-3.839-14.814-14.814
		C0.168,4.389,4.007,0.55,14.982,0.55C25.958,0.55,29.796,4.39,29.796,15.364z"/>
	
		<linearGradient id="SVGID_1_" gradientUnits="userSpaceOnUse" x1="150.1419" y1="-258.268" x2="150.1419" y2="-228.4507" gradientTransform="matrix(1 0 0 -1 -135.16 -228.46)">
		<stop  offset="0" style="stop-color:#69000F"/>
		<stop  offset="1" style="stop-color:#E2323B"/>
	</linearGradient>
	<path fill="url(#SVGID_1_)" d="M29.796,14.994c0,10.974-3.837,14.814-14.814,14.814c-10.975,0-14.814-3.839-14.814-14.814
		S4.007,0.18,14.982,0.18C25.958,0.18,29.796,4.019,29.796,14.994z"/>
	
		<linearGradient id="SVGID_2_" gradientUnits="userSpaceOnUse" x1="-262.7634" y1="1147.0544" x2="-262.7634" y2="1176.4021" gradientTransform="matrix(1 0 0 1 277.7453 -1146.7803)">
		<stop  offset="0" style="stop-color:#FFFFFF"/>
		<stop  offset="1" style="stop-color:#FFFFFF;stop-opacity:0"/>
	</linearGradient>
	<path fill="url(#SVGID_2_)" fill-opacity="0.3" d="M14.982,0.18C4.007,0.18,0.168,4.019,0.168,14.994
		c0,10.974,3.839,14.814,14.814,14.814c10.976,0,14.814-3.839,14.814-14.814S25.958,0.18,14.982,0.18z M14.982,29.438
		c-10.799,0-14.444-3.645-14.444-14.444S4.183,0.55,14.982,0.55s14.444,3.646,14.444,14.444S25.781,29.438,14.982,29.438z"/>
	<path fill-opacity="0.03" d="M14.984,26.845c-2.29,0-4.154-1.861-4.154-4.149c0-1.343,0.634-2.568,1.677-3.341
		c-0.587-0.295-0.993-0.893-1.016-1.598L11.136,6.535c-0.017-0.497,0.173-0.988,0.52-1.347c0.346-0.358,0.831-0.564,1.331-0.564
		h3.988c0.496,0,0.98,0.204,1.328,0.561c0.346,0.358,0.537,0.846,0.524,1.343l-0.349,11.228c-0.024,0.706-0.431,1.304-1.019,1.598
		c0.162,0.121,0.316,0.255,0.461,0.401c0.783,0.786,1.215,1.831,1.215,2.941C19.134,24.984,17.272,26.845,14.984,26.845z"/>
	<path fill-opacity="0.05" d="M14.984,26.474c-2.087,0-3.784-1.696-3.784-3.779c0-1.588,0.982-2.953,2.37-3.515h-0.228
		c-0.805,0-1.455-0.631-1.48-1.436L11.507,6.523c-0.013-0.398,0.139-0.791,0.415-1.078c0.277-0.286,0.665-0.45,1.065-0.45h3.988
		c0.397,0,0.784,0.164,1.062,0.449c0.277,0.286,0.43,0.677,0.42,1.075l-0.349,11.227c-0.027,0.805-0.678,1.436-1.481,1.436h-0.224
		c0.464,0.188,0.891,0.47,1.256,0.836c0.714,0.716,1.107,1.669,1.106,2.679C18.763,24.78,17.068,26.474,14.984,26.474z"/>
	<path fill-opacity="0.07" d="M14.984,26.105c-1.882,0-3.413-1.529-3.413-3.409c0-1.885,1.531-3.419,3.413-3.419
		c0.911,0,1.767,0.356,2.411,1.001c0.644,0.647,0.998,1.505,0.997,2.418C18.392,24.575,16.864,26.105,14.984,26.105z M13.342,18.811
		c-0.603,0-1.091-0.473-1.11-1.077L11.876,6.511c-0.01-0.298,0.103-0.593,0.312-0.809c0.207-0.214,0.498-0.337,0.799-0.337h3.988
		c0.298,0,0.589,0.123,0.797,0.337c0.209,0.214,0.323,0.508,0.314,0.807l-0.348,11.226c-0.02,0.603-0.508,1.077-1.111,1.077H13.342z
		"/>
	<path fill-opacity="0.1" d="M14.984,25.734c-1.678,0-3.043-1.363-3.043-3.039c0-1.681,1.364-3.048,3.043-3.048
		c0.811,0,1.575,0.317,2.149,0.893c0.574,0.576,0.89,1.342,0.89,2.155C18.023,24.371,16.659,25.734,14.984,25.734z M13.342,18.44
		c-0.403,0-0.727-0.315-0.74-0.717L12.245,6.5c-0.007-0.199,0.07-0.395,0.209-0.539c0.138-0.143,0.331-0.225,0.532-0.225h3.988
		c0.199,0,0.393,0.082,0.531,0.224c0.139,0.143,0.215,0.339,0.209,0.539l-0.348,11.224c-0.014,0.403-0.339,0.717-0.741,0.717H13.342
		z"/>
	<path fill-opacity="0.12" d="M14.984,25.364c-1.473,0-2.673-1.197-2.673-2.669c0-1.477,1.199-2.678,2.673-2.678
		c0.712,0,1.382,0.277,1.887,0.784c0.504,0.506,0.782,1.178,0.782,1.894C17.652,24.167,16.455,25.364,14.984,25.364z M13.342,18.069
		c-0.2,0-0.364-0.158-0.37-0.358L12.616,6.488c-0.003-0.1,0.034-0.197,0.104-0.269c0.069-0.072,0.166-0.112,0.267-0.112h3.988
		c0.1,0,0.196,0.041,0.266,0.112c0.07,0.071,0.107,0.169,0.104,0.269l-0.349,11.223c-0.007,0.2-0.17,0.358-0.37,0.358H13.342z"/>
	
		<linearGradient id="SVGID_3_" gradientUnits="userSpaceOnUse" x1="150.1419" y1="-234.6066" x2="150.1419" y2="-252.3873" gradientTransform="matrix(1 0 0 -1 -135.16 -228.46)">
		<stop  offset="0" style="stop-color:#F8FBEE"/>
		<stop  offset="0.3232" style="stop-color:#F8FBEE"/>
		<stop  offset="1" style="stop-color:#D2CBC5"/>
	</linearGradient>
	<path fill="url(#SVGID_3_)" d="M14.984,20.018c-1.271,0-2.302,1.031-2.302,2.308c0,1.267,1.032,2.297,2.302,2.297
		c1.267,0,2.298-1.032,2.298-2.297C17.282,21.049,16.25,20.018,14.984,20.018z M16.625,17.329l0.349-11.224h-3.988l0.356,11.224
		H16.625z"/>
	<path fill="#FFFFFF" d="M14.984,20.017c-1.271,0-2.302,1.032-2.302,2.308c0,0.083,0.015,0.162,0.025,0.244
		c0.124-1.16,1.09-2.063,2.277-2.063c1.183,0,2.149,0.904,2.273,2.062c0.009-0.081,0.025-0.16,0.025-0.243
		C17.282,21.049,16.25,20.017,14.984,20.017z M16.959,6.594l0.015-0.489h-3.988l0.015,0.489H16.959z"/>
</g>
</svg>
